<?xml version="1.0" encoding="UTF-8"?>
<svg xmlns="http://www.w3.org/2000/svg" version="1.1" viewBox="0 0 131.7 77">
  <defs>
    <style>
      .cls-1 {
        fill: #fff;
      }
    </style>
  </defs>
  <!-- Generator: Adobe Illustrator 28.7.0, SVG Export Plug-In . SVG Version: 1.2.0 Build 136)  -->
  <g>
    <g id="_구성_요소_1_1" data-name="구성_요소_1_1">
      <g id="_합치기_41" data-name="합치기_41">
        <path class="cls-1" d="M65.8,1.5c21.1,0,35.7,2.3,45.9,7.1,2.9,1.4,5.5,3,7.7,4.8,2.3,1.9,4.2,4,5.8,6.4,1.6,2.5,2.8,5.2,3.6,8.2.9,3.2,1.3,6.7,1.3,10.5s-.4,7.3-1.3,10.5c-.8,3-2,5.8-3.6,8.2-1.5,2.4-3.5,4.5-5.8,6.4-2.2,1.8-4.8,3.4-7.7,4.8-10.3,4.8-24.9,7.1-45.9,7.1s-15.7-.4-22.2-1.2c-7.2-.9-13.5-2.4-18.7-4.3l-.6-.2-.6.3-8.7,4.5,1.1-7.8v-.9c.1,0-.7-.5-.7-.5-2.2-1.4-4.2-3.1-5.9-4.8-1.7-1.8-3.2-3.8-4.4-6-1.2-2.2-2.1-4.7-2.8-7.3-.6-2.7-1-5.7-1-8.8s.4-7,1.3-10c.8-2.9,2-5.6,3.6-8,1.5-2.3,3.5-4.5,5.8-6.4,2.2-1.8,4.8-3.5,7.7-4.9,5.5-2.7,12.4-4.7,20.5-5.9,7.4-1.1,15.7-1.7,25.4-1.7Z"/>
        <path d="M65.8,74c9.9,0,18.1-.5,25.2-1.5,8.1-1.1,14.7-2.9,20.1-5.5,2.8-1.3,5.3-2.9,7.4-4.6,2.2-1.8,4-3.8,5.5-6,1.5-2.3,2.7-5,3.5-7.8.8-3,1.2-6.4,1.2-10.1s-.4-7-1.2-10.1c-.8-2.9-1.9-5.5-3.5-7.8-1.5-2.2-3.3-4.3-5.5-6-2.1-1.7-4.6-3.3-7.4-4.6-5.4-2.5-11.9-4.3-20.1-5.5-7.1-1-15.3-1.5-25.2-1.5s-17.9.6-25.2,1.7c-7.9,1.2-14.7,3.2-20.1,5.8-2.8,1.4-5.3,3-7.4,4.7-2.2,1.8-4,3.8-5.5,6-1.5,2.3-2.7,4.9-3.5,7.6-.8,2.9-1.2,6.1-1.2,9.6s.3,5.8.9,8.4c.6,2.5,1.5,4.8,2.6,6.9,1.1,2,2.5,3.9,4.1,5.6,1.6,1.7,3.5,3.2,5.6,4.6l1.6,1-1,6.8,7.3-3.8,1.2.5c5.2,1.9,11.4,3.3,18.4,4.2,6.4.8,13.8,1.2,22,1.2M65.8,77c-15.7,0-30.1-1.5-41.4-5.6l-8.9,4.6c-1,.5-2.2-.2-2-1.3l1.1-8.1C5.5,60.7,0,51.7,0,38.5,0,8,29.5,0,65.8,0s65.8,6.5,65.8,38.5-29.5,38.5-65.8,38.5Z"/>
      </g>
    </g>
  </g>
</svg>