<svg xmlns="http://www.w3.org/2000/svg" width="72.118" height="54.139" viewBox="0 0 72.118 54.139">
  <g id="icon_1" transform="translate(-0.1)">
    <g id="Layer_1" transform="translate(0.1)">
      <g id="그룹_69264" data-name="그룹 69264">
        <path id="color" d="M105.219,35.5c-3.556,0-6.395-2.753-6.882-6.71a9.337,9.337,0,0,1,1.09-5.592,1.6,1.6,0,0,1,1.376-.8c.574,0,.516.057.746.2a1.547,1.547,0,0,1,.6,2.122,6.052,6.052,0,0,0-.746,3.7c.2,1.577,1.147,3.556,3.154,3.9l1.319.258-.746-1.118a5.05,5.05,0,0,1-.8-2.868,3.922,3.922,0,0,1,3.929-3.871c2.151,0,3.5,1.52,3.785,3.642l.2,1.376.832-1.118a1.509,1.509,0,0,1,1.233-.631c.487,0,.373.029.545.086a1.484,1.484,0,0,1,.86.8,1.525,1.525,0,0,1,.057,1.176c-.832,2.265-3.126,3.7-5.993,3.756h-.2l-.143.115a6.849,6.849,0,0,1-4.244,1.548Zm2.925-7.714a.81.81,0,0,0-.688.889,1.876,1.876,0,0,0,.4,1.233l.631.746.344-.918a2.07,2.07,0,0,0,.172-.975,1.433,1.433,0,0,0-.4-.889l-.2-.143h-.258Z" transform="translate(-70.12 -15.977)" fill="#fb0"/>
        <g id="그룹_69270" data-name="그룹 69270">
          <path id="패스_99337" data-name="패스 99337" d="M36.145,54.139h-1.2c-.344,0-.688-.057-1.032-.057h-.029a26.736,26.736,0,0,1-15.743-6.8l-.115-.115c-.2-.2-.43-.4-.631-.6a1.855,1.855,0,0,0-.258-.229l-.459-.459a5.5,5.5,0,0,1-.4-.43c-.086-.086-.172-.2-.258-.287-.229-.258-.459-.516-.66-.774l-.086-.086c-.143-.172-.258-.315-.4-.487-.258-.344-.516-.66-.746-1l-.057-.086-.688-1.032c-.344-.516-.66-1.061-.946-1.577a1.339,1.339,0,0,1-.143-.287c-.115-.229-.229-.43-.344-.66a3.733,3.733,0,0,1-.229-.487c-.057-.115-.115-.229-.172-.373l-.344-.774-.086-.229-.344-.86-.172-.459-.487.115a7.448,7.448,0,0,1-1.749.2A8.456,8.456,0,0,1,.1,27.672,8.456,8.456,0,0,1,8.358,19.04c4.559,0,.975.057,1.434.143l.487.086.143-.487A27.042,27.042,0,0,1,61.9,18.7l.143.487.487-.086a7.84,7.84,0,0,1,1.434-.143,8.456,8.456,0,0,1,8.258,8.631,8.456,8.456,0,0,1-8.258,8.631c-4.559,0-1.176-.057-1.749-.2l-.487-.115-.172.459c-.115.287-.229.6-.344.889l-.086.2c-.115.258-.229.516-.344.8L60.6,38.6l-.258.516c-.115.2-.2.4-.315.631-.057.115-.115.2-.172.315a10.872,10.872,0,0,1-.574.975h0a5.044,5.044,0,0,1-.344.574h0a9.094,9.094,0,0,1-.66,1.032l-.086.115c-.229.315-.487.66-.717.975h0a4.044,4.044,0,0,1-.4.516l-.086.115a8.166,8.166,0,0,1-.66.746c-.086.086-.172.2-.258.287-.143.143-.258.287-.4.43l-.459.459a1.855,1.855,0,0,1-.258.229c-.2.2-.43.4-.631.6l-.115.115a27.014,27.014,0,0,1-15.714,6.8h-.057c-.344.029-.688.057-1.032.057H36.2Zm0-51.042a24.122,24.122,0,0,0-23.37,18.7c-.057.315-.143.631-.2.975a2.556,2.556,0,0,1-.057.315c-.029.2-.057.373-.086.574l-.086.774a2.213,2.213,0,0,1-.057.43c0,.315-.057.6-.057.918v.229c0,.43-.029.774-.029,1.09v1.376c0,.315.057.66.086.946v.373a5.742,5.742,0,0,0,.115.688,2.9,2.9,0,0,0,.086.487,3.383,3.383,0,0,0,.115.574,7.335,7.335,0,0,1,.143.774c.029.172.086.344.115.487.029.172.086.344.115.487s.086.258.115.4l.057.143c.057.143.086.315.143.459.086.287.2.6.315.889V35.3c.172.344.315.688.459,1.032l.086.172c.115.287.258.574.4.889l.086.143c.143.315.315.6.459.889l.057.086a24.889,24.889,0,0,0,3.269,4.617l.086.086c.2.229.43.459.688.717l.115.115c.229.229.459.459.688.66l.115.115c.258.229.545.487.8.688a1.591,1.591,0,0,0,.229.172l.115.086c.143.115.315.258.487.373s.344.258.516.373c.115.086.2.143.315.229.2.143.4.258.6.4l.2.115a6.757,6.757,0,0,0,.717.43h.029a22.513,22.513,0,0,0,3.441,1.692c.287.115.6.229.889.315h.057a20.61,20.61,0,0,0,3.47.918H32.1a.837.837,0,0,0,.258.057l.6.086c.172,0,.344.057.545.057a3.161,3.161,0,0,1,.516.057,5.569,5.569,0,0,1,.688.057h3.04a5.569,5.569,0,0,0,.688-.057,3.16,3.16,0,0,0,.516-.057c.172,0,.344-.057.545-.057a4.35,4.35,0,0,0,.6-.086.837.837,0,0,0,.258-.057h.115a28.04,28.04,0,0,0,3.47-.918H44c.287-.115.6-.229.889-.344a25.35,25.35,0,0,0,3.441-1.663h.029c.229-.172.459-.315.688-.459.086-.057.143-.086.229-.143.2-.115.4-.258.6-.4.115-.086.2-.143.315-.229a3.131,3.131,0,0,0,.487-.373c.172-.115.315-.258.487-.373l.115-.086c.057-.057.143-.115.2-.172.287-.229.545-.459.8-.688l.115-.115c.229-.229.459-.43.688-.66l.115-.115c.229-.229.459-.487.66-.717l.086-.086a23.613,23.613,0,0,0,3.269-4.617l.057-.086c.143-.287.287-.574.459-.889l.086-.172c.143-.287.258-.574.4-.86l.086-.172a9.814,9.814,0,0,0,.373-.975,1.782,1.782,0,0,1,.086-.287l.258-.774a3.467,3.467,0,0,0,.143-.516l.057-.172c.029-.115.057-.2.086-.315.057-.172.086-.344.143-.516.029-.143.086-.315.115-.459.057-.258.115-.516.172-.8a4.061,4.061,0,0,1,.115-.574,2.9,2.9,0,0,1,.086-.487l.086-.688v-.115c0-.086.029-.172.029-.258l.086-.946V25.664c0-.315-.057-.6-.086-.918a1.115,1.115,0,0,0-.057-.43,7.1,7.1,0,0,0-.086-.774,3.959,3.959,0,0,0-.086-.574,2.142,2.142,0,0,0-.057-.315c-.057-.315-.115-.66-.2-.975A24.122,24.122,0,0,0,36.2,2.982ZM63.988,22.08a4.861,4.861,0,0,0-.631.029l-.574.086.086.574a23.046,23.046,0,0,1,.315,3.154v2.523a27.013,27.013,0,0,1-.487,3.986l-.115.574.574.115a3.922,3.922,0,0,0,.832.057,5.353,5.353,0,0,0,5.133-5.534,5.353,5.353,0,0,0-5.133-5.534Zm-55.659,0A5.353,5.353,0,0,0,3.2,27.614,5.353,5.353,0,0,0,8.33,33.149c2.839,0,.545,0,.832-.057l.574-.086-.115-.574a26.551,26.551,0,0,1-.487-3.986V25.951A28.655,28.655,0,0,1,9.448,22.8l.086-.574-.574-.086c-.2,0-.4-.029-.631-.029Z" transform="translate(-0.1)" fill="#515151"/>
          <path id="패스_99339" data-name="패스 99339" d="M90.193,99.144A1.9,1.9,0,0,1,88.3,97.223v-.4A1.915,1.915,0,0,1,90.193,94.9a1.94,1.94,0,0,1,1.921,1.921v.4A1.921,1.921,0,0,1,90.193,99.144Z" transform="translate(-63.009 -67.688)" fill="#515151"/>
          <path id="패스_99340" data-name="패스 99340" d="M151.993,99.144a1.9,1.9,0,0,1-1.893-1.921v-.4a1.916,1.916,0,0,1,1.893-1.921,1.94,1.94,0,0,1,1.921,1.921v.4A1.921,1.921,0,0,1,151.993,99.144Z" transform="translate(-107.087 -67.688)" fill="#515151"/>
          <path id="패스_99341" data-name="패스 99341" d="M106.186,139.706a10.431,10.431,0,0,1-7.427-3.068,1.541,1.541,0,1,1,2.179-2.179,7.407,7.407,0,0,0,10.5,0,1.541,1.541,0,1,1,2.179,2.179A10.431,10.431,0,0,1,106.186,139.706Z" transform="translate(-70.141 -95.575)" fill="#515151"/>
        </g>
      </g>
    </g>
  </g>
</svg>
