<svg xmlns="http://www.w3.org/2000/svg" width="61.13" height="53.841" viewBox="0 0 61.13 53.841">
  <g id="icon_3" transform="translate(0.01)">
    <g id="Layer_1" transform="translate(-0.01)">
      <g id="그룹_69263" data-name="그룹 69263">
        <g id="그룹_69262" data-name="그룹 69262">
          <path id="패스_99334" data-name="패스 99334" d="M18.035,53.784a6.525,6.525,0,0,1-5.708-3.041v-.057a5.38,5.38,0,0,1-5.393-5.364c0-2.955,1.291-4.1,3.27-4.934l.889-.258.229-1.434.43-1.778L9.287,36c-6.11-2.668-9.409-6.225-9.294-9.982.115-3.729,3.5-7.056,9.552-9.322l1.778-.6-.2-.8-.229-1.319h0A5.4,5.4,0,0,1,6.59,8.72a5.674,5.674,0,0,1,5.364-5.364h0l.373-.6a6.337,6.337,0,0,1,1.635-1.52A6.956,6.956,0,0,1,17.749.172c3.5,0,7.974,2.209,12.593,6.225l1.319-1.147C35.848,1.807,39.75,0,42.962,0s2.582.344,3.643,1c3.586,2.237,4.59,7.659,2.782,15.26l-.172.631,2.467.918c6.11,2.668,9.409,6.2,9.294,9.982a6.771,6.771,0,0,1-.717,2.754l-.057.115h0a5.463,5.463,0,0,1,.918,3.012,5.374,5.374,0,0,1-5.364,5.364c-2.955,0-2.782-.545-3.786-1.578l-.373-.43-1.176.43-.8.258.4,1.836c1.176,6.368.086,10.986-3.041,13.023A6.929,6.929,0,0,1,43.22,53.64h-.545c-3.385-.2-7.458-2.266-11.789-6l-.258-.229-.4.373c-4.217,3.672-8.2,5.766-11.531,6.024a3.657,3.657,0,0,0-.574.029h-.086Zm-3.27-3.729a4.086,4.086,0,0,0,.861.717,4.35,4.35,0,0,0,2.237.631h.143c2.61,0,6.081-1.664,9.781-4.676l1.09-.947-.488-.459A60.279,60.279,0,0,1,23.514,39.9l-.229-.287-1.893-.258Q19.2,39.011,17,38.495l-2.983-.832-.344,1.492-.172.975a5.4,5.4,0,0,1,4.159,5.221A4.578,4.578,0,0,1,15.31,49.8l-.516.287ZM33.7,46.871c3.356,2.61,6.54,4.159,9.036,4.331h1a4.242,4.242,0,0,0,1.951-.631c2.237-1.434,2.955-5.335,1.979-10.671l-.344-1.52-1.233.316a54.787,54.787,0,0,1-6.081,1.033l-2.582.229-1.262,1.606c-.975,1.147-1.951,2.266-2.955,3.3l-.889.861,1.348,1.147ZM12.3,42.338a2.983,2.983,0,1,0,2.983,2.983A2.981,2.981,0,0,0,12.3,42.338Zm14.314-2.41c.774.918,1.549,1.778,2.295,2.582L30.6,44.174l.6-.574c.574-.574,1.147-1.2,1.721-1.836l1.406-1.635h-1c-.4.029-.8.057-1.2.057-.717,0-1.348,0-2.008-.029-.947,0-1.922-.057-2.955-.143l-.516-.057Zm.545-2.323c.947.057,1.922.115,3.012.143.688,0,1.348.029,1.979.029h1.119c1.09,0,2.065-.057,2.955-.115l.115-.143c1.147-1.52,2.266-3.184,3.327-4.876,1.09-1.75,2.065-3.5,2.926-5.163l.316-.66-1-1.979c-.717-1.291-1.492-2.582-2.295-3.844-.516-.8-1.061-1.606-1.692-2.5l-1.52-2.094-2.61-.229c-.947-.086-1.922-.115-3.012-.143-.66,0-1.348-.029-2.037-.029s-1.606,0-2.438.057l-1.664.115-.086.115c-1.147,1.549-2.266,3.184-3.327,4.876-1.119,1.778-2.123,3.614-3.041,5.421l-.2.4,1.291,2.41c.66,1.176,1.348,2.323,2.037,3.385.516.832,1.061,1.635,1.692,2.5l1.549,2.094,2.61.229Zm14.572-3.729L39.377,37.4c1.807-.2,3.586-.488,5.278-.832l2.094-.488-.115-.43c-.344-1.147-.774-2.295-1.2-3.442l-1.2-2.782-2.5,4.417ZM17.347,36.143c1.262.287,2.61.574,3.987.8l-.631-.861c-.459-.66-.918-1.348-1.348-2.008-.717-1.119-1.434-2.295-2.123-3.5l-.459-.889L15.855,31.9c-.373.975-.66,1.778-.918,2.524l-.316,1,2.7.746Zm38.409-5.45a2.983,2.983,0,1,0,2.983,2.983A2.981,2.981,0,0,0,55.756,30.692Zm-9.867-3.327a62.48,62.48,0,0,1,2.983,7.487l.143.545.373-.115,1.176-.43v-.115a3.8,3.8,0,0,1-.143-1.09,5.374,5.374,0,0,1,5.364-5.364c2.955,0,1.434.143,2.094.43l.488.258.057-.143a3.273,3.273,0,0,0,.2-1.176c.086-2.7-2.811-5.536-7.917-7.774l-2.094-.8-.631,1.951c-.316.889-.631,1.721-.947,2.524L45.6,26.677l.316.631Zm-35.4-8.491c-5.077,1.922-8.06,4.532-8.146,7.2-.086,2.7,2.811,5.536,7.917,7.774l2.094.8.287-.975c.574-1.75,1.291-3.557,2.094-5.393l.6-1.233a54.892,54.892,0,0,1-2.811-6.712l-.6-1.951-1.463.488Zm4.331.688c.344,1.033.774,2.094,1.2,3.184l.717,1.578.861-1.606c.6-1.033,1.147-1.951,1.664-2.811l2.381-3.5-3.413.459c-1.233.2-2.438.459-3.557.746l-.43.115.574,1.864ZM39.95,17.268c.574.832,1.147,1.664,1.664,2.467.8,1.233,1.549,2.5,2.295,3.815l.316.574.688-1.606c.344-.889.631-1.664.889-2.352l.574-1.75-2.725-.746c-1.262-.316-2.61-.574-3.958-.8l.287.4Zm-.373-2.811q2.323.344,4.389.861l2.983.832.115-.459c1.463-6.339.832-11.072-1.75-12.679a4.517,4.517,0,0,0-2.381-.6c-2.61,0-6.11,1.664-9.781,4.676l-1.119.975,1.348,1.291c1.033,1.061,2.037,2.18,3.012,3.327l1.233,1.549,1.922.258Zm-26.1.344.143.6.545-.143a58.1,58.1,0,0,1,7.946-1.319l1.406-.086,2.61-3.184c.6-.66,1.2-1.348,1.836-1.979l.66-.631L26.01,6c-3.127-2.237-6-3.413-8.232-3.413s-1.807.229-2.467.66l-.832.774.488.258A5.36,5.36,0,0,1,17.347,8.72a5.775,5.775,0,0,1-3.27,4.934l-.746.229.172.918Zm15.346-1.176c.66,0,1.348,0,2.037.029.975,0,1.979.086,2.955.143l.516.057q-1.377-1.635-2.754-3.012L30.312,9.667l-.574.574c-.574.6-1.147,1.2-1.721,1.836l-1.377,1.606c.717,0,1.434-.029,2.18-.029ZM11.954,5.708a2.983,2.983,0,1,0,2.983,2.983,2.981,2.981,0,0,0-2.983-2.983Z" transform="translate(0.01)" fill="#515151"/>
          <path id="패스_99335" data-name="패스 99335" d="M18.446,53.92a6.711,6.711,0,0,1-3.672-.975,6.39,6.39,0,0,1-2.008-2.008l-.057-.115h-.057A5.221,5.221,0,0,1,7.432,45.6a4.584,4.584,0,0,1,3.184-4.819l.947-.287.258-1.52.459-1.893L9.7,36.107C4.018,33.669.346,30.227.49,26.3.6,22.4,4.3,19.241,9.956,17.089l1.922-.66-.229-.918-.258-1.434h-.115A5.234,5.234,0,0,1,7.116,8.943a5.478,5.478,0,0,1,5.221-5.221h.086l.43-.66A6.39,6.39,0,0,1,14.431,1.6c4.016-2.582,10.1-.143,16.207,5.192l.057.057,1.434-1.233C37.694,1.026,43.173-.953,46.873,1.37,50.6,3.694,51.262,9.459,49.6,16.458l-.2.746,2.582.975c5.68,2.467,9.322,5.88,9.208,9.839a6.292,6.292,0,0,1-.717,2.7l-.115.2.057.086a5.111,5.111,0,0,1,.889,2.926,5.221,5.221,0,0,1-5.221,5.221c-2.9,0-2.754-.574-3.7-1.52l-.43-.516-1.262.488-.918.287.43,1.951c1.09,5.966.287,10.757-2.983,12.851a6.662,6.662,0,0,1-4.217,1c-3.442-.2-7.573-2.41-11.7-5.966l-.344-.316-.488.459c-4.016,3.5-8.06,5.708-11.445,5.966a3.657,3.657,0,0,0-.574.029Zm-.229-2.094c2.639.057,6.2-1.606,10.011-4.7l1.233-1.061-.6-.574a60.536,60.536,0,0,1-4.848-5.421l-.258-.344L21.8,39.463c-1.492-.229-2.983-.516-4.389-.861l-3.127-.861-.4,1.635L13.713,40.5h0A5.2,5.2,0,0,1,17.873,45.6a4.418,4.418,0,0,1-2.295,4.331l-.66.373v.057a5.328,5.328,0,0,0,1,.832,4.149,4.149,0,0,0,2.323.631Zm24.841-.2H44.09a4.389,4.389,0,0,0,2.037-.66c2.323-1.492,3.012-5.479,2.037-10.814l-.373-1.664-1.377.344a59.565,59.565,0,0,1-6.081,1.033l-2.639.229L36.4,41.758c-.975,1.176-1.951,2.266-2.955,3.3l-1,.947,1.492,1.262c3.413,2.668,6.6,4.188,9.122,4.36ZM12.652,48.757a3.127,3.127,0,1,0-3.127-3.127A3.134,3.134,0,0,0,12.652,48.757Zm18.3-4.131.688-.66c.574-.574,1.147-1.2,1.75-1.864L35,40.238l-1.319.057H30.465c-1,0-1.979-.086-2.955-.143l-.861-.086.115.143c.8.947,1.606,1.864,2.438,2.725l1.778,1.75Zm2.7-6.425c1.033,0,2.037-.057,3.041-.115h0l.143-.2a58.558,58.558,0,0,0,3.327-4.905q1.635-2.625,2.926-5.163l.344-.717-1.061-2.037c-.717-1.262-1.492-2.553-2.323-3.844-.545-.861-1.119-1.692-1.692-2.5l-1.578-2.151-2.668-.258c-.975-.086-1.979-.115-3.012-.143-1.52-.057-3.012-.029-4.475,0l-1.721.115-.143.172a58.561,58.561,0,0,0-3.327,4.905c-1.147,1.807-2.151,3.643-3.069,5.45l-.229.459,1.319,2.5c.631,1.119,1.319,2.266,2.037,3.385.545.861,1.119,1.692,1.692,2.5L24.757,37.8l2.668.258c.975.057,1.979.115,3.012.143,1.061.029,2.094.029,3.127,0Zm5.766-.344h.172c1.893-.229,3.729-.516,5.421-.861l2.266-.545-.143-.574q-.516-1.678-1.2-3.442L44.607,29.4l-2.639,4.676-2.524,3.758ZM21.975,37.4l-.8-1.147c-.459-.66-.889-1.319-1.348-2.008-.746-1.147-1.463-2.323-2.123-3.5L17.1,29.6l-1.033,2.467c-.344.861-.631,1.692-.918,2.553L14.8,35.763l2.84.8c1.319.316,2.725.6,4.188.832Zm34.135-.316a3.127,3.127,0,1,0-3.127-3.127A3.134,3.134,0,0,0,56.109,37.083Zm-6.856-1.2.516-.172,1.319-.488L51,34.989a6.328,6.328,0,0,1-.115-1.061,5.24,5.24,0,0,1,5.221-5.221c2.868,0,1.406.143,2.037.4l.631.344.115-.287a4.672,4.672,0,0,0,.229-1.233c.086-2.782-2.9-5.68-8-7.888l-2.266-.861-.688,2.094q-.43,1.248-.947,2.5l-1.463,3.184.344.688a56.153,56.153,0,0,1,2.955,7.487l.2.688ZM12.824,35.1l.344-1.147a52.846,52.846,0,0,1,2.094-5.364l.631-1.319h0a59.284,59.284,0,0,1-2.811-6.741l-.66-2.094-1.606.545C5.739,20.9,2.67,23.572,2.584,26.326c-.086,2.782,2.9,5.68,8,7.917l2.266.861ZM17.07,24.892l.975-1.864c.516-.918,1.061-1.864,1.664-2.782l2.582-3.786-3.729.488c-1.262.2-2.438.459-3.586.746l-.574.172.631,2.008c.344,1.033.774,2.094,1.2,3.184Zm27.508-.143.8-1.893c.316-.8.631-1.606.889-2.381l.6-1.893L44,17.778c-1.319-.316-2.725-.6-4.188-.832h-.143l.488.66c.574.8,1.119,1.635,1.664,2.467.8,1.262,1.578,2.524,2.266,3.786l.43.861ZM47.447,16.6l.143-.6c1.492-6.368.832-11.187-1.807-12.851-2.639-1.635-7.257-.057-12.334,4.073L32.215,8.283l1.463,1.406c1,1.033,2.008,2.151,2.983,3.327l1.262,1.578,1.979.258q2.28.344,4.389.861l3.127.861Zm-33.59-.746.688-.172a58.405,58.405,0,0,1,7.917-1.319l1.463-.086,2.639-3.241c.6-.688,1.2-1.348,1.836-1.979l.774-.746-2.754-2.18c-4.532-3.213-8.548-4.274-10.9-2.754l-.975.918.66.373A5.176,5.176,0,0,1,17.5,9a5.665,5.665,0,0,1-3.184,4.819l-.861.258.172,1.061.2.774Zm21.169-1.549-.115-.143c-.947-1.119-1.922-2.18-2.868-3.155L30.666,9.717l-.688.66-1.75,1.836-1.606,1.864h.086c1.463-.057,2.955-.057,4.446,0,1,0,1.979.086,2.955.143l.861.086ZM12.308,12.1A3.127,3.127,0,1,0,9.181,8.972,3.134,3.134,0,0,0,12.308,12.1Z" transform="translate(-0.344 -0.28)" fill="#515151"/>
        </g>
        <path id="color" d="M78.626,78.331h-.057l-.258-.057h-.057L75.3,77.041a1.178,1.178,0,0,1-.717-1.291l.229-1.434-.057-.057-.172-.2-1.434.258a1.178,1.178,0,0,1-1.291-.717l-1.233-2.955a1.175,1.175,0,0,1,.4-1.434l1.262-.918v-.258l-1.262-.889a1.213,1.213,0,0,1-.43-1.434l1.2-2.955a1.178,1.178,0,0,1,1.291-.717l1.578.258.115-.086v-.057c.029,0-.229-1.578-.229-1.578a1.193,1.193,0,0,1,.688-1.291L78.2,58.051a1.175,1.175,0,0,1,1.434.4l.918,1.262h.229l.889-1.291a1.185,1.185,0,0,1,1.406-.43l2.983,1.2a1.178,1.178,0,0,1,.717,1.291l-.229,1.463.2.172.057.057,1.434-.258a1.178,1.178,0,0,1,1.291.717L90.759,65.6a1.212,1.212,0,0,1-.4,1.434l-1.119.8v.43l1.119.8a1.185,1.185,0,0,1,.43,1.406l-1.2,2.983a1.178,1.178,0,0,1-1.291.717l-1.319-.2-.086.086-.258.258.229,1.319a1.178,1.178,0,0,1-.717,1.291l-2.954,1.233a1.212,1.212,0,0,1-1.434-.4l-.8-1.119h-.43l-.8,1.119a1.227,1.227,0,0,1-1.033.516Zm-.373-2.639.631-.889a1.17,1.17,0,0,1,1.09-.488h.2a3.658,3.658,0,0,0,1.119,0,1.158,1.158,0,0,1,1.119.488l.631.861,1.2-.516-.172-1.033A1.12,1.12,0,0,1,84.506,73l.172-.143a10.418,10.418,0,0,0,.774-.8h.029a1.159,1.159,0,0,1,1.119-.488l1.033.172.488-1.2-.889-.631a1.123,1.123,0,0,1-.488-1.061V67.546h0a1.276,1.276,0,0,1,.488-1.2l.889-.631-.516-1.2-1.147.2a1.12,1.12,0,0,1-1.119-.43,6.1,6.1,0,0,0-.746-.746l-.143-.115A1.2,1.2,0,0,1,83.99,62.3l.172-1.176-1.2-.488-.717,1.033a1.227,1.227,0,0,1-1.033.516h-.344a5.064,5.064,0,0,0-.66,0h-.229a1.149,1.149,0,0,1-1.09-.459l-.746-1.033-1.2.516.229,1.262a1.208,1.208,0,0,1-.4,1.119,6.1,6.1,0,0,0-.746.746l-.057.086a1.221,1.221,0,0,1-1.09.43l-1.262-.2-.488,1.2,1.033.717a1.2,1.2,0,0,1,.516.975v.115c0,.2-.029.4-.029.6v.574l-.057.6a1.4,1.4,0,0,1-.4.516l-1,.746.516,1.2,1.176-.2a1.189,1.189,0,0,1,1.147.43l.086.115a5.174,5.174,0,0,0,.8.774l.086.057a1.271,1.271,0,0,1,.344,1.033l-.172,1.147,1.2.488Zm2.352-2.61a5.049,5.049,0,1,1,5.02-5.048A5.056,5.056,0,0,1,80.6,73.082Zm0-2.381a2.668,2.668,0,1,0-2.668-2.668A2.681,2.681,0,0,0,80.6,70.7Z" transform="translate(-50.282 -41.3)" fill="#36ab9b"/>
      </g>
    </g>
  </g>
</svg>
