<svg xmlns="http://www.w3.org/2000/svg" width="97.337" height="53.841" viewBox="0 0 97.337 53.841">
  <g id="icon_4" transform="translate(-0.2)">
    <g id="Layer_1" transform="translate(0.2)">
      <g id="그룹_69265" data-name="그룹 69265">
        <path id="color" d="M109.3,43.371a1.563,1.563,0,0,1-1.54-1.34,1.522,1.522,0,0,1,1.34-1.711c12.376-1.54,19.192-11.35,19.278-11.435a1.545,1.545,0,0,1,1.283-.684h.086a1.545,1.545,0,0,1,1.283.827c.029.086,4.106,7.871,11.635,11.378a1.528,1.528,0,0,1,.8.884,1.51,1.51,0,0,1-.057,1.169,1.542,1.542,0,0,1-1.4.884c-.6,0-.456-.057-.656-.143a30.085,30.085,0,0,1-11.464-10.152l-.4-.6-.485.542A32.082,32.082,0,0,1,109.5,43.371h-.2Z" transform="translate(-77.079 -20.158)" fill="#4161cc"/>
        <g id="그룹_69269" data-name="그룹 69269">
          <path id="패스_99342" data-name="패스 99342" d="M135.011,99.192a1.911,1.911,0,0,1-1.911-1.911v-.4a1.911,1.911,0,0,1,3.821,0v.4A1.911,1.911,0,0,1,135.011,99.192Z" transform="translate(-95.201 -67.908)" fill="#515151"/>
          <path id="패스_99343" data-name="패스 99343" d="M196.882,99.192A1.887,1.887,0,0,1,195,97.281v-.4A1.88,1.88,0,0,1,196.882,95a1.924,1.924,0,0,1,1.911,1.882v.4A1.911,1.911,0,0,1,196.882,99.192Z" transform="translate(-139.448 -67.908)" fill="#515151"/>
          <path id="패스_99344" data-name="패스 99344" d="M151.042,139.675a10.374,10.374,0,0,1-7.386-3.051,1.533,1.533,0,1,1,2.167-2.167,7.367,7.367,0,0,0,10.437,0,1.533,1.533,0,1,1,2.167,2.167,10.374,10.374,0,0,1-7.386,3.051Z" transform="translate(-102.42 -95.787)" fill="#515151"/>
          <path id="패스_99346" data-name="패스 99346" d="M48.822,53.841h-1.2c-.342,0-.684-.057-1.027-.057h-.057a26.509,26.509,0,0,1-15.627-6.759l-.114-.086c-.228-.2-.428-.4-.656-.6l-.228-.228-.485-.485a5.1,5.1,0,0,1-.371-.4c-.086-.114-.2-.2-.285-.314l-.6-.684-.143-.171c-.114-.143-.257-.314-.371-.456l-.057-.086c-.228-.285-.456-.6-.684-.913l-.086-.114c-.228-.314-.428-.627-.627-.941l-.057-.086-.342-.513-.057-.114c-.171-.285-.342-.6-.513-.913l-.171-.342c-.114-.2-.2-.4-.314-.6-.086-.171-.171-.342-.257-.542a1.744,1.744,0,0,1-.143-.342c-.114-.257-.228-.542-.342-.8l-.086-.2c-.114-.285-.228-.57-.342-.884l-.171-.456-.485.114a7.407,7.407,0,0,1-1.74.2,8.41,8.41,0,0,1-8.213-8.584c0-4.734,1.568-5.9,4.106-7.443l1-.6L17,19.021a28.392,28.392,0,0,0-9.639-1.483,31.1,31.1,0,0,0-5.39.371H1.74a1.545,1.545,0,0,1-1.283-.684,1.507,1.507,0,0,1,0-1.683c.171-.285,4.62-7.186,12.8-7.186s1.027,0,1.54.086a17.971,17.971,0,0,1,10.266,4.591l.513.456.371-.6A26.484,26.484,0,0,1,48.822,0,26.813,26.813,0,0,1,71.807,12.89l.371.6.513-.456A18.063,18.063,0,0,1,82.957,8.441a13.813,13.813,0,0,1,1.511-.086c8.213,0,12.633,6.873,12.833,7.186a1.622,1.622,0,0,1,0,1.683,1.545,1.545,0,0,1-1.283.684h-.257a41.056,41.056,0,0,0-5.589-.371,29.01,29.01,0,0,0-9.439,1.454l-1.084.428,1,.6a8.712,8.712,0,0,1,4.106,7.443,8.41,8.41,0,0,1-8.213,8.584c-4.534,0-1.169-.057-1.74-.2l-.485-.114-.171.456c-.114.285-.228.6-.342.884l-.086.2c-.114.257-.228.542-.342.8l-.171.342c-.086.171-.171.342-.257.542a6.033,6.033,0,0,1-.314.6l-.171.342c-.171.314-.342.6-.513.913l-.057.086-.342.513-.057.086c-.2.314-.428.627-.656.941l-.086.114c-.228.314-.456.627-.684.913l-.057.086c-.114.171-.257.314-.371.456l-.143.171-.6.684c-.086.114-.2.2-.285.314-.114.143-.257.257-.371.4l-.485.485-.228.228c-.2.2-.428.4-.656.6l-.086.086A26.585,26.585,0,0,1,51.16,53.727h-.029c-.371.029-.713.057-1.055.057h-1.2ZM40.21,49.135c.285.114.6.228.884.314h.029a20.116,20.116,0,0,0,3.479.913h.114a.833.833,0,0,0,.257.057l.6.086c.171,0,.371.057.542.057a3.143,3.143,0,0,1,.513.057,5.538,5.538,0,0,1,.684.057h3.08a5.538,5.538,0,0,0,.684-.057,3.143,3.143,0,0,0,.513-.057c.171,0,.342-.057.542-.057a4.326,4.326,0,0,0,.6-.086.833.833,0,0,0,.257-.057H53.1a26.614,26.614,0,0,0,3.451-.913h.057c.285-.114.6-.228.884-.342a25.21,25.21,0,0,0,3.422-1.654h.029c.228-.143.456-.285.684-.456l.228-.143c.2-.143.4-.257.6-.4.114-.086.2-.143.314-.228a3.113,3.113,0,0,0,.485-.371c.171-.114.314-.257.485-.371l.114-.086c.057-.057.143-.114.2-.171.285-.228.542-.456.8-.684l.114-.114c.257-.228.485-.456.684-.656l.114-.114c.228-.228.456-.485.684-.713l.086-.086a23.483,23.483,0,0,0,3.251-4.591v-.057a9.906,9.906,0,0,0,.513-.941l.057-.143a8.319,8.319,0,0,0,.4-.884l.057-.143c.143-.342.285-.713.4-1.055.114-.314.228-.627.342-1a2.926,2.926,0,0,0,.114-.4v-.114a3.281,3.281,0,0,0,.171-.485c.057-.171.086-.342.143-.542a2.67,2.67,0,0,1,.114-.456c.057-.285.114-.542.171-.8.029-.171.057-.371.086-.542a2.881,2.881,0,0,1,.086-.485l.086-.684s.029-.285.029-.371l.086-.941V25.551c0-.314-.057-.6-.086-.913a1.108,1.108,0,0,0-.057-.428,7.063,7.063,0,0,0-.086-.77,3.936,3.936,0,0,0-.086-.57,2.76,2.76,0,0,0-.057-.342c-.057-.314-.114-.6-.171-.913a23.815,23.815,0,0,0-46.483,0c-.057.314-.143.6-.171.913h0a1.226,1.226,0,0,1-.057.342c-.029.2-.057.371-.086.57l-.086.77a2.2,2.2,0,0,1-.057.428c0,.314-.057.6-.057.913v.228c0,.428-.029.77-.029,1.084v1.369c0,.314.029.627.057.913a1.389,1.389,0,0,0,.029.342v.057c.029.228.057.428.086.656a3.214,3.214,0,0,0,.086.513,3.214,3.214,0,0,0,.086.513l.171.856a2.376,2.376,0,0,0,.114.428c.057.171.086.342.143.513s.086.314.143.485v.114a1.124,1.124,0,0,1,.143.4c.114.371.228.684.342,1,.143.342.257.713.428,1.055l.057.143c.143.314.257.6.4.884l.057.143c.143.314.314.627.456.913l.057.086a23.483,23.483,0,0,0,3.251,4.591l.057.057c.228.257.456.485.684.713l.114.114c.228.2.428.428.684.656l.114.114c.257.228.542.456.8.684.057.057.143.114.2.171l.114.086c.171.114.314.257.485.371s.342.257.513.371c.114.086.2.143.314.228.2.143.4.257.6.4l.2.114a6.721,6.721,0,0,0,.713.428h0a21.166,21.166,0,0,0,3.422,1.683h0Zm36.3-27.177a4.834,4.834,0,0,0-.627.029l-.57.086.086.57a22.919,22.919,0,0,1,.314,3.137V28.2a26.331,26.331,0,0,1-.485,3.992l-.114.57.57.086a4.036,4.036,0,0,0,.827.057,5.324,5.324,0,0,0,5.1-5.5,5.324,5.324,0,0,0-5.1-5.5Zm-55.381,0a5.324,5.324,0,0,0-5.1,5.5,5.324,5.324,0,0,0,5.1,5.5c2.823,0,.542,0,.827-.057l.57-.086-.114-.57a25.185,25.185,0,0,1-.513-4.62V25.808a28.5,28.5,0,0,1,.314-3.137l.086-.57-.57-.086c-.2,0-.4-.029-.627-.029Zm63.28-10.494a8.423,8.423,0,0,0-1.2.057,14.64,14.64,0,0,0-9.354,4.648l-.257.257.143.342c.228.542.4,1.055.57,1.568l.257.8.627-.542c4.164-3.451,10.352-4.164,14.829-4.164h2.338l-1.654-1.055a11.364,11.364,0,0,0-6.331-1.911Zm-77,2.966c4.534,0,10.837.713,14.972,4.164l.627.542.257-.8c.171-.513.371-1.027.57-1.568l.143-.342-.257-.257a14.858,14.858,0,0,0-9.354-4.648c-.4-.029-.8-.057-1.169-.057a11.5,11.5,0,0,0-6.3,1.911L5.248,14.458H7.386Z" transform="translate(-0.2)" fill="#515151"/>
        </g>
      </g>
    </g>
  </g>
</svg>
