<svg id="그룹_68015" data-name="그룹 68015" xmlns="http://www.w3.org/2000/svg" xmlns:xlink="http://www.w3.org/1999/xlink" width="365" height="497.075" viewBox="0 0 365 497.075">
  <defs>
    <clipPath id="clip-path">
      <rect id="사각형_23358" data-name="사각형 23358" width="365" height="497.075" fill="none"/>
    </clipPath>
    <clipPath id="clip-path-3">
      <rect id="사각형_23352" data-name="사각형 23352" width="42.496" height="10.084" fill="none"/>
    </clipPath>
    <clipPath id="clip-path-4">
      <rect id="사각형_23353" data-name="사각형 23353" width="53.676" height="57.33" fill="none"/>
    </clipPath>
    <clipPath id="clip-path-5">
      <rect id="사각형_23354" data-name="사각형 23354" width="37.341" height="26.383" fill="none"/>
    </clipPath>
    <clipPath id="clip-path-6">
      <rect id="사각형_23355" data-name="사각형 23355" width="38.433" height="36.57" fill="none"/>
    </clipPath>
    <clipPath id="clip-path-7">
      <rect id="사각형_23356" data-name="사각형 23356" width="96.889" height="264.042" fill="none"/>
    </clipPath>
  </defs>
  <g id="그룹_67955" data-name="그룹 67955" clip-path="url(#clip-path)">
    <g id="그룹_67954" data-name="그룹 67954">
      <g id="그룹_67953" data-name="그룹 67953" clip-path="url(#clip-path)">
        <path id="패스_41887" data-name="패스 41887" d="M71.026,335.153a35.2,35.2,0,0,1-8.27-3.7c-5.933-3.541-11.621-8.169-17.24-12.381-6.864-5.145-12.383-11.642-18.144-17.752-1.937-2.054-3.525-4.522-5.686-6.32-2.887-2.4-6.022-.948-9.745-.231-3.38.651-2.7.638-6.071,1.1-1.565.216-3.713.394-4.5,1.794-3.384,6,.857,8.638,4.25,8.346-2.239.2-4.834,2.847-4.1,5.3,1.54,5.123,3.535,3.425,4.89,3.96a.482.482,0,0,0-.2.2c-1.851,1.457-3.626,3.867-.883,7.2,1.508,1.831,5.95,1.853,8.5,1.493a87.485,87.485,0,0,0,9.956-2.187c1.595,4.833,3,9.544,5.846,14.1,3.893,6.221,9.735,16.144,16.525,19.511,2.968,1.472,6.566.351,9.538-.833,4.827-1.923,10.245-4.232,14.264-7.6,3.782-3.171,4.689-7.613,8.627-10.834-2.006-.763-5.076-.431-7.564-1.157" transform="translate(-0.042 -99.442)" fill="#bbd25c"/>
        <path id="패스_41888" data-name="패스 41888" d="M29.5,292.235S27.448,271,24.282,269.475c0,0-5.612-5.244-8.486,1.328-2.917,6.671,3.736,17.934,3.736,17.934Z" transform="translate(-5.098 -90.579)" fill="#bbd25c"/>
        <path id="패스_41889" data-name="패스 41889" d="M33.023,293.033s1.4,5.149,3.19,6.947,0,4.345,0,4.345l-7.031-2.352Z" transform="translate(-9.882 -99.227)" fill="#bbd25c"/>
        <path id="패스_41890" data-name="패스 41890" d="M302.024,683.843c-.283.236-.566.471-.9.706-9.333,7.023-30.615,11.266-40.443,4.03-1.556-1.343-2.1-3.417-2.051-5.821.071-4.854,2.5-11.1,3.394-15.177A98.824,98.824,0,0,0,260,633.03c-1.815-7.612-3.794-15.225-5.255-22.931-1.014-6.011-2.922-24.464,9.333-31.417a22.972,22.972,0,0,1,12.185-1.909,33.283,33.283,0,0,1,10.7,2.428,45.237,45.237,0,0,1,9.357,5.3c.259.187.495.376.753.589,2.216,1.791,8.555,8.036,9.074,20.81.117,7.5.448,15.061,1.3,22.367,2.028,17.628,9.5,41.338-5.42,55.573" transform="translate(-86.007 -195.264)" fill="#bbd25c"/>
        <g id="그룹_67940" data-name="그룹 67940" transform="translate(172.625 486.99)" opacity="0.9">
          <g id="그룹_67939" data-name="그룹 67939">
            <g id="그룹_67938" data-name="그룹 67938" clip-path="url(#clip-path-3)">
              <path id="패스_41891" data-name="패스 41891" d="M303.5,738.621c-9.333,7.023-30.615,11.266-40.443,4.03-1.556-1.343-2.1-3.417-2.051-5.821,2.24.212,5,1.909,7.4,3.936a7.151,7.151,0,0,1,6.74-3.771,19.137,19.137,0,0,1,10.936,4.171c3.794-5.821,11.878-6.033,17.417-2.546" transform="translate(-261.008 -736.325)" fill="#349980"/>
            </g>
          </g>
        </g>
        <g id="그룹_67943" data-name="그룹 67943" transform="translate(167.984 381.38)" opacity="0.12">
          <g id="그룹_67942" data-name="그룹 67942">
            <g id="그룹_67941" data-name="그룹 67941" clip-path="url(#clip-path-4)">
              <path id="패스_41892" data-name="패스 41892" d="M306.148,605.9c-.519-12.773-6.859-19.019-9.074-20.81-.259-.212-.495-.4-.753-.589a45.236,45.236,0,0,0-9.357-5.3,33.28,33.28,0,0,0-10.7-2.429,22.978,22.978,0,0,0-12.185,1.909c-12.255,6.953-10.347,25.406-9.333,31.416,1.351,7.126,3.144,14.172,4.841,21.211,11.011,2.638,28.921,4.853,48.08-1.235-.079-.608-.155-1.211-.224-1.806-.848-7.306-1.179-14.871-1.3-22.367" transform="translate(-253.991 -576.644)" fill="#349980"/>
            </g>
          </g>
        </g>
        <path id="패스_41893" data-name="패스 41893" d="M187.924,657.087c-2,13.929-6.882,31.086-18.973,35.282-4.384,1.532-9.757,1.319-16.261-1.391-6.1-2.71-22.366-10.157-21-18.972a13.9,13.9,0,0,1,2.569-5.067c3.252-4.36,8.532-8.649,10.983-12.562,5.278-7.612,9.026-15.767,9.922-25.288.022-.848.071-1.7.14-2.521.024-.66.095-1.319.095-2v1.273c.495-4.2,1.886-7.754,5.421-8.721,5.42-1.367,15.578,2.026,21,3.393,14.235,5.421,7.472,25.736,6.105,36.578" transform="translate(-44.566 -208.86)" fill="#bbd25c"/>
        <g id="그룹_67946" data-name="그룹 67946" transform="translate(87.044 458.079)" opacity="0.9">
          <g id="그룹_67945" data-name="그룹 67945">
            <g id="그룹_67944" data-name="그룹 67944" clip-path="url(#clip-path-5)">
              <path id="패스_41894" data-name="패스 41894" d="M168.951,718.041c-4.384,1.532-9.757,1.32-16.261-1.391-6.1-2.71-22.366-10.157-21-18.972a13.912,13.912,0,0,1,2.569-5.067c2.593,3.512,4.171,8.061,3.936,11.5,4.713-7.659,14.141,3.536,14.141,8.838,6.739-3.936,12.679-.636,16.614,5.091" transform="translate(-131.61 -692.612)" fill="#349980"/>
            </g>
          </g>
        </g>
        <g id="그룹_67949" data-name="그룹 67949" transform="translate(107.727 407.937)" opacity="0.12">
          <g id="그룹_67948" data-name="그룹 67948">
            <g id="그룹_67947" data-name="그룹 67947" clip-path="url(#clip-path-6)">
              <path id="패스_41895" data-name="패스 41895" d="M192.408,620.51c-5.42-1.368-15.578-4.761-21-3.394-3.535.966-4.927,4.525-5.421,8.72v-1.273c0,.683-.07,1.343-.095,2-.07.824-.118,1.673-.14,2.521a46.3,46.3,0,0,1-2.872,12.214A55.456,55.456,0,0,0,199.1,653.358c1.979-11.243,6.042-28-6.69-32.848" transform="translate(-162.883 -616.798)" fill="#349980"/>
            </g>
          </g>
        </g>
        <path id="패스_41896" data-name="패스 41896" d="M319.964,416.851c-2.757-8.4-26.951,3.95-33.435,6.206a12.726,12.726,0,0,0,1.14,2.116c.571.647,1.24,1.432,2,2.323,4.577,5.425,12.058,14.614,17.024,18.7,2.314-5.574,15.06-23.158,13.273-29.343" transform="translate(-97.025 -140.176)" fill="#349980"/>
        <path id="패스_41897" data-name="패스 41897" d="M179.059,1.327c-5.749-6.71-23.367,13.966-28.494,18.54a12.092,12.092,0,0,0,1.857,1.513c.776.386,1.7.851,2.742,1.389,6.3,3.258,16.739,8.874,22.886,10.743,0-6.036,5.03-27.156,1.009-32.185" transform="translate(-50.984 0)" fill="#349980"/>
        <path id="패스_41898" data-name="패스 41898" d="M222.749,38.627c-3.322-8.19-26.6,5.8-32.921,8.506a13.053,13.053,0,0,0,1.282,2.03c.613.606,1.338,1.343,2.154,2.185,4.941,5.093,13.041,13.744,18.277,17.472,1.921-5.722,13.419-24.143,11.208-30.192" transform="translate(-64.28 -12.219)" fill="#349980"/>
        <path id="패스_41899" data-name="패스 41899" d="M257.15,90.087c-.068-8.841-26.869-4.429-33.742-4.249a13.308,13.308,0,0,0,.446,2.362c.347.786.747,1.738,1.193,2.823,2.711,6.558,7.052,17.588,10.538,22.985,3.9-4.609,21.381-17.487,21.564-23.92" transform="translate(-75.651 -28.64)" fill="#349980"/>
        <path id="패스_41900" data-name="패스 41900" d="M276.016,144.1c1.944-8.62-25.159-10.417-31.892-11.8a13.476,13.476,0,0,0-.1,2.4c.159.849.335,1.865.522,3.025,1.153,7,2.866,18.726,5.042,24.779,4.84-3.606,24.794-12.17,26.431-18.4" transform="translate(-82.626 -44.801)" fill="#349980"/>
        <path id="패스_41901" data-name="패스 41901" d="M283.514,200.568c3.429-8.144-22.924-14.7-29.3-17.255a12.93,12.93,0,0,0-.525,2.346c0,.859,0,1.89-.023,3.066-.1,7.093-.489,18.939.58,25.276,5.4-2.691,26.553-7.595,29.272-13.433" transform="translate(-85.843 -62.074)" fill="#349980"/>
        <path id="패스_41902" data-name="패스 41902" d="M283.514,251.777c3.429-8.144-22.924-14.7-29.3-17.256a12.864,12.864,0,0,0-.525,2.349c0,.856,0,1.888-.023,3.063-.1,7.093-.489,18.939.58,25.276,5.4-2.691,26.553-7.594,29.272-13.432" transform="translate(-85.843 -79.414)" fill="#349980"/>
        <path id="패스_41903" data-name="패스 41903" d="M283.514,302.7c3.429-8.139-22.924-14.7-29.3-17.251a12.85,12.85,0,0,0-.525,2.339c0,.861,0,1.9-.023,3.071-.1,7.1-.489,18.939.58,25.276,5.4-2.689,26.553-7.591,29.272-13.435" transform="translate(-85.843 -96.658)" fill="#349980"/>
        <path id="패스_41904" data-name="패스 41904" d="M286.729,351.928c2.085-8.587-24.979-10.851-31.686-12.35a13.466,13.466,0,0,0-.145,2.4c.145.854.3,1.87.472,3.03,1.034,7.022,2.542,18.774,4.612,24.861,4.908-3.52,25-11.737,26.748-17.938" transform="translate(-86.312 -114.988)" fill="#349980"/>
        <path id="패스_41905" data-name="패스 41905" d="M297.569,389.569c-1.122-8.767-27.212-1.206-34-.213a12.693,12.693,0,0,0,.72,2.293c.438.743.948,1.64,1.523,2.658,3.472,6.191,9.084,16.628,13.192,21.574,3.324-5.038,19.159-19.9,18.571-26.312" transform="translate(-89.248 -130.498)" fill="#349980"/>
        <path id="패스_41906" data-name="패스 41906" d="M344.821,438.666c-6.431-6.066-21.807,16.321-26.433,21.4a12.913,12.913,0,0,0,2.011,1.315c.811.3,1.771.664,2.86,1.093,6.614,2.585,17.571,7.1,23.88,8.316-.62-6,2.2-27.533-2.318-32.122" transform="translate(-107.813 -148.191)" fill="#349980"/>
        <path id="패스_41907" data-name="패스 41907" d="M386.677,461.375c-5.888-6.6-23.128,14.389-28.17,19.059a12.927,12.927,0,0,0,1.89,1.479c.785.368,1.711.815,2.757,1.332,6.372,3.145,16.9,8.578,23.081,10.328-.106-6.03,4.543-27.242.442-32.2" transform="translate(-121.398 -155.8)" fill="#349980"/>
        <path id="패스_41908" data-name="패스 41908" d="M362.34,343.26c-28.4,13.06-66.44,5.428-83.014.88-3.186-.874-5.583-1.636-6.962-2.113-.877-.3-2.042-.681-2.042-.681a171.654,171.654,0,0,1-33.3-16.633,24.6,24.6,0,0,0-3.974-2.639l-.006,0c-13.918-7.643-26.455-20-35.783-30.86a191.972,191.972,0,0,1-15.811-20.82c-.716-1.78-2.225-4.919-2.8-6.779a88.83,88.83,0,0,1-2.762-11.7,132.227,132.227,0,0,1-1.722-15.247c-.031-.483-.055-.966-.081-1.448-.363-6.588-.361-13.134-.255-19.383.114-6,.171-11.982.2-17.9.027-9.417-.114-18.719-.565-27.963-1.042-22.044-3.721-43.806-9.694-66.016-8.456-31.489-22.3-58.41-53.39-72.672C85.092,19.643,53.52,21.279,29.645,35.766,7.176,49.356-7.79,81.376,4.3,106.967c6.171,13.138,15.364,22.13,26.1,27.4,1.581.761,3.217,1.465,4.849,2.083,16.829,6.2,36.789,4,55.164-5.549,3.637-1.917,7.246-4,10.712-6.231a3.13,3.13,0,0,1,.112.536s24.846,29.233,0,89.338S36.417,317.062,56.406,369.931C64.65,391.74,86.3,411.35,108.891,426.87c.669.13,1.339.266,2.007.389,12.986,2.349,34.469,3.523,47.664,2.97,163.2-6.39,199.323-67.489,206.3-84.585a1.864,1.864,0,0,0-2.521-2.384" transform="translate(0 -7.989)" fill="#bbd25c"/>
        <path id="패스_41909" data-name="패스 41909" d="M67.013,421.958C47.025,369.088,87,326.679,111.847,266.574s0-89.338,0-89.338c.548,2.931,2.263,17.146-8.589,49.086h-.153c-.141.38-.279.761-.423,1.14a137.37,137.37,0,0,1-9.395,20.033c-1.347,2.522-3.384,5.872-5.8,9.671-2.107,3.384-4.56,7.08-7.15,11.018q-1.555,2.382-3.159,4.751c-.534.79-1.065,1.581-1.606,2.364-4.894,7.3-9.69,14.276-12.95,18.983-2.538,3.662-4.147,5.954-4.147,5.954-.208.368-.409.74-.615,1.109q-1.067,1.912-2.1,3.843l-.1.183q-.837,1.56-1.651,3.133-.378.732-.75,1.468-.507.992-1.006,1.989-.6,1.2-1.176,2.4c-.19.393-.382.785-.57,1.179q-.724,1.52-1.425,3.049c-.1.216-.2.432-.3.648q-.778,1.709-1.528,3.432c-.054.122-.108.243-.161.365q-.778,1.794-1.523,3.6c-.038.093-.077.184-.116.276q-.736,1.79-1.439,3.593c-.046.117-.094.234-.139.351q-.662,1.7-1.29,3.413c-.073.2-.148.392-.22.588-.374,1.023-.735,2.049-1.093,3.077-.112.322-.229.642-.339.965-.3.864-.579,1.731-.863,2.6-.161.491-.327.981-.483,1.473-.208.652-.4,1.308-.605,1.962-.218.71-.441,1.419-.651,2.131-.11.372-.211.746-.319,1.118-1.43,4.954-2.671,9.961-3.682,15.015-.147.726-.276,1.453-.413,2.18-.078.411-.158.821-.233,1.232s-.142.814-.212,1.221c-.059.344-.123.688-.179,1.032-.106.64-.21,1.289-.314,1.937h0c-.048.3-.093.6-.14.9-.147.94-.289,1.883-.409,2.828-.175,1.331-.325,2.655-.461,3.976-.02.2-.035.39-.054.585q-.168,1.711-.289,3.41c-.014.2-.026.4-.038.6q-.114,1.722-.178,3.431c-.006.159-.013.319-.018.479q-.06,1.8-.063,3.594c0,.065,0,.131,0,.2,0,.042,0,.083,0,.124,0,.673.011,1.344.024,2.013,0,.016,0,.032,0,.048q.036,1.7.126,3.386c.009.214.024.431.038.646.039.649.078,1.3.13,1.942.021.339.054.676.094,1.012.054.6.1,1.206.167,1.8h0v0c.034.317.071.638.11.964l0-.032c.035.3.071.6.108.9.077.578.165,1.155.258,1.728q.168,1.105.362,2.2c.038.212.075.422.1.631.03.165.064.327.1.491h0c.081.428.163.855.252,1.28.043.205.089.409.133.613v.005c.1.44.2.878.3,1.315-.036-.149-.077-.295-.112-.444.044.2.1.389.144.585q.131.555.272,1.1c.174.7.354,1.394.547,2.085.118.422.241.849.366,1.288.079.285.165.567.249.85.321,1.07.681,2.125,1.062,3.165q.182.506.371,1.009l.321.883c.183.457.37.911.563,1.358.213.516.446,1.024.672,1.536.079.181.157.366.238.545q1.073,2.391,2.332,4.716c.084.157.168.313.254.469.673,1.226,1.371,2.442,2.124,3.638.226.372.457.733.694,1.09l.051.075c.221.331.445.66.674.989.035.05.069.1.1.15h0v0c.115.165.225.327.341.493l1.037,1.451c.034.047.071.093.105.14l-.021-.031c.5.683,1.015,1.353,1.547,2.019h0c.181.226.365.452.551.678.149.181.29.363.442.544.251.311.519.62.784.93.086.1.171.206.259.308h0c.266.306.539.6.81.905-.083-.093-.169-.184-.251-.277.237.266.474.533.712.794.254.29.524.577.791.866.374.4.753.8,1.141,1.194h0c.128.13.253.263.382.391l.331.331h0l.7.7c.6.575,1.21,1.149,1.837,1.724.426.392.858.784,1.306,1.177,1.624,1.417,3.281,2.8,5.008,4.076,16.482,12.6,36.942,19.6,57.124,23.512-22.592-15.52-44.242-35.13-52.486-56.938" transform="translate(-10.607 -60.016)" fill="#d0dd85"/>
        <path id="패스_41910" data-name="패스 41910" d="M114.044,96.785A16.459,16.459,0,1,1,97.767,80.146a16.459,16.459,0,0,1,16.277,16.639" transform="translate(-27.471 -27.139)" fill="#fff"/>
        <path id="패스_41911" data-name="패스 41911" d="M97.415,97.634c-1.11,5.177-5.614,8.6-10.058,7.648s-7.146-5.924-6.034-11.1,5.613-8.6,10.057-7.647,7.146,5.923,6.035,11.1" transform="translate(-27.453 -29.248)" fill="#083d53"/>
        <path id="패스_41912" data-name="패스 41912" d="M109.151,94.413a5.247,5.247,0,1,1-5.246-5.246,5.246,5.246,0,0,1,5.246,5.246" transform="translate(-33.408 -30.194)" fill="#fff"/>
        <path id="패스_41913" data-name="패스 41913" d="M79.327,144.8c-5.368,20.1-21.884,27.64-34.7,30.447-1.558-.581-3.084-1.249-4.586-1.973,12.4-1.915,31.029-8.313,36.591-29.2a1.343,1.343,0,0,1,1.7-.969,1.379,1.379,0,0,1,1,1.69" transform="translate(-13.557 -48.44)" fill="#349980"/>
        <g id="그룹_67952" data-name="그룹 67952" transform="translate(131.247 67.106)" opacity="0.25">
          <g id="그룹_67951" data-name="그룹 67951">
            <g id="그룹_67950" data-name="그룹 67950" clip-path="url(#clip-path-7)">
              <path id="패스_41914" data-name="패스 41914" d="M255.821,262.551c-2.012,3.22-4.716,5.126-7.5,4.866-5.179-.46-8.734-8.114-7.936-17.132.772-9,5.618-15.927,10.8-15.462a6.379,6.379,0,0,1,4.122,2.164c.413,8.45.542,16.954.517,25.563" transform="translate(-212.609 -146.614)" fill="#349980"/>
              <path id="패스_41915" data-name="패스 41915" d="M238.475,366.6c-4.054.682-8.3-4.487-9.481-11.538s1.152-13.325,5.208-14,8.3,4.487,9.482,11.542-1.15,13.318-5.208,14" transform="translate(-208.686 -182.576)" fill="#349980"/>
              <path id="패스_41916" data-name="패스 41916" d="M269.811,391.238a4.186,4.186,0,0,1-2.444,2.258c-3.144,1-7.095-2.627-8.858-8.1-1.735-5.475-.593-10.731,2.575-11.726a4.082,4.082,0,0,1,2.831.21,55.378,55.378,0,0,0,5.9,17.359" transform="translate(-218.509 -193.583)" fill="#349980"/>
              <path id="패스_41917" data-name="패스 41917" d="M243.452,215.822c-3.51.495-7.064-4.058-7.929-10.172s1.282-11.464,4.8-11.958,7.064,4.052,7.925,10.165-1.282,11.468-4.8,11.965" transform="translate(-210.936 -132.681)" fill="#349980"/>
              <path id="패스_41918" data-name="패스 41918" d="M223.33,184.55c-2.821.079-5.228-3.832-5.37-8.744s2.037-8.952,4.862-9.034,5.226,3.83,5.366,8.738-2.03,8.956-4.858,9.04" transform="translate(-205.051 -123.578)" fill="#349980"/>
              <path id="패스_41919" data-name="패스 41919" d="M242.876,313.417c-2.823.081-5.228-3.832-5.37-8.744s2.037-8.953,4.86-9.036,5.228,3.833,5.368,8.742-2.03,8.955-4.858,9.038" transform="translate(-211.67 -167.214)" fill="#349980"/>
              <path id="패스_41920" data-name="패스 41920" d="M314.991,455.256c-.226,2.814-4.374,4.786-9.273,4.393s-8.679-2.99-8.456-5.806,4.374-4.781,9.266-4.395,8.686,2.987,8.462,5.808" transform="translate(-231.904 -219.282)" fill="#349980"/>
              <path id="패스_41921" data-name="패스 41921" d="M243.873,171.722c-2.274.244-4.463-2.76-4.89-6.71s1.07-7.358,3.343-7.6,4.46,2.76,4.887,6.714-1.066,7.353-3.34,7.6" transform="translate(-212.148 -120.403)" fill="#349980"/>
              <path id="패스_41922" data-name="패스 41922" d="M261.01,345.336a1.987,1.987,0,0,1-.92.255c-2.3.093-4.312-3.017-4.486-7-.2-3.962,1.489-7.271,3.8-7.39a2.544,2.544,0,0,1,.868.128,120.96,120.96,0,0,0,.743,14.008" transform="translate(-217.794 -179.256)" fill="#349980"/>
              <path id="패스_41923" data-name="패스 41923" d="M217.029,135.619c-5.353,2.15-12.722-3.654-16.459-12.963s-2.419-18.6,2.936-20.746,12.722,3.654,16.459,12.963,2.421,18.6-2.936,20.746" transform="translate(-198.445 -101.463)" fill="#349980"/>
              <path id="패스_41924" data-name="패스 41924" d="M275.4,437.251c-3.589,4.515-12.866,3.114-20.718-3.126s-11.3-14.969-7.708-19.484,12.866-3.114,20.717,3.128,11.3,14.964,7.71,19.482" transform="translate(-214.395 -206.615)" fill="#349980"/>
              <path id="패스_41925" data-name="패스 41925" d="M330.274,486.873c-2.108,4.207-9.753,4.646-17.071.98s-11.536-10.058-9.425-14.266,9.753-4.646,17.07-.978,11.538,10.054,9.426,14.265" transform="translate(-233.929 -226.298)" fill="#349980"/>
            </g>
          </g>
        </g>
      </g>
    </g>
  </g>
</svg>
