<svg xmlns="http://www.w3.org/2000/svg" width="20" height="20" viewBox="-1.249 -0.557 20 20" xml:space="preserve"><linearGradient id="a" gradientUnits="userSpaceOnUse" x1="11.102" y1="6.871" x2="16.277" y2="6.871"><stop offset="0" style="stop-color:#e55739"/><stop offset=".283" style="stop-color:#dd4c32"/><stop offset=".806" style="stop-color:#c92a23"/><stop offset="1" style="stop-color:#c11920"/></linearGradient><linearGradient id="b" gradientUnits="userSpaceOnUse" x1="9.895" y1="7.626" x2="13.389" y2="7.626"><stop offset="0" style="stop-color:#e55739"/><stop offset=".283" style="stop-color:#dd4c32"/><stop offset=".806" style="stop-color:#c92a23"/><stop offset="1" style="stop-color:#c11920"/></linearGradient><path fill="#525151" d="M15.982 16.105H1.378A1.38 1.38 0 0 1 0 14.727V4.843a.606.606 0 1 1 1.212 0v9.883c0 .09.076.166.165.166h14.604c.09 0 .165-.076.165-.166V4.843a.606.606 0 1 1 1.212 0v9.883a1.377 1.377 0 0 1-1.376 1.379z"/><path fill="#525151" d="M16.52 15.871a.604.604 0 0 1-.447-.197l-5.525-6.041a.606.606 0 1 1 .895-.818l5.524 6.041a.604.604 0 0 1-.447 1.015zM.833 15.879a.607.607 0 0 1-.447-1.017l5.542-6.04a.605.605 0 1 1 .893.819L1.28 15.682a.602.602 0 0 1-.447.197z"/><linearGradient id="c" gradientUnits="userSpaceOnUse" x1=".008" y1="7.545" x2="17.352" y2="7.545"><stop offset="0" style="stop-color:#e55739"/><stop offset=".283" style="stop-color:#dd4c32"/><stop offset=".806" style="stop-color:#c92a23"/><stop offset="1" style="stop-color:#c11920"/></linearGradient><path fill="url(#c)" d="M8.68 11.625a.6.6 0 0 1-.372-.127L.243 5.242a.607.607 0 0 1-.232-.545 1.375 1.375 0 0 1 1.367-1.231h14.604c.703 0 1.29.529 1.366 1.231a.606.606 0 0 1-.23.545l-8.066 6.256a.596.596 0 0 1-.372.127zM1.495 4.678l7.185 5.573 7.186-5.573H1.495z"/></svg>