<svg xmlns="http://www.w3.org/2000/svg" width="20" height="20" viewBox="-1.249 -0.557 20 20" xml:space="preserve"><linearGradient id="a" gradientUnits="userSpaceOnUse" x1="11.102" y1="6.871" x2="16.277" y2="6.871"><stop offset="0" style="stop-color:#e55739"/><stop offset=".283" style="stop-color:#dd4c32"/><stop offset=".806" style="stop-color:#c92a23"/><stop offset="1" style="stop-color:#c11920"/></linearGradient><path fill="url(#a)" d="M12.029 2.37a.704.704 0 0 0-.89.441.7.7 0 0 0 .44.89 4.837 4.837 0 0 1 2.915 2.716 4.826 4.826 0 0 1-.109 3.984.702.702 0 1 0 1.267.612 6.258 6.258 0 0 0 .139-5.139 6.238 6.238 0 0 0-3.762-3.504z"/><linearGradient id="b" gradientUnits="userSpaceOnUse" x1="9.895" y1="7.626" x2="13.389" y2="7.626"><stop offset="0" style="stop-color:#e55739"/><stop offset=".283" style="stop-color:#dd4c32"/><stop offset=".806" style="stop-color:#c92a23"/><stop offset="1" style="stop-color:#c11920"/></linearGradient><path fill="url(#b)" d="M10.821 4.835a.704.704 0 0 0-.45 1.331 2.376 2.376 0 0 1 1.428 1.33c.262.627.24 1.338-.056 1.949a.703.703 0 0 0 1.266.613 3.775 3.775 0 0 0-2.188-5.223z"/><path fill="#525151" d="M9.664 18.887c-3.778 0-6.787-6.29-7.652-9.336-.54-1.904-1.799-6.354.78-8.255C3.377.865 4.035.613 4.669.37c.089-.033.17-.065.251-.099l.206-.082c.048-.018.095-.036.141-.056.201-.085.416-.131.636-.133h.021c.682 0 1.296.404 1.562 1.027l1.393 3.294c.623 1.469-.678 2.051-1.168 2.27-.12.054-.249.111-.337.163l-.012.032a.668.668 0 0 0-.025.133c-.013.155.019.326.03.382.045.254.122.503.223.799.1.288.215.619.358.963l.122.287c.129.299.304.697.492 1.089.128.265.271.55.446.822.083.127.177.262.286.364a.702.702 0 0 0 .16.117l.02.013c.092-.023.219-.076.338-.122l.043-.017c.291-.117.641-.256 1.02-.26h.02c.36 0 1.021.13 1.39 1.005l1.394 3.288c.177.417.181.877.01 1.298a1.685 1.685 0 0 1-.906.924c-.096.041-.192.084-.289.127l-.307.141c-.623.288-1.258.584-1.96.702-.188.03-.375.046-.563.046zM5.924 1.169a.534.534 0 0 0-.201.041 4.29 4.29 0 0 1-.176.07l-.192.076a9.479 9.479 0 0 1-.27.105c-.561.215-1.144.438-1.601.775-1.927 1.421-.822 5.325-.35 6.992.816 2.869 3.656 8.491 6.53 8.491.124 0 .247-.01.368-.03.548-.093 1.11-.354 1.655-.605l.322-.149.314-.138a.51.51 0 0 0 .28-.287.513.513 0 0 0-.001-.403l-1.394-3.288c-.124-.292-.233-.292-.314-.292-.172.001-.403.095-.607.177l-.031.011-.006.003c-.221.088-.444.176-.674.208l-.063.005h-.037c-.282 0-.458-.084-.593-.167a1.804 1.804 0 0 1-.392-.289 3.102 3.102 0 0 1-.462-.576 8.806 8.806 0 0 1-.519-.951 33.823 33.823 0 0 1-.514-1.135l-.124-.297c-.159-.379-.28-.728-.387-1.036a6.637 6.637 0 0 1-.268-.967 2.58 2.58 0 0 1-.044-.692 1.828 1.828 0 0 1 .093-.443l.083-.211a.569.569 0 0 1 .189-.251l.066-.05c.188-.143.41-.242.625-.339.748-.335.701-.447.573-.75L6.41 1.485a.524.524 0 0 0-.486-.316z"/><linearGradient id="c" gradientUnits="userSpaceOnUse" x1=".008" y1="7.545" x2="17.352" y2="7.545"><stop offset="0" style="stop-color:#e55739"/><stop offset=".283" style="stop-color:#dd4c32"/><stop offset=".806" style="stop-color:#c92a23"/><stop offset="1" style="stop-color:#c11920"/></linearGradient></svg>