<svg id="logo" xmlns="http://www.w3.org/2000/svg" width="183" height="40" viewBox="0 0 183 40">
  <path id="패스_71" data-name="패스 71" d="M28.39,21.65s6.957-4.5,17.93-1.926A6.216,6.216,0,0,0,42.8,21.65a24.543,24.543,0,0,0-14.412,0" transform="translate(-4.02 -2.666)" fill="#363636"/>
  <path id="패스_72" data-name="패스 72" d="M27.577,20.543s6.287-9.213,16.292-9.487c0,0-2.373,1.334-2.794,3.275,0,0-8.661.722-13.5,6.212" transform="translate(-3.905 -1.557)" fill="#363636"/>
  <path id="패스_73" data-name="패스 73" d="M26.695,19.52s3.029-11.361,11.113-15.7c0,0-2.444,2.679-2.279,5.417,0,0-5.754,2.63-8.834,10.28" transform="translate(-3.78 -0.538)" fill="#363636"/>
  <path id="패스_74" data-name="패스 74" d="M25.9,19.087S25.5,5.716,29.86,0a8.973,8.973,0,0,0-.5,6.55S26.532,10.435,25.9,19.087" transform="translate(-3.666)" fill="#363636"/>
  <path id="패스_75" data-name="패스 75" d="M17.926,21.65S10.969,17.155,0,19.724A6.211,6.211,0,0,1,3.514,21.65a24.544,24.544,0,0,1,14.412,0" transform="translate(0 -2.666)" fill="#363636"/>
  <path id="패스_76" data-name="패스 76" d="M19.009,20.543S12.723,11.33,2.717,11.056c0,0,2.374,1.334,2.8,3.275,0,0,8.661.722,13.5,6.212" transform="translate(-0.385 -1.557)" fill="#363636"/>
  <path id="패스_77" data-name="패스 77" d="M20.744,19.52S17.716,8.159,9.629,3.823c0,0,2.446,2.679,2.285,5.417,0,0,5.753,2.63,8.83,10.28" transform="translate(-1.363 -0.538)" fill="#363636"/>
  <path id="패스_78" data-name="패스 78" d="M22.714,19.087S23.114,5.716,18.758,0a8.968,8.968,0,0,1,.5,6.55s2.828,3.885,3.453,12.537" transform="translate(-2.656)" fill="#363636"/>
  <path id="패스_79" data-name="패스 79" d="M1.04,23.736H18.265a3.566,3.566,0,0,0,3.074,1.412,3.138,3.138,0,0,0,2.912-1.356H41.518l-.058.726H24.684a4.34,4.34,0,0,1-3.453,1.361,4.312,4.312,0,0,1-3.459-1.4l-16.717.007Z" transform="translate(-0.147 -3.343)" fill="#363636"/>
  <path id="패스_80" data-name="패스 80" d="M25.013,25.344a5.357,5.357,0,0,1-3.828,1.333,4.8,4.8,0,0,1-3.723-1.423H1.089c.674,10.221,9.449,18.3,20.174,18.3,10.706,0,19.47-8.053,20.173-18.246Zm-9.035,3.883h10.61v.436H15.978v-.436Zm-2.416.738H29V30.5H13.563ZM28.31,31.131H14.26v-.3H28.31Zm1.361,6.213H12.9V36.59h.622V31.463H16.1v5.158H17V32h-.572v-.537H26.16V32h-.574v4.621h.889V31.463h2.574V36.59h.622v.754Z" transform="translate(-0.154 -3.557)" fill="#363636"/>
  <rect id="사각형_31" data-name="사각형 31" width="0.806" height="4.59" transform="translate(24.39 28.444)" fill="#363636"/>
  <rect id="사각형_32" data-name="사각형 32" width="0.807" height="4.59" transform="translate(20.217 28.444)" fill="#363636"/>
  <rect id="사각형_33" data-name="사각형 33" width="0.805" height="4.59" transform="translate(21.259 28.444)" fill="#363636"/>
  <rect id="사각형_34" data-name="사각형 34" width="0.804" height="4.59" transform="translate(22.305 28.444)" fill="#363636"/>
  <rect id="사각형_35" data-name="사각형 35" width="0.808" height="4.59" transform="translate(23.345 28.444)" fill="#363636"/>
  <rect id="사각형_36" data-name="사각형 36" width="0.809" height="4.59" transform="translate(19.171 28.444)" fill="#363636"/>
  <rect id="사각형_37" data-name="사각형 37" width="0.806" height="4.59" transform="translate(17.087 28.444)" fill="#363636"/>
  <rect id="사각형_38" data-name="사각형 38" width="0.807" height="4.59" transform="translate(18.127 28.444)" fill="#363636"/>
  <path id="패스_81" data-name="패스 81" d="M77.7,17.211V15.635H74.929a4.008,4.008,0,0,0,.425-1.066,5.765,5.765,0,0,0,.22-1.505v-2.52a1.074,1.074,0,0,0-.321-.8,1.152,1.152,0,0,0-.83-.312H61.591l.846,1.577H72.86v2.126c0,.465-.027.926-.071,1.37a4.3,4.3,0,0,1-.265,1.132H59.387l.846,1.576h7.03v2.845H61.337l.845,1.576H72.777V26.2h2.716V21.167a1.087,1.087,0,0,0-.32-.8,1.154,1.154,0,0,0-.83-.309H69.979V17.211Z" transform="translate(-8.408 -1.328)" fill="#363636"/>
  <path id="패스_82" data-name="패스 82" d="M94.478,10.962H90.464V9.042H87.07c-.155,0-.564,0-.564.32,0,.1.039.35.447.35a1.976,1.976,0,0,1,.468.05c.14.027.277.094.324.492v.709H82.63l.846,1.577h2.149a3.5,3.5,0,0,0-1.456,2.738c0,1.761,1.513,3.249,3.574,3.707v1.394h-5.5l.847,1.577H94.038a5.053,5.053,0,0,0,2.113-.528v4.718H98.83V9.288H95.473c-.151,0-.563-.007-.563.316,0,.1.04.351.449.351a1.856,1.856,0,0,1,.465.05c.141.027.28.092.325.491V19.8a3.306,3.306,0,0,1-2.107.572l-3.58,0v-1.4h-.007c2.057-.464,3.557-1.946,3.557-3.7a3.5,3.5,0,0,0-1.456-2.738h1.919V10.962Zm-7.63,4.3a2.257,2.257,0,1,1,4.489,0,2.258,2.258,0,1,1-4.489,0" transform="translate(-11.645 -1.273)" fill="#363636"/>
  <path id="패스_83" data-name="패스 83" d="M129.894,9.747c-.155,0-.565,0-.565.32,0,.107.042.353.446.353a1.945,1.945,0,0,1,.469.048c.141.028.28.1.324.493v.833a7.162,7.162,0,0,1-1.517,4.485,5.392,5.392,0,0,1-3.18,2.009l.995,1.194.033,0a6.191,6.191,0,0,0,3.123-1.381,6.682,6.682,0,0,0,1.946-2.124,6.677,6.677,0,0,0,1.941,2.124,6.222,6.222,0,0,0,3.125,1.381l.04,0,.989-1.194a5.351,5.351,0,0,1-3.174-2.009,7.14,7.14,0,0,1-1.52-4.485V9.747Z" transform="translate(-17.822 -1.373)" fill="#363636"/>
  <path id="패스_84" data-name="패스 84" d="M140.44,9.328c-.156,0-.571-.005-.571.319,0,.1.044.35.448.35a1.924,1.924,0,0,1,.47.049c.139.032.277.095.323.493V21.951h2.719V14.734h2.951v-1.58h-2.951V9.328Z" transform="translate(-19.804 -1.314)" fill="#363636"/>
  <path id="패스_85" data-name="패스 85" d="M129.509,22.6c-.154,0-.565-.006-.565.317,0,.1.04.35.448.35a1.914,1.914,0,0,1,.469.052c.14.027.277.091.323.492v3.155a1.033,1.033,0,0,0,.323.788,1.155,1.155,0,0,0,.826.3h11.332V26.478H132.9V22.6Z" transform="translate(-18.257 -3.183)" fill="#363636"/>
  <path id="패스_86" data-name="패스 86" d="M194.715,22.6c-.154,0-.565-.006-.565.317,0,.1.042.35.451.35a1.916,1.916,0,0,1,.468.052c.141.027.277.091.321.492v3.155a1.036,1.036,0,0,0,.323.788,1.157,1.157,0,0,0,.828.3h11.33V26.478h-9.762V22.6Z" transform="translate(-27.489 -3.183)" fill="#363636"/>
  <path id="패스_87" data-name="패스 87" d="M202.325,19.34a5.071,5.071,0,0,0,2.11-.525v3.013h2.677V14.639h2.952V13.064h-2.952V9.328h-3.353c-.153,0-.565-.007-.565.316,0,.1.04.351.448.351a1.925,1.925,0,0,1,.468.05c.142.027.278.094.325.492v6.657a3.291,3.291,0,0,1-2.1.57l-.855,0,.021-.023a3.272,3.272,0,0,0,.589-.93,3.5,3.5,0,0,0,.241-1.372V10.984a1.085,1.085,0,0,0-.32-.8,1.164,1.164,0,0,0-.832-.312H191.97l.847,1.579h6.853v3.967a7.588,7.588,0,0,1-.08,1.258,4.14,4.14,0,0,1-.329.98l-.048.107h-1.67v-3.65h-3.275c-.152,0-.563-.008-.563.318,0,.1.041.35.447.35a1.84,1.84,0,0,1,.466.052c.14.025.278.093.325.491v2.439h-3.8l.847,1.579Z" transform="translate(-27.063 -1.314)" fill="#363636"/>
  <path id="패스_88" data-name="패스 88" d="M150.55,9.75c-.153,0-.565,0-.565.317,0,.107.042.351.451.351a1.906,1.906,0,0,1,.466.052c.138.029.279.095.324.493v6.587a1.046,1.046,0,0,0,.321.789,1.163,1.163,0,0,0,.825.3h4.109v3.746H149.06l.844,1.577H165.99V22.386H159.2V18.64h5.373V17.062H153.944V11.328h10.334V9.75Z" transform="translate(-21.105 -1.373)" fill="#363636"/>
  <path id="패스_89" data-name="패스 89" d="M173.095,9.75c-.154,0-.562-.008-.562.317,0,.106.039.351.448.351a1.833,1.833,0,0,1,.465.052c.142.029.278.092.328.491V12.7a6.747,6.747,0,0,1-1.523,4.334,5.778,5.778,0,0,1-3.178,2.161l1,1.194.035,0a6.189,6.189,0,0,0,3.121-1.379,6.713,6.713,0,0,0,1.946-2.126,6.649,6.649,0,0,0,1.943,2.126,6.187,6.187,0,0,0,3.126,1.379l.033,0,.995-1.194a5.77,5.77,0,0,1-3.179-2.161,6.735,6.735,0,0,1-1.52-4.334V9.75Z" transform="translate(-23.938 -1.373)" fill="#363636"/>
  <path id="패스_90" data-name="패스 90" d="M183.45,9.328c-.153,0-.565-.007-.565.316,0,.1.042.351.45.351a1.877,1.877,0,0,1,.465.05c.142.027.28.094.324.491v2.617h-3.779v1.575h3.779V26.186h2.719V9.328Z" transform="translate(-25.535 -1.314)" fill="#363636"/>
  <path id="패스_91" data-name="패스 91" d="M120.054,9.709h-3.389c-.154,0-.569-.006-.569.317,0,.106.045.352.448.352a1.942,1.942,0,0,1,.47.049c.141.023.278.092.324.491v1.194h-7.09v-2.4H106.86c-.156,0-.566-.006-.566.317,0,.106.041.352.452.352a1.876,1.876,0,0,1,.461.049c.143.023.279.092.328.491V16.76a1.039,1.039,0,0,0,.318.787,1.164,1.164,0,0,0,.833.3h11.37V9.709Zm-2.716,6.565h-7.09V13.692h7.09Z" transform="translate(-15.05 -1.367)" fill="#363636"/>
  <path id="패스_92" data-name="패스 92" d="M114.782,27.856V22.763h6.974V21.186H104.308l.845,1.577h6.913v5.093Z" transform="translate(-14.769 -2.984)" fill="#363636"/>
  <path id="패스_93" data-name="패스 93" d="M61.774,33.425h1.137l2.1,3.88h.017v-3.88h.845V38.7H64.836l-2.2-4.072h-.016V38.7h-.845Z" transform="translate(-8.746 -4.708)" fill="#363636"/>
  <path id="패스_94" data-name="패스 94" d="M169.777,33.425h1.137l2.1,3.88h.015v-3.88h.846V38.7h-1.034l-2.2-4.072h-.019V38.7h-.843Z" transform="translate(-24.038 -4.708)" fill="#363636"/>
  <path id="패스_95" data-name="패스 95" d="M69.632,34.272h.017l.749,2.314H68.885Zm-2.4,4.425h.961l.473-1.429h1.956l.474,1.429h.964L70.2,33.425H69.09Z" transform="translate(-9.519 -4.708)" fill="#363636"/>
  <path id="패스_96" data-name="패스 96" d="M74.036,34.1H72.67v-.678h3.654V34.1H74.959V38.7h-.923Z" transform="translate(-10.289 -4.708)" fill="#363636"/>
  <rect id="사각형_39" data-name="사각형 39" width="0.923" height="5.272" transform="translate(66.596 28.717)" fill="#363636"/>
  <path id="패스_97" data-name="패스 97" d="M80.739,36.046c0-1.123.245-2.086,1.185-2.086s1.183.963,1.183,2.086-.252,2.086-1.183,2.086-1.185-.961-1.185-2.086m1.185,2.72c1.7,0,2.2-1.184,2.2-2.72s-.5-2.718-2.2-2.718-2.2,1.183-2.2,2.718.5,2.72,2.2,2.72" transform="translate(-11.288 -4.694)" fill="#363636"/>
  <path id="패스_98" data-name="패스 98" d="M85.947,33.425h1.135l2.1,3.88H89.2v-3.88h.846V38.7H89.008l-2.2-4.072h-.017V38.7h-.842Z" transform="translate(-12.169 -4.708)" fill="#363636"/>
  <path id="패스_99" data-name="패스 99" d="M93.806,34.272h.015l.75,2.314H93.056ZM91.4,38.7h.963l.473-1.429h1.957l.474,1.429h.963l-1.856-5.272H93.261Z" transform="translate(-12.941 -4.708)" fill="#363636"/>
  <path id="패스_100" data-name="패스 100" d="M97.706,33.425h.921v4.591h2.139v.68h-3.06Z" transform="translate(-13.834 -4.708)" fill="#363636"/>
  <path id="패스_101" data-name="패스 101" d="M106.4,34.272h.017l.75,2.314h-1.514ZM103.993,38.7h.963l.472-1.429h1.958l.475,1.429h.963l-1.856-5.272h-1.113Z" transform="translate(-14.724 -4.708)" fill="#363636"/>
  <path id="패스_102" data-name="패스 102" d="M165.835,34.272h.017l.749,2.314h-1.516ZM163.43,38.7h.962l.474-1.429h1.957L167.3,38.7h.961l-1.852-5.272h-1.114Z" transform="translate(-23.139 -4.708)" fill="#363636"/>
  <path id="패스_103" data-name="패스 103" d="M113.125,34.3a3.662,3.662,0,0,0-1.365-.337c-.458,0-.821.2-.821.65,0,.932,2.6,1.071,2.6,2.659,0,.985-.82,1.5-2.005,1.5a6.251,6.251,0,0,1-1.508-.222v-.923a2.985,2.985,0,0,0,1.54.51c.727,0,.955-.389.955-.734,0-1.145-2.6-1.214-2.6-2.711,0-.94.847-1.36,1.87-1.36a6.9,6.9,0,0,1,1.334.144Z" transform="translate(-15.563 -4.694)" fill="#363636"/>
  <path id="패스_104" data-name="패스 104" d="M162.16,34.3a3.68,3.68,0,0,0-1.366-.337c-.457,0-.82.2-.82.65,0,.932,2.6,1.071,2.6,2.659,0,.985-.823,1.5-2.006,1.5a6.251,6.251,0,0,1-1.508-.222v-.923a2.982,2.982,0,0,0,1.539.51c.727,0,.955-.389.955-.734,0-1.145-2.594-1.214-2.594-2.711,0-.94.843-1.36,1.869-1.36a6.914,6.914,0,0,1,1.334.144V34.3Z" transform="translate(-22.506 -4.694)" fill="#363636"/>
  <path id="패스_105" data-name="패스 105" d="M117.9,34.3a3.666,3.666,0,0,0-1.364-.337c-.459,0-.822.2-.822.65,0,.932,2.595,1.071,2.595,2.659,0,.985-.819,1.5-2,1.5a6.248,6.248,0,0,1-1.507-.222v-.923a2.984,2.984,0,0,0,1.539.51c.725,0,.955-.389.955-.734,0-1.145-2.6-1.214-2.6-2.711,0-.94.844-1.36,1.871-1.36a6.909,6.909,0,0,1,1.332.144Z" transform="translate(-16.239 -4.694)" fill="#363636"/>
  <path id="패스_106" data-name="패스 106" d="M119.833,33.425h3.181V34.1h-2.257v1.52h2.137V36.3h-2.137v1.711h2.319v.68h-3.244Z" transform="translate(-16.967 -4.708)" fill="#363636"/>
  <path id="패스_107" data-name="패스 107" d="M124.595,33.425h1.263l1.516,4.21h.016l1.523-4.21h1.255V38.7h-.845V34.541h-.016l-1.5,4.156h-.852l-1.5-4.156h-.018V38.7h-.844Z" transform="translate(-17.641 -4.708)" fill="#363636"/>
  <path id="패스_108" data-name="패스 108" d="M133.342,34.058h.373c.583,0,.985.1.985.756,0,.68-.427.772-.985.772h-.373Zm-.923,4.639h1.673c.791,0,1.816-.162,1.816-1.46a1.252,1.252,0,0,0-1.177-1.345v-.016a1.2,1.2,0,0,0,.908-1.213c0-1.071-.955-1.237-1.547-1.237h-1.673Zm.923-2.477h.373c.765,0,1.254.245,1.254.942,0,.787-.655.9-1.254.9h-.373Z" transform="translate(-18.749 -4.708)" fill="#363636"/>
  <path id="패스_109" data-name="패스 109" d="M149.691,34.058h.371c.584,0,.985.1.985.756,0,.68-.425.772-.985.772h-.371Zm-.923,4.639h1.67c.79,0,1.816-.162,1.816-1.46a1.252,1.252,0,0,0-1.174-1.345v-.016a1.2,1.2,0,0,0,.908-1.213c0-1.071-.955-1.237-1.549-1.237h-1.67V38.7Zm.923-2.477h.371c.767,0,1.254.245,1.254.942,0,.787-.654.9-1.254.9h-.371Z" transform="translate(-21.064 -4.708)" fill="#363636"/>
  <path id="패스_110" data-name="패스 110" d="M137.558,33.425h.924v4.591h2.138v.68h-3.062Z" transform="translate(-19.476 -4.708)" fill="#363636"/>
  <path id="패스_111" data-name="패스 111" d="M142.422,36.252l-1.792-2.827h1.051l1.206,1.894,1.21-1.894h1.048l-1.8,2.827V38.7h-.924Z" transform="translate(-19.911 -4.708)" fill="#363636"/>
  <path id="패스_112" data-name="패스 112" d="M206.884,36.252l-1.79-2.827h1.049l1.208,1.894,1.207-1.894h1.05l-1.8,2.827V38.7h-.925Z" transform="translate(-29.039 -4.708)" fill="#363636"/>
  <path id="패스_113" data-name="패스 113" d="M157.444,37.084c0,1.161-.721,1.7-1.886,1.7-1.123,0-1.895-.535-1.895-1.7v-3.66h.924v3.66c0,.6.243,1.062.971,1.062s.961-.459.961-1.062v-3.66h.924v3.66Z" transform="translate(-21.757 -4.707)" fill="#363636"/>
  <path id="패스_114" data-name="패스 114" d="M185.919,34.058h.37c.584,0,.987.1.987.756,0,.68-.428.772-.987.772h-.37Zm-.925,4.639h1.675c.787,0,1.815-.162,1.815-1.46a1.253,1.253,0,0,0-1.177-1.345v-.016a1.2,1.2,0,0,0,.907-1.213c0-1.071-.953-1.237-1.545-1.237h-1.675Zm.925-2.477h.37c.766,0,1.256.245,1.256.942,0,.787-.657.9-1.256.9h-.37Z" transform="translate(-26.193 -4.708)" fill="#363636"/>
  <path id="패스_115" data-name="패스 115" d="M178.455,33.425h.924v4.591h2.138v.68h-3.063Z" transform="translate(-25.267 -4.708)" fill="#363636"/>
  <rect id="사각형_40" data-name="사각형 40" width="0.925" height="5.272" transform="translate(156.939 28.717)" fill="#363636"/>
  <path id="패스_116" data-name="패스 116" d="M190.816,34.057h.727a.751.751,0,0,1,.812.85c0,.778-.6.894-1.175.894h-.364Zm-.923,4.639h.923V36.435h.364c.844,0,.954.283,1.145,1.123l.252,1.139h.937l-.328-1.484c-.127-.556-.215-1.008-.972-1.168V36.03a1.167,1.167,0,0,0,1.082-1.223c0-1.031-.728-1.382-1.753-1.382h-1.65V38.7Z" transform="translate(-26.886 -4.708)" fill="#363636"/>
  <path id="패스_117" data-name="패스 117" d="M201.7,34.057h.726a.751.751,0,0,1,.813.85c0,.778-.6.894-1.175.894H201.7Zm-.923,4.639h.922V36.435h.364c.845,0,.955.283,1.143,1.123l.252,1.139h.938l-.331-1.484c-.124-.556-.212-1.008-.969-1.168V36.03a1.166,1.166,0,0,0,1.08-1.223c0-1.031-.724-1.382-1.751-1.382h-1.648V38.7Z" transform="translate(-28.427 -4.708)" fill="#363636"/>
  <path id="패스_118" data-name="패스 118" d="M196.922,34.272h.016l.75,2.314h-1.514ZM194.516,38.7h.963l.474-1.429h1.956l.476,1.429h.962l-1.857-5.272h-1.112Z" transform="translate(-27.541 -4.708)" fill="#363636"/>
</svg>
