<svg xmlns="http://www.w3.org/2000/svg" xmlns:xlink="http://www.w3.org/1999/xlink" width="223.596" height="51.327" viewBox="0 0 223.596 51.327">
  <defs>
    <clipPath id="clip-path">
      <rect id="사각형_23261" data-name="사각형 23261" width="223.596" height="51.327" fill="none"/>
    </clipPath>
  </defs>
  <g id="그룹_68012" data-name="그룹 68012" transform="translate(0 0)">
    <g id="그룹_67792" data-name="그룹 67792" transform="translate(0 0)" clip-path="url(#clip-path)">
      <path id="패스_41683" data-name="패스 41683" d="M227.145,19.154q-.345-.1-.328-.361t.4-.258a.562.562,0,0,1,.224.086c.1.057.121.086.052.086l.138.07A6.937,6.937,0,0,1,228,17.5a3.051,3.051,0,0,1,.758-1.067q.929-.859,1.307-1.239a2.763,2.763,0,0,1,.741-.55,4.776,4.776,0,0,1,.963-.31q.6-.137,1.91-.482a2.022,2.022,0,0,1,1.154.068,6.344,6.344,0,0,1,3.046,2.2l.1.1q.309.207.6.43a1.712,1.712,0,0,1,.465.533,6.118,6.118,0,0,1,1.05,1.979,13.4,13.4,0,0,1,.568,2.564,8.561,8.561,0,0,1,.31,1.79,2.066,2.066,0,0,1,.24-.1.166.166,0,0,1,.07.017.14.14,0,0,0,.068.017c0-.022.034-.069.1-.137a1.2,1.2,0,0,1,.585-.19q.414-.052,1-.086v-.034l-.964-.069c-.068,0-.126-.052-.171-.155a1.468,1.468,0,0,1-.1-.361c-.024-.137-.04-.269-.052-.4a.531.531,0,0,1,.017-.259c-.114-.114-.092-.252.069-.413a1.076,1.076,0,0,1,.19-.1,1.025,1.025,0,0,0,.19-.1l-.07-.069a.735.735,0,0,1-.24-.1,1.075,1.075,0,0,1-.173-.138l-.172-.1a.356.356,0,0,1,.206-.482,3.181,3.181,0,0,1,.568-.155c.2-.034.384-.074.568-.12.206-.022.5-.057.877-.1s.775-.08,1.188-.1.814-.04,1.2-.051a7.71,7.71,0,0,1,.93.017l.034.069v-.069q-.069-1.445-.052-2.856t.087-2.856v-.172c0,.023.022.034.068.034q.274-.275.448.172v.206a10.916,10.916,0,0,0,0,1.755l.137-.792a.068.068,0,0,1,.018-.052.071.071,0,0,0,.017-.052.387.387,0,0,0,.035-.172l.1-.379c.022,0,.056-.057.1-.172.022-.046.039-.069.052-.069s.028-.011.052-.034v-.034q.274-.275.413.069v.069l.1-.55c.068-.184.178-.259.326-.224s.213.144.19.327v.207a.26.26,0,0,0,.069.052.184.184,0,0,1,.068.086h.034v.637a4.673,4.673,0,0,1-.034.568c.046-.137.092-.269.138-.4s.091-.247.138-.361v-.034l.137-.55V14.1c.046-.092.1-.126.172-.1a.939.939,0,0,0,.068-.344v-.379a.311.311,0,0,1,.275-.206.191.191,0,0,1,.206.172h.035l-.035,1.2.138-.069a.31.31,0,0,1,.138-.034h.068a2.72,2.72,0,0,1,.12-.533c.057-.172.121-.35.19-.534a.291.291,0,0,1,.293-.137.237.237,0,0,1,.188.206h.07a.138.138,0,0,0-.035.1.876.876,0,0,0-.034.275l.07.069a4.64,4.64,0,0,1,.31,1.531q.034.844.068,1.635.1.9.155,1.48t.086,1.515l.172,4.852c.022.206.052.459.086.757s.063.608.086.929.034.625.034.912a3.044,3.044,0,0,1-.068.706c-.047.115-.11.172-.19.172a.434.434,0,0,1-.258-.1.333.333,0,0,1-.138-.206c-.022-.091-.046-.195-.069-.31a2.9,2.9,0,0,1-.034.43c-.022.149-.046.281-.068.4a.556.556,0,0,1-.207.172q-.069.379-.171.74a1.3,1.3,0,0,1-.31.568l.068.757q0,.207-.275.31l-.07-.034c-.137-.022-.218-.08-.24-.172a.2.2,0,0,1-.035-.138.2.2,0,0,1-.138.069h-.24a.282.282,0,0,1-.1.172.953.953,0,0,0,.017.172,1.14,1.14,0,0,1,.017.172v.1a.1.1,0,0,1-.033.069c-.07.184-.207.229-.413.138a.1.1,0,0,0-.07.034,1.276,1.276,0,0,1-.895-.585.608.608,0,0,1-.275.172.214.214,0,0,1-.276-.069l-.068-.275a.33.33,0,0,1-.241.1h-.137a.243.243,0,0,1-.207-.207,7.716,7.716,0,0,1-.206-1.084c-.047-.379-.092-.752-.138-1.119a11.634,11.634,0,0,1-.258-2.1A23.9,23.9,0,0,1,247,24.042q-.482,0-1.084.017t-1.187.052l-1.1.069q-.517.034-.791.034l-.9-.172a3.782,3.782,0,0,1-.533.086.436.436,0,0,1-.4-.258,9.387,9.387,0,0,1-.258,2.444,7.464,7.464,0,0,1-.911,2.237,4.908,4.908,0,0,1-1.584,1.6,3.8,3.8,0,0,1-2.271.533,1.282,1.282,0,0,1-.31-.034.7.7,0,0,0-.31,0,2.216,2.216,0,0,1-1.136.241,12.636,12.636,0,0,0-1.325-.069,2.647,2.647,0,0,1-1.256-.31,1.268,1.268,0,0,0-.688-.19,1.763,1.763,0,0,1-.723-.155q-.276-.137-.5-.258a2.536,2.536,0,0,1-.43-.292.688.688,0,0,1-.225-.172.881.881,0,0,0-.188-.172q-.345-.31-.637-.62a4.5,4.5,0,0,1-.533-.688,1.538,1.538,0,0,1-.1-.172,1.712,1.712,0,0,0-.1-.172.155.155,0,0,1-.087-.086.079.079,0,0,0-.085-.052,4.106,4.106,0,0,1-1.1-1.325,6.233,6.233,0,0,1-.55-1.531,4.879,4.879,0,0,1-.018-1.359,7.409,7.409,0,0,1,.31-1.394,12.387,12.387,0,0,1,.534-1.359q.31-.671.619-1.256h.068a.031.031,0,0,0,.035-.034c-.046-.045-.081-.069-.1-.069m.034,6.78a2.016,2.016,0,0,1-.188-.585q-.053-.31-.121-.586a1.921,1.921,0,0,1-.653-1.2,4.436,4.436,0,0,0,0,.792,1.964,1.964,0,0,0,.207.722q.172.207.361.448a2.751,2.751,0,0,0,.4.413m-.275-4.819c.046-.114.1-.258.155-.43a3.591,3.591,0,0,0,.12-.43,1.861,1.861,0,0,1-.1.189.4.4,0,0,0-.052.138,2.185,2.185,0,0,1-.085.275c-.046.126-.116.3-.206.533a1.86,1.86,0,0,1-.07.413l.07-.172c.045-.16.1-.332.171-.517m.62-1.893.034.034v-.034Zm1.2-1.411c0,.024-.006.034-.017.034s-.017.023-.017.069a.38.38,0,0,0,.171-.034q.275-.343.551-.637a3.4,3.4,0,0,1,.585-.5,6.706,6.706,0,0,0-1.274,1.067m8.088-2c.046-.022.074-.028.087-.017s.039.017.085.017a8,8,0,0,0-1.479-1,3.226,3.226,0,0,0-1.755-.344,6.053,6.053,0,0,0-2,.464,6.28,6.28,0,0,0-1.617.981,7.47,7.47,0,0,1,3.441-.688,5.562,5.562,0,0,1,1.686-.017,3.515,3.515,0,0,1,1.549.6m-6.195.619a.1.1,0,0,1-.068.034.1.1,0,0,0-.07.034.2.2,0,0,0,.138-.069m.551,7.227a5.3,5.3,0,0,1-.034-2,1.418,1.418,0,0,0-.259.464,3.094,3.094,0,0,0-.12.465,2.874,2.874,0,0,0,.413,1.066m.757-3.751a4.227,4.227,0,0,1,.654-.706,1.993,1.993,0,0,1,1-.43.053.053,0,0,0,.051-.035.057.057,0,0,1,.052-.034l.035-.1h-.482a3.967,3.967,0,0,0-1.222.464,4.108,4.108,0,0,0-.843.706.816.816,0,0,0-.121.327,1.279,1.279,0,0,1-.085.328,2.135,2.135,0,0,1,.756-.482c0-.022.07-.034.207-.034m-.413,5.4a.2.2,0,0,0-.034-.137.1.1,0,0,0-.07-.034Zm3.236-.585a3.356,3.356,0,0,0,.533-1.049,3.637,3.637,0,0,0,.155-1.015,2,2,0,0,0-.31-1.1,2.134,2.134,0,0,0-.791-.74,2.387,2.387,0,0,0-1.068-.275,2.356,2.356,0,0,0-1.135.258,2.494,2.494,0,0,0-.326.723,2.969,2.969,0,0,0-.087.723,8.338,8.338,0,0,0,.07,1.033A6.634,6.634,0,0,0,232,24.317a.453.453,0,0,1,.1.206.982.982,0,0,0,.068.206.894.894,0,0,0,.413.413,1.744,1.744,0,0,0,.706.207,1.883,1.883,0,0,0,.791-.1,1.388,1.388,0,0,0,.671-.517m-1.481-5.162a2.279,2.279,0,0,1,.4.1,2.111,2.111,0,0,0,.465.1.349.349,0,0,1-.069-.137.457.457,0,0,0-.1-.172,1.014,1.014,0,0,0-.69.1m1.136-1.48a1.7,1.7,0,0,0-.326-.034h-.293c0,.023.011.034.034.034ZM234.2,27a.867.867,0,0,0,.379-.1,1.486,1.486,0,0,1-.517.1Zm.689-1.411a.9.9,0,0,1,.017.292,2.541,2.541,0,0,0-.017.327.774.774,0,0,1,.258-.069.212.212,0,0,0,.155-.069h.1a3.159,3.159,0,0,0,.4-1.033,5.769,5.769,0,0,0,.121-1.17l-.138.344a.739.739,0,0,1-.138.241,1.939,1.939,0,0,1-.343.723,3.635,3.635,0,0,1-.413.413m.929,1.652a3.129,3.129,0,0,0-.723.379,2.109,2.109,0,0,0,.517-.069.847.847,0,0,0,.292-.19.871.871,0,0,1,.292-.189.939.939,0,0,1-.206.034.561.561,0,0,0-.172.034m-.516,2.443,1.066.034c.206-.114.385-.206.534-.275a1.363,1.363,0,0,0,.395-.275Zm1.169-7.778a7.351,7.351,0,0,1,.138,1.445,6.834,6.834,0,0,1-.172,1.515,4.325,4.325,0,0,0,.224-1.067,8.291,8.291,0,0,0,.017-1.2c-.022-.114-.052-.235-.085-.361a1.835,1.835,0,0,0-.121-.327m2.1,6.78a7.931,7.931,0,0,0-.688.636,4.653,4.653,0,0,1-.654.568,4.777,4.777,0,0,0,2.72-3.029,4.983,4.983,0,0,1-1.377,1.824m-.791-7.262a5.114,5.114,0,0,1-.07,2.513,4.6,4.6,0,0,0,.361-1.308,3.948,3.948,0,0,0-.085-1.411.223.223,0,0,0-.1.1.23.23,0,0,1-.1.1m1.342-.895-.173-.258a1.562,1.562,0,0,1-.172-.361.606.606,0,0,1,.035.189.346.346,0,0,0,.034.155,2.192,2.192,0,0,0,.138.241,1.542,1.542,0,0,1,.138.275Zm8.706,1.515q.035-.827.07-1.653t.1-1.686c-.047.322-.086.654-.121,1s-.074.688-.12,1.033v.344Zm.31-5.748a3.784,3.784,0,0,0-.017.619,2.574,2.574,0,0,1-.017.517,15.411,15.411,0,0,1,.31-1.893,1.077,1.077,0,0,1-.07-.275,5,5,0,0,0-.1.517,4.938,4.938,0,0,1-.1.516m.344,13.8a.833.833,0,0,0,.035.31Zm.826-.206a.138.138,0,0,0-.035.1l-.137.482.1.206.1-.447a1.38,1.38,0,0,0,.017-.379c-.012-.138-.017-.275-.017-.413Zm.068-.688a.069.069,0,0,1,.018-.052.07.07,0,0,0,.017-.052v-.034Zm1-9.086.068,1.067.1-.034.034-.929-.1-.895-.07-.275Zm.24-3.854c0-.046.012-.069.035-.069l.035-.31c-.024.069-.047.144-.07.224a.843.843,0,0,0-.034.224l.034.034Z" transform="translate(-95.989 -5.557)" fill="#e13f58"/>
      <path id="패스_41684" data-name="패스 41684" d="M301.414,24.1a.3.3,0,0,0-.138.034.146.146,0,0,1-.138,0,1.229,1.229,0,0,1-.326.086,1.3,1.3,0,0,0-.327.086l-1.377.155q-.758.086-1.566.155t-1.6.155q-.793.086-1.446.155l-.241.172-.517.1-.241-.241q-.343.034-.653.052t-.619.052q-.483.206-.809.327c-.219.081-.43-.04-.636-.361a.739.739,0,0,1-.138.241,3.071,3.071,0,0,1-.241.207l-.86-.586a.153.153,0,0,0-.018-.068.159.159,0,0,1-.017-.069v-.034a.333.333,0,0,1-.241-.069q-.069-.137-.206-.482c-.092-.229-.178-.469-.259-.722a6.135,6.135,0,0,1-.188-.74.775.775,0,0,1,.034-.533.349.349,0,0,1,.276-.172c.16.047.332.092.517.138a6.769,6.769,0,0,1-.052-.688c-.013-.3-.018-.608-.018-.929s.011-.642.035-.964a5.511,5.511,0,0,1,.1-.792l-.275-1.1a7.409,7.409,0,0,1-.258-1.686,10.1,10.1,0,0,0-.19-1.652c0-.16.063-.241.19-.241a.2.2,0,0,1,.224.172h.034v.07c0,.046.012.068.034.068a.291.291,0,0,0,.035.138.351.351,0,0,1,.034.155.348.348,0,0,0,.034.155,1.668,1.668,0,0,1,.276-.826.2.2,0,0,1,.188-.034,1.113,1.113,0,0,1,.19.1,6.279,6.279,0,0,1,.275.792h.034l.069.137v.034l.034.034c0,.023.022.058.068.1,0-.069.046-.126.138-.172a.314.314,0,0,1,.138-.034.3.3,0,0,0,.137-.034c0-.023.022-.034.07-.034-.07-.022-.1-.092-.1-.207l-.138.034a.37.37,0,0,1-.19-.206.15.15,0,0,1,.086-.206.767.767,0,0,1,.241-.1,1.321,1.321,0,0,0,.275-.1,3.98,3.98,0,0,1,.636-.086,3.123,3.123,0,0,1,.706.052h.034q.62-.034,1.308-.052t1.411-.017h3.1l.07-1.721q-1.034-.068-2.926-.326t-4.13-.465c-.068-.022-.064-.16.017-.413a2.358,2.358,0,0,1,.19-.482c-.391-.023-.763-.052-1.119-.086a3.259,3.259,0,0,1-.946-.224c-.116-.046-.155-.149-.12-.31a.386.386,0,0,1,.224-.31l.929-.1.068-.172q0-.069.1-.138l.138-.1-1.1-.068a.31.31,0,0,1-.207-.19.156.156,0,0,1,.069-.19V8.646h.1l1.377-.034-1.48-.207a.231.231,0,0,1-.172-.224.181.181,0,0,1,.172-.189V7.957h.1a2.53,2.53,0,0,0,.517.017,3.924,3.924,0,0,1,.619.017V7.957l.172.034h.1l.07-.069-.206-.034c-.092-.022-.161-.114-.206-.275l-.173-.207.276.035c-.047-.115.022-.172.207-.172.091,0,.206-.006.343-.017a2.4,2.4,0,0,1,.483.017c-.047-.138.022-.229.207-.275a3.121,3.121,0,0,1,1.033.034c.343.068.7.149,1.066.241q1.411.1,2.7.241t2.254.275a6.255,6.255,0,0,0,.929.086c.367.012.677.017.929.017v.069a.2.2,0,0,1,0,.379l.207.068V8.37a.333.333,0,0,1,.1-.241h.345a2.9,2.9,0,0,0,.551.017.711.711,0,0,1,.516.19l-.1.137a.635.635,0,0,1,.068.172.115.115,0,0,1,.155-.017.27.27,0,0,1,.12.155q.069.483.1,1.2c.022.482.035.975.035,1.48v2.685c.022.344.046.6.068.757a4.489,4.489,0,0,1,0,.791.512.512,0,0,1,.1.017.19.19,0,0,0,.138-.017h.068l.034.034a.169.169,0,0,1,.1.207c-.024.092-.1.16-.241.206H303.2a1.178,1.178,0,0,1,.018.344,1.118,1.118,0,0,0,.017.344v.034a.219.219,0,0,1,.12.241c-.011.115-.052.184-.12.207v.034l-.138-.034a.374.374,0,0,1-.137.172h.068l.034-.034v.034h.069a.187.187,0,0,1,.206.155.265.265,0,0,1-.068.259l.068.034a.14.14,0,0,0-.086.017.069.069,0,0,1-.052.017,5.016,5.016,0,0,1-1.2.172l.1-.138a4.8,4.8,0,0,0-.482.034c-.207.023-.431.041-.671.052l-.689.034c-.218.012-.4.017-.533.017q-1.308.034-2.719.1t-2.512.034l-.034,2.306a1.249,1.249,0,0,0,.206-.017,1.257,1.257,0,0,1,.207-.018h1.48l.206-.206q1.169-.1,2.427-.189t2.495-.224H302l.31-.034a2.207,2.207,0,0,1,.293-.069c.126-.022.2-.034.224-.034q.309.034.223.327c-.057.2-.063.327-.017.4a.683.683,0,0,1,.068.31.243.243,0,0,1-.172.241l-.654.069a1.249,1.249,0,0,1-.361.086,3.329,3.329,0,0,0-.465.086h.826a4.277,4.277,0,0,1,.757.069c.183.046.241.149.172.31l-.1.1h.035l-.035.034a1.586,1.586,0,0,1-.446.206c-.162.047-.357.092-.586.138h.689c.183,0,.286.023.31.068a.6.6,0,0,1,.344.035.365.365,0,0,1,.258.378.414.414,0,0,1-.154.413c-.137.047-.27.1-.4.155s-.246.109-.361.155l.585-.069-.035.034a.264.264,0,0,1,.121.19c.011.08-.04.144-.155.189v.034l-.654.034v.1a.27.27,0,0,1-.275.207,2.84,2.84,0,0,0-.517.034Zm-10.875-6.711.068.895.07,1.515.24-2.925-.31-.138-.034-.241Zm1.962-7.95c.114,0,.241.006.378.017s.276.029.413.052a1.368,1.368,0,0,1-.207-.121.345.345,0,0,0-.206-.051Zm6.3,5.163-4.44.275,3.649.034Zm-1.514-5.128c-.184.023-.305.041-.361.052a1.378,1.378,0,0,1-.258.017q.172.034.378.069c.138.023.286.046.448.069a.742.742,0,0,1,.275-.017.973.973,0,0,0,.31-.017l-.482-.241Zm1.2,16.692.068-.138q.309-.413.483.069a.061.061,0,0,1,.068.069.235.235,0,0,1,.258.017.3.3,0,0,1,.12.259v.1a.374.374,0,0,1,.276-.172.832.832,0,0,1,.446.688l.1-.723a.461.461,0,0,1,.19-.241c.079-.046.155-.023.223.069q.241-.24.448.137a2.287,2.287,0,0,1,0,.792l.171-.1v-.448a.251.251,0,0,1,.276-.241c.045-.137.126-.195.24-.172a.316.316,0,0,1,.241.206c.022.115.039.213.052.292a2.232,2.232,0,0,1,.017.292.068.068,0,0,1,.018-.051.07.07,0,0,0,.017-.052v-.379a.312.312,0,0,1,.224-.207.184.184,0,0,1,.225.1.383.383,0,0,1,.137.172l.035.1.1-.069a6.405,6.405,0,0,1,.155,1.274,9.065,9.065,0,0,1-.052,1.273v.929c0,.3.011.608.034.929a9.06,9.06,0,0,1,1.446-.206q.894-.069,1.824-.1t1.738-.017q.808.017,1.153.052a5.081,5.081,0,0,1,.6.172c.194.068.4.149.6.241h.1l-.034.034a.178.178,0,0,1,.12.241.361.361,0,0,1-.224.241h-.551c.046.023.068.052.068.086a.271.271,0,0,0,.035.121v.034h.655v.034a.248.248,0,0,1,.137.241.243.243,0,0,1-.172.241h-.378a2.815,2.815,0,0,0-.327.018q-.155.016-.327.051v.07a.793.793,0,0,1-.155-.018.8.8,0,0,0-.155-.017,2.776,2.776,0,0,0-.516.035.03.03,0,0,1,.035.034l.482.1c.161.091.229.183.207.275a3.794,3.794,0,0,1,1.067.1.233.233,0,0,1,.172.068.319.319,0,0,1-.1.448.55.55,0,0,0-.241.069.584.584,0,0,1,.241.034h.035v.034a.311.311,0,0,1,.206.224c.022.1-.034.189-.173.259l-.446.137.482.1h.034l.1.069a.206.206,0,0,1,.155.223.272.272,0,0,1-.19.224,6.767,6.767,0,0,1-1.669.43,16.7,16.7,0,0,1-1.876.137q-.964.017-1.911-.017t-1.772-.1a.423.423,0,0,1-.241-.223.194.194,0,0,1,.07-.259h-.413a.3.3,0,0,1-.241.138v.619a.216.216,0,0,1-.19.241.261.261,0,0,1-.292-.138l-.035.034v-.137l-.068-.448a.618.618,0,0,1-.172-.069l-.1-.206v.344c0,.16-.063.252-.188.275a.263.263,0,0,1-.293-.137l-.035.034v-.137c-.046-.253-.085-.516-.12-.792s-.075-.55-.12-.826c-.024-.047-.047-.1-.07-.155s-.046-.121-.068-.189c0,.3-.012.568-.034.808a4.294,4.294,0,0,1-.1.637.384.384,0,0,1-.188.189.25.25,0,0,1-.258-.052.2.2,0,0,1-.138.069.576.576,0,0,0-.034.241l-.1.137v.276h-.033a.255.255,0,0,1-.483,0v-.069l-.1-.723a.189.189,0,0,1-.068.086.459.459,0,0,0-.1.086c0,.114-.006.229-.017.344a3.136,3.136,0,0,0-.018.345.231.231,0,0,1-.259.155.288.288,0,0,1-.258-.19l-.172-.1c-.024-.138-.04-.282-.051-.43s-.017-.316-.017-.5l-.1-.344-.035-.069a.142.142,0,0,0-.017-.086c-.013-.011-.018-.04-.018-.086a5.073,5.073,0,0,1-.258-1.5c-.011-.516-.029-1.038-.052-1.566q-.034-.963-.017-1.893t.052-1.824a1.131,1.131,0,0,1,.068-.344v-.1h.035a.475.475,0,0,1,.034-.207v-.034q.1-.206.24-.206v-.206Zm1.239,1.686c0-.046-.035-.08-.1-.1a.207.207,0,0,1-.138-.138q0,1.342.1,2.513l.138-.482ZM300.966,9.4h-.1c.022,0,.035.023.035.068a.14.14,0,0,1,.086.052.14.14,0,0,0,.086.052Zm.861,6.814a.423.423,0,0,1,.086-.155.425.425,0,0,0,.086-.155l-.206.241v.069Zm.137-7.021-.137.034a.445.445,0,0,1,.207.206l.1.276a.541.541,0,0,1,.207.068,1.072,1.072,0,0,1,.033-.31V9.4l.07-.069a.821.821,0,0,0,.069-.276V8.783l-.379.069c.207.161.172.287-.1.379Zm.206,7.331.31-.241-.034-.138Zm.034.241.482.034v-.55Zm.895,15.177v.138q.586-.034,1.17-.052c.39-.012.78-.04,1.17-.086Zm6.368-23.162.137-.55V8.163c.046-.091.1-.126.173-.1a.942.942,0,0,0,.068-.344V7.338a.31.31,0,0,1,.275-.207.192.192,0,0,1,.206.172h.035l-.035,1.2.138-.069A.314.314,0,0,1,310.6,8.4h.068a2.72,2.72,0,0,1,.12-.533c.057-.172.121-.349.19-.533a.291.291,0,0,1,.293-.138.238.238,0,0,1,.188.206h.07a.14.14,0,0,0-.035.1.878.878,0,0,0-.034.275l.07.069a4.642,4.642,0,0,1,.31,1.531q.034.844.068,1.635.1.895.155,1.48t.086,1.514l.413,4.509c.022.206.039.476.052.808s.017.683.017,1.05a9.536,9.536,0,0,1-.052,1.033,6.055,6.055,0,0,1-.12.757c-.047.115-.11.172-.19.172a.435.435,0,0,1-.258-.1.332.332,0,0,1-.138-.206c-.023-.091-.047-.195-.069-.31a2.9,2.9,0,0,1-.034.43c-.022.149-.046.281-.068.4a.568.568,0,0,1-.207.172c-.046.253-.1.5-.172.74a1.3,1.3,0,0,1-.31.568l.069.757c0,.137-.092.241-.275.31l-.07-.034c-.137-.022-.218-.08-.24-.172a.194.194,0,0,1-.035-.137.2.2,0,0,1-.138.069h-.24a.283.283,0,0,1-.1.172.951.951,0,0,0,.017.172,1.13,1.13,0,0,1,.017.172v.1a.1.1,0,0,1-.033.068c-.07.184-.207.23-.413.138a.1.1,0,0,0-.07.034,1.277,1.277,0,0,1-.895-.585.606.606,0,0,1-.275.172.213.213,0,0,1-.276-.069l-.068-.275a.33.33,0,0,1-.241.1h-.137a.241.241,0,0,1-.207-.206,7.7,7.7,0,0,1-.206-1.084c-.047-.379-.092-.752-.138-1.119a9.312,9.312,0,0,1-.224-1.652c-.034-.619-.047-1.256-.034-1.91s.028-1.291.051-1.91.057-1.181.1-1.686V13.808q-.069-1.445-.052-2.856t.087-2.857V7.923c0,.023.022.034.068.034q.274-.275.448.172v.207a10.909,10.909,0,0,0,0,1.755l.137-.791a.067.067,0,0,1,.018-.052.073.073,0,0,0,.017-.052.388.388,0,0,0,.034-.172l.1-.378c.022,0,.056-.057.1-.172.022-.045.039-.069.052-.069s.028-.011.052-.034V8.336c.183-.184.321-.16.413.068v.069l.1-.55c.068-.183.178-.258.326-.224s.212.143.19.327v.206a.244.244,0,0,0,.069.052.186.186,0,0,1,.068.086h.034v.637a4.68,4.68,0,0,1-.034.568c.046-.138.092-.269.138-.4s.091-.247.138-.361Zm-1.825,7.331q.034-.826.07-1.652c.023-.55.056-1.112.1-1.686-.047.322-.086.654-.121,1s-.074.688-.12,1.033v.344Zm.551,17.483a1,1,0,0,0-.171.017,1.177,1.177,0,0,1-.173.017.1.1,0,0,1,.07.034l.619-.069.653-.207H308.4c0,.069-.046.126-.138.172V33.6Zm-.241-23.231a3.853,3.853,0,0,0-.017.62,2.57,2.57,0,0,1-.017.516,15.4,15.4,0,0,1,.31-1.893,1.083,1.083,0,0,1-.07-.275,4.993,4.993,0,0,0-.1.516,4.89,4.89,0,0,1-.1.516m.345,13.8a.839.839,0,0,0,.035.31Zm.826-.206a.137.137,0,0,0-.035.1l-.137.482.1.206.1-.448a1.375,1.375,0,0,0,.017-.379c-.012-.137-.017-.275-.017-.413Zm.068-.688a.067.067,0,0,1,.018-.052.07.07,0,0,0,.017-.051v-.034Zm1-9.086.068,1.067.1-.034.034-.929-.1-.9-.07-.275Zm.24-3.854c0-.046.011-.069.034-.069l.035-.31c-.024.069-.047.144-.07.224a.84.84,0,0,0-.034.224l.034.034Zm.07,22.68.034-.035Z" transform="translate(-122.764 -2.963)" fill="#3396d6"/>
      <path id="패스_41685" data-name="패스 41685" d="M349.331,19.154c-.229-.068-.339-.189-.327-.361s.143-.258.4-.258a.567.567,0,0,1,.223.086c.1.057.12.086.052.086l.138.07a6.848,6.848,0,0,1,.379-1.274,3.042,3.042,0,0,1,.757-1.067q.929-.859,1.307-1.239a2.779,2.779,0,0,1,.74-.55,4.8,4.8,0,0,1,.964-.31q.6-.137,1.91-.482a2.018,2.018,0,0,1,1.153.068,6.014,6.014,0,0,1,1.239.568,5.946,5.946,0,0,1,1.084.826,5.882,5.882,0,0,1,.723.808l.1.1q.309.207.6.43a1.741,1.741,0,0,1,.464.533,6.116,6.116,0,0,1,1.049,1.979,13.356,13.356,0,0,1,.568,2.564,7.81,7.81,0,0,1,.344,2.822,8.86,8.86,0,0,1-.636,2.977,5.979,5.979,0,0,1-1.652,2.323,3.682,3.682,0,0,1-2.736.826,1.268,1.268,0,0,1-.31-.034.7.7,0,0,0-.31,0,2.218,2.218,0,0,1-1.136.241,12.627,12.627,0,0,0-1.325-.069,2.645,2.645,0,0,1-1.256-.31,1.271,1.271,0,0,0-.689-.19,1.771,1.771,0,0,1-.723-.155q-.276-.137-.5-.258a2.546,2.546,0,0,1-.431-.292.683.683,0,0,1-.224-.172.86.86,0,0,0-.19-.172c-.229-.207-.442-.413-.636-.62a4.43,4.43,0,0,1-.533-.688,1.45,1.45,0,0,1-.1-.172,1.96,1.96,0,0,0-.1-.172.153.153,0,0,1-.087-.086.08.08,0,0,0-.086-.052,4.117,4.117,0,0,1-1.1-1.325,6.26,6.26,0,0,1-.551-1.531,4.9,4.9,0,0,1-.017-1.359,7.362,7.362,0,0,1,.31-1.394,12.489,12.489,0,0,1,.533-1.359q.31-.671.62-1.256h.07c.022,0,.033-.011.033-.034-.046-.045-.08-.069-.1-.069m.035,6.78a2.07,2.07,0,0,1-.19-.585q-.051-.31-.12-.586a1.923,1.923,0,0,1-.654-1.2,4.671,4.671,0,0,0,0,.792,2,2,0,0,0,.207.722c.114.138.236.287.361.448a2.67,2.67,0,0,0,.4.413m-.275-4.819c.045-.114.1-.258.155-.43a4.1,4.1,0,0,0,.12-.43,2,2,0,0,1-.1.189.367.367,0,0,0-.051.138,2.393,2.393,0,0,1-.087.275q-.069.19-.206.533a1.868,1.868,0,0,1-.068.413l.068-.172c.046-.16.1-.332.173-.517m.619-1.893.033.034v-.034Zm1.2-1.411c0,.024-.005.034-.017.034s-.018.023-.018.069a.388.388,0,0,0,.173-.034q.274-.343.55-.637a3.424,3.424,0,0,1,.586-.5,6.723,6.723,0,0,0-1.274,1.067m8.089-2c.045-.022.074-.028.085-.017s.04.017.086.017a7.992,7.992,0,0,0-1.48-1,3.223,3.223,0,0,0-1.755-.344,6.046,6.046,0,0,0-2,.464,6.294,6.294,0,0,0-1.618.981,7.477,7.477,0,0,1,3.442-.688,5.561,5.561,0,0,1,1.686-.017,3.531,3.531,0,0,1,1.549.6m-6.2.619a.1.1,0,0,1-.07.034.1.1,0,0,0-.068.034.2.2,0,0,0,.138-.069m.55,7.227a5.312,5.312,0,0,1-.033-2,1.376,1.376,0,0,0-.258.464,2.918,2.918,0,0,0-.121.465,2.884,2.884,0,0,0,.413,1.066m.758-3.751a4.132,4.132,0,0,1,.654-.706,1.988,1.988,0,0,1,1-.43.057.057,0,0,0,.052-.035.054.054,0,0,1,.051-.034l.035-.1h-.483a3.959,3.959,0,0,0-1.221.464,4.145,4.145,0,0,0-.844.706.83.83,0,0,0-.12.327,1.285,1.285,0,0,1-.086.328,2.139,2.139,0,0,1,.757-.482c0-.022.069-.034.207-.034m-.413,5.4a.2.2,0,0,0-.034-.137.1.1,0,0,0-.069-.034Zm3.236-.585a3.4,3.4,0,0,0,.533-1.049,3.657,3.657,0,0,0,.155-1.015,2,2,0,0,0-.31-1.1,2.13,2.13,0,0,0-.791-.74,2.392,2.392,0,0,0-1.067-.275,2.354,2.354,0,0,0-1.136.258,2.462,2.462,0,0,0-.326.723,2.914,2.914,0,0,0-.087.723,8.221,8.221,0,0,0,.069,1.033,6.844,6.844,0,0,0,.206,1.033.432.432,0,0,1,.1.206.972.972,0,0,0,.07.206.89.89,0,0,0,.413.413,1.745,1.745,0,0,0,.705.207,1.891,1.891,0,0,0,.792-.1,1.39,1.39,0,0,0,.671-.517m-1.48-5.162a2.288,2.288,0,0,1,.4.1,2.111,2.111,0,0,0,.465.1.348.348,0,0,1-.07-.137.431.431,0,0,0-.1-.172,1.009,1.009,0,0,0-.688.1m1.135-1.48a1.708,1.708,0,0,0-.326-.034h-.293c0,.023.011.034.035.034ZM356.387,27a.858.858,0,0,0,.378-.1,1.485,1.485,0,0,1-.516.1Zm.688-1.411a.9.9,0,0,1,.018.292,2.316,2.316,0,0,0-.018.327.781.781,0,0,1,.258-.069.212.212,0,0,0,.155-.069h.1a3.171,3.171,0,0,0,.4-1.033,5.809,5.809,0,0,0,.12-1.17c-.046.115-.092.23-.137.344a.751.751,0,0,1-.138.241,1.929,1.929,0,0,1-.345.723,3.417,3.417,0,0,1-.413.413M358,27.242a3.114,3.114,0,0,0-.722.379,2.1,2.1,0,0,0,.516-.069.863.863,0,0,0,.293-.19.846.846,0,0,1,.293-.189.958.958,0,0,1-.207.034.567.567,0,0,0-.173.034m-.516,2.443,1.067.034c.207-.114.384-.206.533-.275a1.379,1.379,0,0,0,.4-.275Zm1.17-7.778a7.435,7.435,0,0,1,.138,1.445,6.835,6.835,0,0,1-.172,1.515,4.3,4.3,0,0,0,.224-1.067,8.549,8.549,0,0,0,.017-1.2c-.024-.114-.051-.235-.086-.361a1.754,1.754,0,0,0-.12-.327m2.1,6.78a7.971,7.971,0,0,0-.689.636,4.707,4.707,0,0,1-.653.568,4.775,4.775,0,0,0,2.718-3.029,4.981,4.981,0,0,1-1.376,1.824m-.792-7.262a5.108,5.108,0,0,1-.068,2.513,4.6,4.6,0,0,0,.361-1.308,3.948,3.948,0,0,0-.086-1.411.225.225,0,0,0-.1.1.217.217,0,0,1-.1.1m1.342-.895-.171-.258a1.474,1.474,0,0,1-.172-.361A.617.617,0,0,1,361,20.1a.332.332,0,0,0,.035.155,2.015,2.015,0,0,0,.138.241,1.633,1.633,0,0,1,.137.275Zm7.091-5.816.137-.55V14.1c.046-.092.1-.126.172-.1a.94.94,0,0,0,.068-.344v-.379a.311.311,0,0,1,.275-.206.191.191,0,0,1,.206.172h.035l-.035,1.2.138-.069a.31.31,0,0,1,.138-.034h.068a2.718,2.718,0,0,1,.12-.533c.057-.172.121-.35.19-.534a.291.291,0,0,1,.293-.137.237.237,0,0,1,.188.206h.07a.138.138,0,0,0-.035.1.875.875,0,0,0-.034.275l.07.069a4.64,4.64,0,0,1,.31,1.531q.034.844.068,1.635.1.9.155,1.48t.086,1.515l.413,4.508c.022.207.039.476.052.809s.017.683.017,1.05a9.559,9.559,0,0,1-.052,1.033,6.052,6.052,0,0,1-.12.757c-.047.115-.11.172-.19.172a.434.434,0,0,1-.258-.1.333.333,0,0,1-.138-.206c-.022-.091-.046-.195-.069-.31a2.9,2.9,0,0,1-.034.43c-.022.149-.046.281-.068.4a.556.556,0,0,1-.207.172q-.069.379-.171.74a1.3,1.3,0,0,1-.31.568l.068.757q0,.207-.275.31l-.07-.034c-.137-.022-.218-.08-.24-.172a.2.2,0,0,1-.035-.138.2.2,0,0,1-.138.069h-.24a.282.282,0,0,1-.1.172.95.95,0,0,0,.017.172,1.144,1.144,0,0,1,.017.172v.1a.1.1,0,0,1-.033.069c-.07.184-.207.229-.413.138a.1.1,0,0,0-.07.034,1.276,1.276,0,0,1-.895-.585.608.608,0,0,1-.275.172.214.214,0,0,1-.276-.069l-.068-.275a.33.33,0,0,1-.241.1h-.137a.243.243,0,0,1-.207-.207,7.716,7.716,0,0,1-.206-1.084c-.047-.379-.092-.752-.138-1.119a9.322,9.322,0,0,1-.224-1.652c-.034-.619-.047-1.256-.034-1.91s.028-1.291.051-1.911.057-1.181.1-1.686V19.739q-.069-1.445-.052-2.856t.087-2.856v-.172c0,.023.022.034.068.034q.274-.275.448.172v.206a10.923,10.923,0,0,0,0,1.755l.137-.792a.068.068,0,0,1,.018-.052.071.071,0,0,0,.017-.052.387.387,0,0,0,.035-.172l.1-.379c.022,0,.056-.057.1-.172.022-.046.039-.069.052-.069s.028-.011.052-.034v-.034q.274-.275.413.069v.069l.1-.55c.068-.184.178-.259.326-.224s.213.144.19.327v.207a.26.26,0,0,0,.069.052.184.184,0,0,1,.068.086h.034v.637a4.673,4.673,0,0,1-.034.568c.046-.137.092-.269.138-.4s.091-.247.138-.361Zm-1.825,7.331q.034-.827.07-1.653t.1-1.686c-.047.322-.086.654-.121,1s-.074.688-.12,1.033v.344Zm.31-5.748a3.787,3.787,0,0,0-.017.619,2.574,2.574,0,0,1-.017.517,15.411,15.411,0,0,1,.31-1.893,1.077,1.077,0,0,1-.07-.275,5,5,0,0,0-.1.517,4.946,4.946,0,0,1-.1.516m.344,13.8a.833.833,0,0,0,.035.31Zm.826-.206a.138.138,0,0,0-.035.1l-.137.482.1.206.1-.447a1.379,1.379,0,0,0,.017-.379c-.012-.138-.017-.275-.017-.413Zm.068-.688a.069.069,0,0,1,.018-.052.07.07,0,0,0,.017-.052v-.034Zm1-9.086.068,1.067.1-.034.035-.929-.1-.895-.07-.275Zm.24-3.854c0-.046.011-.069.035-.069l.035-.31c-.024.069-.047.144-.07.224a.842.842,0,0,0-.034.224l.034.034Z" transform="translate(-147.968 -5.557)" fill="#36a193"/>
      <path id="패스_41686" data-name="패스 41686" d="M233.563,73.9a.12.12,0,0,1,.069.1.092.092,0,0,1-.054.1l.093.031v-.016a.147.147,0,0,1,.046-.108h.016c.01,0,.015,0,.015-.008s.005-.007.016-.007h.107c.082,0,.17,0,.262-.007a.392.392,0,0,1,.262.084l-.062.062a.7.7,0,0,1,.031.107c.061-.041.113-.016.153.077a8.326,8.326,0,0,1,.092,1.018q.015.509.031,1.032.03.308.061.625a3.138,3.138,0,0,1,0,.623,1.006,1.006,0,0,1,.031.247,1.978,1.978,0,0,0,.016.247.125.125,0,0,1-.07.116c-.047.025-.1.012-.146-.039a1.429,1.429,0,0,1-.1-.209,1.83,1.83,0,0,1-.069-.223v.17a.12.12,0,0,1-.093.084.169.169,0,0,1-.123-.038,1.174,1.174,0,0,1-.108-.292v.277a.147.147,0,0,1-.046.108.108.108,0,0,1-.092.124.123.123,0,0,1-.138-.077l-.047-.2H233.7l-.061-.047-.093.54a.128.128,0,0,1-.185.077.47.47,0,0,1-.154-.278,1.961,1.961,0,0,1-.031-.354l-.046-.062a2.32,2.32,0,0,1-.216.755.223.223,0,0,1-.17.031.891.891,0,0,1-.153-.447c-.031-.215-.054-.46-.07-.731s-.026-.547-.031-.825-.018-.518-.038-.724a13.147,13.147,0,0,1-1.472.185,4.645,4.645,0,0,1-1.364-.108q-.124-.046-.062-.17a3.942,3.942,0,0,1-.547.023,1.884,1.884,0,0,1-.47-.069.1.1,0,0,1-.069-.115.127.127,0,0,1,.084-.115l.432-.109a.135.135,0,0,1,.046-.092.044.044,0,0,0,.016-.03c0-.01.01-.026.03-.047l.061-.047h-.54a.194.194,0,0,1-.123-.092c-.021-.041-.005-.076.047-.107,0-.01,0-.016-.008-.016s-.008,0-.008-.016h.062l.663-.093-.725-.046h-.015a.126.126,0,0,1-.1-.108c-.006-.051.023-.087.084-.107V74.55h.047c.072,0,.151,0,.239-.008s.187-.013.3-.023V74.5h.077a.07.07,0,0,0,.031-.007.067.067,0,0,1,.03-.008l.031-.031h-.108a.111.111,0,0,1-.107-.122l-.093-.109h.124a.1.1,0,0,1,.076-.107q.077-.016.178-.031c.067-.01.141-.02.224-.031-.021-.072.01-.123.093-.153a1.129,1.129,0,0,1,.492-.016c.175.031.35.057.524.078a3.072,3.072,0,0,1-.007-.4c0-.186.007-.376.007-.571q-.446,0-.909.007c-.308.006-.622,0-.939-.007-.114-.041-.149-.093-.108-.154-.268,0-.524.005-.771.015s-.487.026-.723.047c-.165-.041-.211-.118-.139-.231a.164.164,0,0,1,.139-.047.1.1,0,0,0,.107-.046,7.353,7.353,0,0,1-1.094-.138c-.082-.031-.121-.072-.115-.124s.044-.087.115-.108v-.046c.021,0,.03.005.03.016a.014.014,0,0,0,.016.016q.369-.078.632-.115a6.316,6.316,0,0,1,.631-.055l.109-.061-.3-.024c-.057-.005-.147-.007-.27-.007l-.74-.016a.13.13,0,0,1-.078-.023.375.375,0,0,1-.046-.039l-.016-.015h-.015a.08.08,0,0,0-.016-.039c-.01-.015,0-.033.016-.053V71.73c.041-.021.056-.03.046-.03.021-.021.036-.031.047-.031l.015-.016a.031.031,0,0,0,.023-.007.032.032,0,0,1,.024-.008l.879.016.03-.016a.07.07,0,0,1,.046-.038.209.209,0,0,1,.046-.007.152.152,0,0,1,.109-.031l.4.031-.108-.061a.1.1,0,0,1-.061-.093.149.149,0,0,1,.046-.108v-.016l.016-.031a.049.049,0,0,1,.03-.046l-.723-.016c-.1-.021-.157-.059-.163-.116s.034-.095.116-.115v-.016h.047l1.14-.046V70.9l.878.015c0-.061.036-.093.108-.093q1.094,0,2.088.016t2.1-.016q.369-.015.723-.061t.71-.062c.349-.021.673-.025.97-.016s.621.016.971.016a.142.142,0,0,1,.115.047.071.071,0,0,1,.007.093h.771c.123,0,.195.033.215.1s-.021.126-.123.178v.031h-.046a1.635,1.635,0,0,1-.316.061q-.162.016-.347.046a.315.315,0,0,1,0,.139l.093-.047a.061.061,0,0,0,.016.047.047.047,0,0,1,.016.03c.061.041.077.083.046.124l.047.124-.139.061-.108.092h.694a.353.353,0,0,1,.069.008.392.392,0,0,0,.085.008.013.013,0,0,0,.015.015h.031l.062.062a.19.19,0,0,0,.076.047v.061a.137.137,0,0,1-.015.062.113.113,0,0,1-.078.047.178.178,0,0,1-.077.015h-.477c-.113,0-.272.006-.478.016a.235.235,0,0,1-.092.061l.016.016-.077-.016a.678.678,0,0,0,.015.154.508.508,0,0,1,.016.124l.247-.031q.354.016.093.123a.247.247,0,0,0-.061.008.227.227,0,0,1-.062.008.689.689,0,0,1-.308-.008.973.973,0,0,0-.324-.023.112.112,0,0,1,.047.1.1.1,0,0,1-.078.1H236.2q-.509.031-.917.076t-.916.078q-.324.016-.64.023t-.624.008c0,.184,0,.367-.007.546a1.735,1.735,0,0,1-.039.378l-.03.062.261-.031a2.588,2.588,0,0,0,.278-.046Zm1.064-9.739a.122.122,0,0,1,.069.1.1.1,0,0,1-.039.1l.093.047V64.4a.151.151,0,0,1,.03-.108h.016c.01,0,.015,0,.015-.007s.005-.008.015-.008l.03-.016h.078a2.156,2.156,0,0,0,.269.016.441.441,0,0,1,.27.093l-.061.061a.151.151,0,0,0,.008.054.193.193,0,0,1,.007.054c.072-.041.124-.02.155.061.021.175.036.316.046.424s.016.208.016.3v.725q.016.154.016.631t-.007,1.026q-.009.546-.031,1.032t-.039.64a.931.931,0,0,1,.023.262c-.005.082-.007.164-.007.247a.088.088,0,0,1-.055.108.128.128,0,0,1-.146-.047,1.344,1.344,0,0,1-.154-.446l-.015.17a.119.119,0,0,1-.093.084.168.168,0,0,1-.123-.039.821.821,0,0,1-.046-.147.951.951,0,0,0-.047-.146l-.015.277a.148.148,0,0,1-.047.108c0,.072-.03.11-.092.115a.133.133,0,0,1-.138-.085l-.047-.2h-.016l-.061-.046-.247.523a.163.163,0,0,1-.2.093.6.6,0,0,1-.138-.293,1.961,1.961,0,0,1-.03-.354l-.031-.061a3.117,3.117,0,0,1-.108.446,1.109,1.109,0,0,1-.138.293c-.031.021-.082,0-.154-.07a.479.479,0,0,0-.17-.116V68.941c0-.072-.018-.1-.054-.093s-.054-.02-.054-.092l.016-2.635a8.242,8.242,0,0,1-.833.046q-.339,0-.863.016l-1.071.031q-.547.015-1.04.023t-.74-.008c-.041-.02-.064-.07-.07-.147a.272.272,0,0,1,.023-.161c-.205.01-.39.013-.554.008a1.511,1.511,0,0,1-.462-.085.115.115,0,0,1-.078-.115.116.116,0,0,1,.093-.116l.432-.078a.131.131,0,0,1,.047-.092.119.119,0,0,0,.016-.047c0-.01.01-.025.03-.046l.077-.047-.539-.016a.2.2,0,0,1-.124-.093.079.079,0,0,1,.03-.107c0-.01,0-.016-.007-.016s-.008,0-.008-.015h.062l.677-.077-.725-.061h-.015a.117.117,0,0,1-.093-.115.1.1,0,0,1,.093-.1v-.016h.046a1.19,1.19,0,0,0,.239.008c.087-.005.187-.013.3-.024v-.015h.077a.062.062,0,0,0,.031-.008.067.067,0,0,1,.031-.007l.03-.03H228.2a.112.112,0,0,1-.107-.124L228,64.38h.124a.1.1,0,0,1,.077-.108l.4-.046a.149.149,0,0,1,.108-.138,1.054,1.054,0,0,1,.493-.008q.262.054.524.084.278,0,.848-.007t1.194-.008q.625,0,1.179.015c.369.011.631.026.786.047.123,0,.272-.007.446-.024s.329-.033.463-.053Zm-5.656,1.218a.769.769,0,0,1,.185-.007c.062.005.129.007.2.007a.141.141,0,0,1-.085-.047.168.168,0,0,0-.1-.046Zm.8,9.816a1.124,1.124,0,0,1,.186-.016h.2a.194.194,0,0,1-.093-.046.149.149,0,0,0-.107-.031Zm.247-2.358a2.988,2.988,0,0,0,.3.015h.315v-.03l-.539.016Zm1.263,1.094h.031l-.015-.047h-.016Zm.617.955a1.154,1.154,0,0,0-.155.047.561.561,0,0,1-.138.031c.082,0,.154,0,.216.007s.133.008.215.008a.372.372,0,0,1,.124-.039.567.567,0,0,0,.138-.038l-.246-.078Zm.754,3.175c.011-.124.018-.321.024-.593a4.57,4.57,0,0,0-.115-.994,8.707,8.707,0,0,0-.016.9,4.778,4.778,0,0,0,.093.825.346.346,0,0,1,.007-.069.355.355,0,0,0,.007-.07m.293-12.959a.646.646,0,0,0-.154.031,1.028,1.028,0,0,1-.154.047.8.8,0,0,1,.223,0,1.555,1.555,0,0,0,.224.015l.124-.031a.946.946,0,0,0,.138-.046l-.247-.061Zm.154,7.643v.124h.624q.316,0,.624-.016h.062l-.015-.153Zm.2,4.5a.09.09,0,0,1-.061-.016c0,.082,0,.164.007.246s.013.164.023.247c.01-.072.018-.138.023-.2s.008-.124.008-.184Zm.108-2.589h-.047a.064.064,0,0,1,.015.047c.01,0,.023.01.039.031s.028.031.038.031Zm.123-7.227c0,.061.021.054.062-.023a1.744,1.744,0,0,0,.123-.347,2.587,2.587,0,0,0,.077-.524A1.173,1.173,0,0,0,233.7,66l-.047.462Zm.339,7.135-.061.015a.183.183,0,0,1,.107.093l.047.154a.721.721,0,0,1,.108.031.769.769,0,0,1,.015-.17v-.031l.031-.046a.754.754,0,0,0,.016-.138v-.155l-.185.047c.052.03.072.067.061.108s-.046.072-.107.093Zm.262-5.609a1.507,1.507,0,0,0-.007.262c0,.082.013.17.023.261.01-.082.018-.156.023-.223s.007-.136.007-.209v-.092Zm.477-4.037h-.046a.062.062,0,0,1,.016.046c.01,0,.026.01.047.031s.035.03.046.03Zm.463-.077-.061.015a.185.185,0,0,1,.107.093l.047.154a.72.72,0,0,1,.108.031.432.432,0,0,1,.007-.085.425.425,0,0,0,.007-.084v-.031l.031-.031c.01-.051.018-.1.023-.138a1.114,1.114,0,0,0,.007-.138v-.015l-.184.03c.051.03.069.067.054.108a.171.171,0,0,1-.115.093Z" transform="translate(-96.176 -27.249)" fill="#656969"/>
      <path id="패스_41687" data-name="패스 41687" d="M255.983,68.457c-.062.02-.129.041-.2.061a1.454,1.454,0,0,1-.262.047c.031.031.031.072,0,.123l.092-.046a.1.1,0,0,0,.008.046.069.069,0,0,1,.007.031.1.1,0,0,1,.016.139l.015.123-.077.031-.092.107.508.016a.6.6,0,0,1,.108.03l.031.016c0,.021.016.036.046.047a.25.25,0,0,1,.062.046v.046c0,.072-.031.108-.092.108a.063.063,0,0,1-.047.016q-.231-.016-.47-.016c-.159,0-.316,0-.469-.016a.179.179,0,0,1-.092.061l.015.016-.046-.016c.01.062.018.114.023.155a1.107,1.107,0,0,1,.008.138l.415-.031c.1.021.16.062.169.124s-.021.108-.092.138a.247.247,0,0,0-.061.007.194.194,0,0,1-.047.008,14.934,14.934,0,0,1-1.7.061q-.894-.015-1.8-.038T250.181,70q-.886-.015-1.688.047-.2-.062-.093-.247a1.546,1.546,0,0,0,.155-.17c-.144-.021-.278-.044-.4-.07a1.5,1.5,0,0,1-.37-.131c-.061-.021-.087-.056-.078-.108a.144.144,0,0,1,.092-.108v-.03c.011,0,.016,0,.016.007s.005.008.015.008c.175-.041.352-.078.532-.109a2.38,2.38,0,0,1,.532-.03l.093-.047a2.853,2.853,0,0,1-.3-.016c-.1-.01-.187-.021-.269-.03l-.54-.031a.133.133,0,0,1-.092-.047c0-.01,0-.016-.008-.016s-.007,0-.007-.015a.212.212,0,0,0-.007-.047.083.083,0,0,1,.007-.061v-.016l.03-.03a.129.129,0,0,1,.047-.016l.016-.015c.01,0,.015,0,.015-.008s.005-.007.016-.007l.646.03.016-.015c0-.01.015-.016.046-.016a.18.18,0,0,1,.077-.016l.524.046-.077-.061a.367.367,0,0,1,0-.216V68.4l.015-.03q0-.016.031-.031l-.754-.077c-.083-.021-.132-.052-.147-.093s.012-.082.084-.124v-.03h.031l.848.03v-.03l1.264.061q.677.031,1.348.031t1.364.046q.663,0,1.38-.016t1.395.031c.093.01.144.046.154.108s-.026.118-.108.169v.031Zm-6.164,3.266c-.083-.01-.118-.038-.108-.084s.056-.069.138-.069a.52.52,0,0,1,.078.015c.041.011.051.016.03.016.01.021.018.03.023.03s.013.005.023.016a.925.925,0,0,1,.417-.617c.215-.144.372-.247.469-.309a1.512,1.512,0,0,1,.27-.138,1.669,1.669,0,0,1,.339-.077q.215-.031.678-.124a1.079,1.079,0,0,1,.416.023,2.788,2.788,0,0,1,.447.147,3.162,3.162,0,0,1,.392.2,1.5,1.5,0,0,1,.27.2c.041,0,.061.01.061.03a1.634,1.634,0,0,0,.2.115.366.366,0,0,1,.154.132,1.226,1.226,0,0,1,.385.5,3.557,3.557,0,0,1,.215.655,1.606,1.606,0,0,1,.116.663,1.664,1.664,0,0,1-.17.7,1.751,1.751,0,0,1-.47.586,1.509,1.509,0,0,1-.786.316,2.11,2.11,0,0,1,.015.262v.278q.494-.016,1.072,0c.386.01.726.016,1.025.016a.141.141,0,0,1,.115.046.071.071,0,0,1,.008.093h.308c.124,0,.2.033.216.1s-.021.126-.124.178v.03H256l-.2.108a.311.311,0,0,1,0,.138l.093-.046a.06.06,0,0,0,.016.046.047.047,0,0,1,.015.031c.062.041.077.082.047.124l.046.123-.138.061-.107.093h.2a.359.359,0,0,1,.069.008.482.482,0,0,0,.085.007.014.014,0,0,0,.016.016h.031l.061.061a.187.187,0,0,0,.078.046v.062a.143.143,0,0,1-.016.061.111.111,0,0,1-.077.046.17.17,0,0,1-.077.016h-.231a.181.181,0,0,0-.047.008,1.2,1.2,0,0,1-.185.007.23.23,0,0,1-.093.061l.016.016-.077-.016a.647.647,0,0,0,.016.155.5.5,0,0,1,.015.123l.246-.03q.354.016.093.123a.281.281,0,0,0-.061.007.25.25,0,0,1-.061.008l-.186.046c.031.021.025.041-.015.062s-.087.041-.139.061h-.092l.076.154q-.74.015-1.364.03t-1.232.023q-.609.009-1.233.008H250.22c-.113-.041-.149-.093-.108-.154-.267,0-.523.005-.771.016s-.488.026-.724.046q-.247-.061-.139-.23a.161.161,0,0,1,.139-.047.1.1,0,0,0,.108-.047,1.038,1.038,0,0,1-.209-.016,1.071,1.071,0,0,1-.116-.031L248.294,77a1.572,1.572,0,0,0-.2-.054c-.082-.03-.121-.072-.116-.124s.044-.087.116-.107V76.67c.02,0,.031.005.031.016a.014.014,0,0,0,.015.016,1.457,1.457,0,0,0,.262-.062l.138-.054a.987.987,0,0,1,.139-.038,1.46,1.46,0,0,1,.262-.016l.108-.062c-.144-.01-.245-.017-.3-.023s-.147-.008-.27-.008l-.277-.015a.126.126,0,0,1-.077-.023.4.4,0,0,1-.047-.038l-.016-.016h-.015a.08.08,0,0,0-.016-.038c-.01-.015-.005-.033.016-.054v-.016c.04-.02.056-.031.046-.031.02-.02.036-.03.046-.03l.016-.016a.03.03,0,0,0,.023-.008.032.032,0,0,1,.023-.007l.416.015.031-.015a.069.069,0,0,1,.046-.039.244.244,0,0,1,.046-.007.151.151,0,0,1,.109-.031l.4.031-.108-.062a.1.1,0,0,1-.061-.092.148.148,0,0,1,.047-.108v-.016l.015-.031a.049.049,0,0,1,.031-.046l-.724-.016q-.154-.03-.162-.115t.115-.115v-.016h.047l1.141-.047v-.03l.878.015c0-.061.036-.093.108-.093h.4v-.771a.014.014,0,0,1-.016-.015l-.185-.062a.878.878,0,0,1-.17-.077.187.187,0,0,1-.084-.038l-.054-.054a1.479,1.479,0,0,1-.239-.162q-.1-.084-.192-.177a.529.529,0,0,0-.061-.077.163.163,0,0,1-.038-.023.062.062,0,0,0-.039-.008,1.228,1.228,0,0,1-.393-.339,1.065,1.065,0,0,1-.177-.4,1.016,1.016,0,0,1,.076-.709,3.235,3.235,0,0,1,.417-.677h.03c.01,0,.016-.005.016-.016Zm5.717-5.855a1.1,1.1,0,0,1-.386.093c.041.031.041.077,0,.138l.093-.046v.061a.176.176,0,0,1,.03.154l.016.108-.062.03-.092.108.17.016a.106.106,0,0,1,.046.008.108.108,0,0,0,.046.007l.016.016c0,.01.01.026.031.046a.163.163,0,0,0,.046.031V66.7c0,.062-.021.093-.062.093a.044.044,0,0,1-.031.016H254.9a.094.094,0,0,1-.062.061l.016.031-.031-.031a1.268,1.268,0,0,0,.008.155,1.236,1.236,0,0,1,.007.138l.308-.047c.082.021.129.061.139.124a.125.125,0,0,1-.062.138h-.107a11.612,11.612,0,0,1-1.441.108c-.54.01-1.094.013-1.665.007s-1.128-.005-1.672,0a13.3,13.3,0,0,0-1.448.085c-.114-.021-.139-.093-.077-.215a.471.471,0,0,1,.061-.116.4.4,0,0,0,.047-.07c-.113-.01-.177-.028-.192-.053a.529.529,0,0,0-.177-.116.1.1,0,0,1-.07-.107.126.126,0,0,1,.07-.108v-.03h.031a.856.856,0,0,0,.3-.108.481.481,0,0,1,.3-.047l.062-.031a1.683,1.683,0,0,1-.224-.015,1.579,1.579,0,0,0-.207-.016l-.2-.031a.109.109,0,0,1-.078-.03v-.047a.124.124,0,0,0-.007-.038.069.069,0,0,1,.007-.054l-.015-.015a.044.044,0,0,0,.015-.031c.021-.02.036-.031.047-.031a.013.013,0,0,0,.015-.015l.016-.016.278.03.015-.03q0-.016.031-.016a.065.065,0,0,1,.047-.016h.2l-.061-.062a.348.348,0,0,1-.016-.116.23.23,0,0,1,.016-.1l.031-.061-.355-.015c-.165-.052-.185-.124-.062-.216v-.031h.694v-.031l1,.031q.524,0,1.064-.015t1.079.015q.262,0,.663-.007t.816-.024q.416-.015.8-.015c.257,0,.472.005.648.015.082,0,.128.034.138.1a.189.189,0,0,1-.077.178v.03Zm-6.117.155q.539,0,1,.03t.909.046q.447.016.932.008a9.455,9.455,0,0,0,1.071-.084l-.015-.155q-.987.031-1.865.077t-1.956.078Zm.415,7.442a.36.36,0,0,1-.053-.146.837.837,0,0,0-.039-.162c-.164-.093-.252-.195-.262-.309a.689.689,0,0,0,0,.2.4.4,0,0,0,.093.2,1.532,1.532,0,0,0,.124.107c.051.041.1.077.138.108m-.076-1.233c.01-.031.02-.064.03-.1a.47.47,0,0,1,.031-.084.41.41,0,0,1-.047.061,1.334,1.334,0,0,0-.092.185.164.164,0,0,1-.007.053.16.16,0,0,0-.008.055l.016-.047.031-.061a.209.209,0,0,1,.047-.061m.215-.509.016.016v-.016Zm.016,5.471.717.023c.139.005.261.008.37.008h.385q.222,0,.762-.016h.061l-.015-.153Zm.416-5.809-.016.016a.135.135,0,0,0,.061-.016c.082-.062.175-.126.278-.192a1.12,1.12,0,0,1,.324-.147c.021.021.03.015.03-.016a2.15,2.15,0,0,0-.677.355m2.912-.494h.061a2.992,2.992,0,0,0-.539-.277,1.547,1.547,0,0,0-.632-.093,3.025,3.025,0,0,0-.708.138,3.841,3.841,0,0,0-.586.247,3.329,3.329,0,0,1,1.233-.17,2.205,2.205,0,0,1,.609-.008,1.892,1.892,0,0,1,.563.161m-2.034,2a1.3,1.3,0,0,1-.015-.523c-.041.051-.072.093-.093.123a.347.347,0,0,0-.046.124.522.522,0,0,0,.062.138,1.413,1.413,0,0,0,.092.138m.278-.955a.661.661,0,0,1,.232-.193,1.174,1.174,0,0,1,.354-.1l.016-.016a.044.044,0,0,1,.016-.03l.016-.016h-.17c-.175.041-.315.08-.423.115a1.034,1.034,0,0,0-.316.178.394.394,0,0,0-.038.1.291.291,0,0,1-.024.07.691.691,0,0,1,.278-.108Zm.94,1.11a.481.481,0,0,0,.154-.208.648.648,0,0,0,.03-.192.453.453,0,0,0-.315-.393.834.834,0,0,0-.64-.007.427.427,0,0,0-.092.154.594.594,0,0,0-.015.138,1.778,1.778,0,0,0,.015.224,1.553,1.553,0,0,0,.046.224c.031.021.047.041.047.061a.439.439,0,0,0,.339.155.478.478,0,0,0,.432-.155m-.2-1.233a.207.207,0,0,0-.131-.016l-.1.031.124.03a.639.639,0,0,0,.154.016c-.01,0-.018-.008-.024-.023a.09.09,0,0,0-.023-.038m.139-.355a1.224,1.224,0,0,0-.216-.015c0,.01.005.015.016.015Zm.184,1.9a.146.146,0,0,1,.008.077.254.254,0,0,0-.008.061c0,.011.005.016.016.016v.03a.337.337,0,0,0,.139-.047h.016a.6.6,0,0,0,.161-.269,1.2,1.2,0,0,0,.038-.3.663.663,0,0,1-.047.078.4.4,0,0,1-.046.061.5.5,0,0,1-.131.209.57.57,0,0,1-.147.084m.632-.74a.81.81,0,0,0-.047-.107,2.272,2.272,0,0,1-.015.694,1.126,1.126,0,0,0,.054-.285c.005-.1.007-.2.007-.3m.139,1.7v.031a.373.373,0,0,0,.092-.061Zm.57-.17a1.9,1.9,0,0,0-.255.178,1.317,1.317,0,0,1-.255.161,1.492,1.492,0,0,0,.987-.771,1.247,1.247,0,0,1-.477.432m-.293-1.834a.905.905,0,0,1,0,.616,1.079,1.079,0,0,0,.092-.663.134.134,0,0,0-.092.047m.494-.216a.43.43,0,0,1-.109-.123v.062a.14.14,0,0,1,.054.046.525.525,0,0,0,.055.061Zm3.867-4.453.061-.246v-.03c.021-.041.047-.057.077-.047a.4.4,0,0,0,.031-.153v-.17a.139.139,0,0,1,.124-.093.086.086,0,0,1,.092.077h.015l-.015.539.061-.03a.136.136,0,0,1,.062-.016h.03a1.24,1.24,0,0,1,.055-.239c.025-.077.054-.156.085-.238a.128.128,0,0,1,.13-.061.106.106,0,0,1,.085.093h.03a.064.064,0,0,0-.015.046.38.38,0,0,0-.016.124l.03.03a2.064,2.064,0,0,1,.139.686c.01.251.021.5.03.731.01.134.023.288.039.463s.025.352.03.532.013.36.023.539.015.337.015.47l.185,2.019q.016.139.023.517t.008.809q0,.432-.023.8a3.415,3.415,0,0,1-.055.494c-.02.052-.049.077-.084.077a.2.2,0,0,1-.116-.047.153.153,0,0,1-.061-.093c-.011-.041-.021-.087-.031-.138a1.329,1.329,0,0,1-.016.192c-.01.067-.021.126-.031.178a.241.241,0,0,1-.092.076c-.021.114-.047.224-.078.332a.573.573,0,0,1-.138.254l.031.339c0,.061-.041.107-.124.138l-.031-.015c-.061-.011-.1-.037-.107-.078a.09.09,0,0,1-.016-.062.087.087,0,0,1-.061.031h-.108a.127.127,0,0,1-.047.078.5.5,0,0,0,.008.077.472.472,0,0,1,.008.077v.047a.046.046,0,0,1-.016.03c-.03.082-.093.1-.184.061a.045.045,0,0,0-.031.016.574.574,0,0,1-.4-.262.276.276,0,0,1-.124.077.1.1,0,0,1-.124-.031l-.03-.123a.149.149,0,0,1-.109.046H257.2a.107.107,0,0,1-.092-.093,3.409,3.409,0,0,1-.093-.486c-.021-.169-.041-.336-.061-.5a5.469,5.469,0,0,1-.1-.993q-.023-.671-.016-1.418t.023-1.425q.016-.678.047-1.017v-.74q-.031-.646-.024-1.279t.039-1.278v-.077c0,.01.01.015.031.015q.123-.122.2.077v.093a4.992,4.992,0,0,0,0,.787l.062-.355a.03.03,0,0,1,.008-.023.031.031,0,0,0,.007-.023.172.172,0,0,0,.016-.078l.046-.169c.01,0,.026-.025.047-.077.01-.021.017-.031.023-.031s.013-.005.023-.015v-.016c.082-.082.144-.072.184.031V67.5l.047-.247c.031-.083.079-.115.147-.1s.095.065.085.147v.093a.1.1,0,0,0,.03.023.085.085,0,0,1,.031.039h.015v.285a2.042,2.042,0,0,1-.015.254c.02-.061.041-.121.061-.177s.041-.111.061-.162Zm-.816,3.282c.01-.247.02-.493.031-.74s.025-.5.046-.755c-.021.144-.038.292-.054.447s-.033.308-.054.462v.154Zm.138-2.574a1.79,1.79,0,0,0-.008.278,1.166,1.166,0,0,1-.008.231,7.026,7.026,0,0,1,.138-.848.506.506,0,0,1-.031-.124,2.324,2.324,0,0,0-.047.231,2.093,2.093,0,0,1-.046.231m.155,7.828a.4.4,0,0,0,.015.139Zm.369-.093a.063.063,0,0,0-.016.046l-.061.216.047.092.046-.2a.628.628,0,0,0,.008-.17c-.005-.062-.008-.123-.008-.184Zm.031-.308a.034.034,0,0,1,.007-.024.03.03,0,0,0,.008-.023v-.015Zm.447-5.717.03.477.046-.016.016-.416-.047-.4-.031-.124Zm.107-1.726q0-.031.016-.031l.016-.138c-.01.031-.021.064-.031.1a.366.366,0,0,0-.015.1l.015.015Z" transform="translate(-105.375 -27.889)" fill="#656969"/>
      <path id="패스_41688" data-name="패스 41688" d="M273.838,74.893q-.17-.061-.107-.155c-.268,0-.524.005-.771.016s-.488.025-.724.046c-.164-.041-.211-.118-.138-.231a.163.163,0,0,1,.138-.047.1.1,0,0,0,.108-.047,7.368,7.368,0,0,1-1.095-.138c-.082-.03-.121-.072-.115-.124s.044-.087.115-.107v-.046c.021,0,.031.005.031.015a.014.014,0,0,0,.016.016q.369-.078.632-.116a6.02,6.02,0,0,1,.631-.053l.108-.062c-.144-.01-.244-.018-.3-.023s-.147-.008-.269-.008l-.74-.016a.125.125,0,0,1-.078-.023.441.441,0,0,1-.046-.038l-.016-.016H271.2a.076.076,0,0,0-.016-.038c-.01-.015-.005-.033.016-.054V73.63c.041-.021.056-.031.046-.031.021-.021.036-.031.047-.031l.015-.015a.032.032,0,0,0,.023-.008.034.034,0,0,1,.024-.007l.878.016.031-.016a.072.072,0,0,1,.046-.039.238.238,0,0,1,.046-.007.149.149,0,0,1,.109-.031l.4.031-.109-.062a.1.1,0,0,1-.061-.093.146.146,0,0,1,.046-.107v-.016l.015-.031a.051.051,0,0,1,.031-.046l-.724-.015c-.1-.021-.157-.059-.162-.115s.034-.095.115-.115v-.016h.047l1.141-.046V72.8l.878.015c0-.061.036-.092.108-.092q1.094,0,2.088.015t2.1-.015q.37-.016.724-.062t.71-.061q.523-.031.97-.016t.97.016a.143.143,0,0,1,.116.046.071.071,0,0,1,.007.093h.771c.123,0,.195.034.215.1s-.021.126-.124.177v.03H282.7a1.618,1.618,0,0,1-.316.062q-.161.016-.346.047a.331.331,0,0,1,0,.138l.092-.047a.066.066,0,0,0,.015.047.046.046,0,0,1,.016.031c.062.041.077.082.046.123l.047.123-.139.062-.108.093h.694a.349.349,0,0,1,.069.007.44.44,0,0,0,.086.007c0,.011.005.016.015.016h.031l.061.061a.183.183,0,0,0,.077.047v.062a.138.138,0,0,1-.015.061.112.112,0,0,1-.078.047.17.17,0,0,1-.077.015h-.477c-.113,0-.273.006-.478.016a.233.233,0,0,1-.092.061l.015.016-.077-.016a.642.642,0,0,0,.016.154.535.535,0,0,1,.016.124l.247-.031q.354.016.092.124a.277.277,0,0,0-.061.007.233.233,0,0,1-.062.008.689.689,0,0,1-.308-.008,1.006,1.006,0,0,0-.324-.023.114.114,0,0,1,.047.1.1.1,0,0,1-.078.1h-.092q-.509.031-.917.078c-.273.03-.578.056-.917.077-.206.01-.4.018-.586.023s-.37.007-.555.007v.578q0,.3-.008.577t-.016.509c-.005.153-.013.271-.023.354a1.627,1.627,0,0,0-.062.316,2.365,2.365,0,0,1-.046.3.234.234,0,0,1-.277.123l-.061-.077c-.021-.021-.049-.052-.085-.093a.294.294,0,0,1-.07-.138l-.046-.031a.4.4,0,0,0-.062.108c-.01.03-.021.067-.03.108-.092.082-.175.1-.246.061a.454.454,0,0,1-.154.007c-.072,0-.147-.013-.224-.023a1.125,1.125,0,0,1-.208-.046q-.093-.031-.093-.078l-.076-.523a.014.014,0,0,1-.016-.016,3.709,3.709,0,0,1-.007.539,1.08,1.08,0,0,1-.085.355.129.129,0,0,1-.077.046.127.127,0,0,0,.007.039.127.127,0,0,1,.008.039.193.193,0,0,1-.07.13c-.036.025-.1.023-.192-.008a.256.256,0,0,1-.139-.207,1.106,1.106,0,0,1,.047-.285l-.139-.478V74.893q-.955.016-1.988,0m6.857-9.785a.225.225,0,0,0,.008.061.283.283,0,0,1,.007.062v.153a.413.413,0,0,0,.031.155q0,.277.008.839t.016,1.171c.005.406.01.8.015,1.171s.008.66.008.856a.27.27,0,0,1,.131.023.921.921,0,0,0,.116.054c.051.021.07.049.054.084a.617.617,0,0,1-.054.1.708.708,0,0,0-.1.115c-.016.026-.07.049-.162.07a2.131,2.131,0,0,1,.007.309c0,.1-.013.195-.023.277a3.568,3.568,0,0,1,.139.371c.03.1-.052.19-.246.261a1.961,1.961,0,0,0,.176.092.563.563,0,0,1,.163.107q.061.17-.092.17h-.062v.016a.014.014,0,0,1-.015.016c-.021.072-.037.108-.047.108-.1.01-.267.02-.493.031s-.421.02-.586.03l-.077-.077-.016-.093q-.124,0-.378.024l-.539.046c-.19.015-.377.029-.562.039s-.334.016-.446.016l-1.973-.077-.662.061c-.093.01-.208.018-.347.023s-.285.008-.44.008h-.439a2.935,2.935,0,0,0-.332.015c-.082,0-.126-.026-.13-.076a.1.1,0,0,1,.069-.109h.047c.02,0,.03-.015.03-.046a.1.1,0,0,0,.077-.031.28.28,0,0,1,.124-.03c-.093-.01-.172-.018-.239-.023a.3.3,0,0,1-.161-.054l.031-.016a.757.757,0,0,1,.37-.169.052.052,0,0,1,.038-.016.082.082,0,0,0,.053-.03l.016.03h.015l.016-.03c.01,0,.025-.016.046-.047-.03,0-.056-.025-.076-.077-.011-.02-.021-.041-.031-.062s-.021-.04-.031-.061c-.01,0-.015-.01-.015-.031a.12.12,0,0,1-.109.046v.046a.166.166,0,0,1-.076.116.072.072,0,0,1-.108-.023.436.436,0,0,1-.124-.231,1.1,1.1,0,0,1-.031-.269c0-.1,0-.2-.015-.316s-.044-.264-.07-.485-.054-.455-.084-.7-.057-.483-.077-.708-.037-.4-.047-.509c-.01-.072-.028-.175-.054-.308s-.054-.278-.084-.432-.059-.314-.085-.478-.044-.308-.054-.431c-.01-.041.018-.055.085-.039s.095,0,.084-.039a6.318,6.318,0,0,0-.077-.678,1.377,1.377,0,0,1-.03-.386l.061-.092a.224.224,0,0,0-.016-.139.158.158,0,0,1,.092-.138.113.113,0,0,1,.138.047l.016-.031v.077a.787.787,0,0,0,.039.092.185.185,0,0,1,.024.077l-.016.077.076.216.016-.031a1.434,1.434,0,0,1-.039-.277,2.058,2.058,0,0,1,.008-.309.1.1,0,0,1,.07-.1.165.165,0,0,1,.131.007l.03-.016.016.078v.153a.411.411,0,0,0,.03.155h.016a.115.115,0,0,1,.107.093.858.858,0,0,1,.054.254,2.061,2.061,0,0,0,.039.285l.046.123.016.031.015-.37a.126.126,0,0,1,.046-.076c-.021-.155-.036-.306-.046-.455a2.115,2.115,0,0,1,.016-.44v-.031h.016a.1.1,0,0,1,.116-.038.161.161,0,0,1,.1.1v.016q.015.215.024.4a2.393,2.393,0,0,0,.054.4c.02-.021.036-.031.046-.031a.475.475,0,0,1-.031-.178v-.208a.173.173,0,0,1,.116-.147c.067-.025.111,0,.132.07v.046a.069.069,0,0,0,.007.039.151.151,0,0,1,.023.038l.031-.277-.015-.139h.015c.052-.093.109-.093.169,0h.016v.062l.093.061-.031-.047h.015c0-.01,0-.015-.007-.015s-.007-.005-.007-.016a.1.1,0,0,1,.069-.1.134.134,0,0,1,.131.023l.031-.046a.051.051,0,0,0,.023.046c.016.01.023.021.023.03q.016.078.054.293t.077.486c.026.179.052.362.078.547s.048.344.069.477l.509-.015.309-.062a3.853,3.853,0,0,0,.438.016h.7q.37,0,.694.007c.215.005.359.013.432.023,0-.082,0-.187.007-.315s.013-.26.023-.393.018-.259.024-.378.007-.209.007-.27l.031-.246v-.138q.016-.031.031-.031a1.079,1.079,0,0,1,.061-.13,1.058,1.058,0,0,1,.077-.115c.031-.062.072-.083.124-.062a.143.143,0,0,1,.093.108,1.54,1.54,0,0,1-.008.154c0,.051-.007.1-.007.154a.458.458,0,0,1,.039.17c.005.072.013.149.023.231.021-.123.036-.246.047-.369a1.377,1.377,0,0,1,.077-.355.364.364,0,0,1,.124-.039,1.167,1.167,0,0,1,.246-.023c.093,0,.178,0,.255.007a.485.485,0,0,1,.147.024c.01,0,.025.01.046.03l.016-.016v.016a.489.489,0,0,1,.077.208q.015.116.047.285l.015-.278.016-.03a.12.12,0,0,1,.078-.124.326.326,0,0,1,.007-.085.77.77,0,0,1,.039-.084.137.137,0,0,1,.1-.092.13.13,0,0,1,.131.061,2.377,2.377,0,0,0,.093.355l.015-.03V64.2l.016.015a.143.143,0,0,1,.115-.054.082.082,0,0,1,.069.07h.016v.215c-.01,0-.016.036-.016.108l.061.016a.113.113,0,0,1,.124.108c-.01.052-.018.095-.023.13a.822.822,0,0,0-.007.116Zm-6.95,1.047-.138-.215a.233.233,0,0,0-.031.093,1.064,1.064,0,0,1-.016.123.309.309,0,0,1,.055.162,2.549,2.549,0,0,0,.038.269l.124-.293Zm1.449,4.916.478-.062,1.741-.077-2.527-.046-.047.139-.123.061Zm-.123,3.205c.123.01.246.016.369.016h.37v-.031l-.663.016Zm3.128-6.148c-.041,0-.164,0-.369.007s-.432.013-.678.023-.483.016-.708.016H276l-.57-.031.108,1.448a4.045,4.045,0,0,0,.493.016h.9q.485,0,.909-.008t.532-.008a.659.659,0,0,0-.007-.107.483.483,0,0,1-.007-.077.092.092,0,0,1-.1.046.139.139,0,0,1-.085-.093Zm.047,6.056a.319.319,0,0,1,.016.124h.562q.285,0,.578-.016h.062l-.015-.154Zm.509-6.95-.077-.755-.03.525v.924l.215-.586Zm.215-1.51-.123.293.123.524Z" transform="translate(-115.341 -27.237)" fill="#656969"/>
      <path id="패스_41689" data-name="패스 41689" d="M296.242,64.475c.041-.082.1-.107.169-.077a.4.4,0,0,1,.138-.154.135.135,0,0,1,.154.078.617.617,0,0,1,.008.323,2.521,2.521,0,0,1-.115.386.154.154,0,0,1,.023.031.117.117,0,0,0,.023.03c.01-.021.023-.044.039-.07s.028-.049.038-.07a.194.194,0,0,1,.138-.061.4.4,0,0,1,.078.046.6.6,0,0,1,.107-.155c.1-.071.164-.041.185.093a.194.194,0,0,0-.016.085v.084a.551.551,0,0,1,.062-.1c.02-.025.041-.053.061-.084a.127.127,0,0,1,.147,0,.129.129,0,0,1,.054.138.235.235,0,0,0-.039.085.241.241,0,0,1-.038.084.257.257,0,0,0,.047-.061c.041-.072.09-.09.147-.054a.115.115,0,0,1,.053.147l-.093.277a.286.286,0,0,1-.015.093.278.278,0,0,0-.015.093c.051-.134.105-.267.161-.4s.116-.267.177-.4a.129.129,0,0,1,.1-.061.1.1,0,0,1,.085.046.248.248,0,0,1,.046.193c-.01.076-.026.167-.046.269a.349.349,0,0,1,.077-.123.636.636,0,0,0,.076-.093c.062-.041.114-.047.155-.016a.113.113,0,0,1,.031.138,2.358,2.358,0,0,1-.139.471c-.061.148-.123.306-.185.469a.544.544,0,0,1-.038.216c-.037.133-.085.3-.147.486s-.132.4-.208.616-.147.419-.209.594l.74.462q.371.231.671.424t.509.323q.208.131.27.162c.02.01.087.051.2.123s.241.152.385.239.28.172.409.254.218.138.27.17a2.736,2.736,0,0,0,.554.216c.082.061.093.123.031.184a.96.96,0,0,1,.123.17c-.01.083-.047.129-.107.138a.58.58,0,0,1-.324-.069,3.205,3.205,0,0,1-.355-.208.088.088,0,0,1-.061.031l.061.061a.228.228,0,0,0,.062.046.169.169,0,0,1,.016.155c-.021.041-.041.061-.061.061a.356.356,0,0,1,.076.069.847.847,0,0,0,.062.07c.031.114-.016.17-.138.17a.106.106,0,0,0-.078-.03.17.17,0,0,1-.077-.016.259.259,0,0,1,.077.077.477.477,0,0,0,.061.077.107.107,0,0,1-.03.131.124.124,0,0,1-.139.023l-.076-.053c-.021-.016-.047-.034-.077-.054a.265.265,0,0,1,.046.061c.061.052.07.1.023.155a.1.1,0,0,1-.147.015l-.262-.153-.085-.031q-.038-.016-.084-.031c.113.072.231.152.355.239s.241.177.355.269a.13.13,0,0,1,.03.115.091.091,0,0,1-.061.07.331.331,0,0,1-.2,0,1.223,1.223,0,0,1-.247-.107.45.45,0,0,1,.1.1c.025.036.048.07.069.1.021.072.013.121-.023.146a.128.128,0,0,1-.13.008,2.892,2.892,0,0,1-.432-.246q-.2-.139-.417-.278a1.057,1.057,0,0,1-.3-.154q-.285-.169-.7-.423l-.878-.539-.833-.517-.107.292q-.17.463-.308.809a2.662,2.662,0,0,0-.17.547.054.054,0,0,0,.007.062c.016.021.013.03-.007.03-.021.051-.044.106-.07.162a1.659,1.659,0,0,0-.069.177c-.042.072-.1.083-.186.031a.323.323,0,0,1-.061-.124l-.061.093c-.1.041-.17.031-.2-.031v-.154a1.128,1.128,0,0,1,.047-.292.445.445,0,0,0-.078.092.7.7,0,0,0-.054.1q-.022.054-.053.115l-.016-.016a.11.11,0,0,1-.2-.046.527.527,0,0,1-.092.184q-.062.124-.169.047l-.062-.061c-.041.082-.092.174-.154.277v.047l-.031-.016a.093.093,0,0,1-.115.061c-.057-.01-.08-.046-.07-.107q-.016-.016,0-.047l-.016.016a.347.347,0,0,1,.046-.077l.031-.093a.794.794,0,0,1,.046-.107v-.016H294.5l-.046-.046c-.01,0-.026-.01-.047-.03a.921.921,0,0,1-.093.231,1.37,1.37,0,0,1-.123.184.331.331,0,0,1-.07.039.138.138,0,0,1-.084-.023c-.01-.01-.016-.013-.016-.008s-.01,0-.03-.008a.313.313,0,0,1-.062-.123c.02-.082.036-.149.046-.2a.328.328,0,0,1-.231.138.281.281,0,0,1-.115-.062.1.1,0,0,1-.039-.107c.031-.061.1-.234.2-.516s.228-.624.377-1.025.3-.83.463-1.287.314-.886.463-1.287.275-.753.378-1.056.17-.5.2-.577c.01-.021.036-.095.077-.224s.09-.269.147-.423.108-.3.155-.446.079-.247.1-.308c.021-.1.041-.2.062-.3a1.376,1.376,0,0,0,.031-.285m-2.173,7.258a.382.382,0,0,0,.008.084.361.361,0,0,1,.007.07.593.593,0,0,1,.061-.17Zm1.087-1.117c.056-.18.121-.387.193-.624s.149-.488.231-.755.16-.519.232-.755.133-.445.185-.624.087-.3.107-.362q-.031.077-.115.331c-.056.17-.124.368-.2.593s-.16.471-.246.733-.17.506-.247.731-.144.424-.2.593-.095.28-.116.332-.038.122-.053.184-.034.128-.054.2a3.1,3.1,0,0,1-.147.339,1.265,1.265,0,0,0-.115.34c.041-.072.084-.156.131-.255s.092-.192.139-.285.1-.211.161-.355q.03-.092.115-.362m.563-3.043q.139-.462.285-.909t.332-.894a6.268,6.268,0,0,0-.355.855c-.093.283-.18.573-.262.871a.273.273,0,0,1-.031.077.164.164,0,0,1-.008.053.158.158,0,0,0-.008.054.562.562,0,0,1,.031-.054.092.092,0,0,0,.016-.053m1.14-.971c.082-.2.162-.4.239-.608s.161-.419.254-.624c-.052.093-.1.184-.147.277s-.095.18-.146.262c-.03.114-.064.229-.1.347s-.07.234-.1.346m.586-1.4.016-.016Zm.771,8.013.031-.061q.139-.185.215.03a.027.027,0,0,1,.031.031.105.105,0,0,1,.115.007.134.134,0,0,1,.054.116v.047a.166.166,0,0,1,.123-.078.374.374,0,0,1,.2.309l.046-.323a.21.21,0,0,1,.085-.108c.036-.021.07-.01.1.031.072-.072.139-.052.2.061a1.049,1.049,0,0,1,0,.355l.077-.046v-.2a.112.112,0,0,1,.124-.108c.02-.061.056-.087.107-.077a.14.14,0,0,1,.108.093c.01.052.018.095.024.13a1.074,1.074,0,0,1,.007.132.031.031,0,0,1,.008-.023.031.031,0,0,0,.008-.024v-.17a.136.136,0,0,1,.1-.092.081.081,0,0,1,.1.046.165.165,0,0,1,.062.077l.015.047.046-.031a2.739,2.739,0,0,1,.07.57,4.084,4.084,0,0,1-.023.57v.416q0,.2.016.417a4.017,4.017,0,0,1,.648-.093c.267-.021.539-.036.816-.047s.537-.013.778-.007.414.013.516.023a2.244,2.244,0,0,1,.269.077c.088.03.178.067.27.108h.046l-.015.015a.08.08,0,0,1,.053.108.159.159,0,0,1-.1.107H303.3c.021.011.031.024.031.039a.116.116,0,0,0,.016.054v.016h.292v.015a.111.111,0,0,1,.061.108.109.109,0,0,1-.077.108h-.169a1.308,1.308,0,0,0-.146.007,1.482,1.482,0,0,0-.147.024v.03a.35.35,0,0,1-.07-.007.315.315,0,0,0-.07-.008,1.267,1.267,0,0,0-.231.016c.01,0,.015.005.015.016l.216.046c.072.041.1.083.093.124a1.7,1.7,0,0,1,.477.046.1.1,0,0,1,.076.031.142.142,0,0,1-.046.2.246.246,0,0,0-.107.031.25.25,0,0,1,.107.016h.016v.015a.139.139,0,0,1,.092.1c.01.046-.016.084-.077.115l-.2.061.215.047h.016l.046.031a.092.092,0,0,1,.07.1.122.122,0,0,1-.085.1,3.016,3.016,0,0,1-.747.192,7.671,7.671,0,0,1-.84.061q-.432.008-.856-.008c-.283-.01-.547-.026-.793-.046a.186.186,0,0,1-.108-.1.088.088,0,0,1,.03-.116h-.184a.134.134,0,0,1-.108.062v.277a.1.1,0,0,1-.084.109.119.119,0,0,1-.132-.062l-.015.016V77.45l-.031-.2a.275.275,0,0,1-.077-.03l-.047-.093v.153c0,.072-.028.114-.084.124a.117.117,0,0,1-.131-.061l-.016.016V77.3c-.021-.114-.038-.232-.054-.355s-.033-.246-.054-.369c-.01-.021-.021-.044-.03-.069s-.021-.055-.031-.085c0,.133-.005.255-.015.362a1.928,1.928,0,0,1-.047.285.171.171,0,0,1-.084.085.114.114,0,0,1-.115-.023.09.09,0,0,1-.061.03.264.264,0,0,0-.016.108l-.046.061v.123h-.016a.11.11,0,0,1-.108.078.108.108,0,0,1-.107-.078v-.03l-.047-.324a.084.084,0,0,1-.031.038.226.226,0,0,0-.046.039,1.531,1.531,0,0,1-.008.154,1.53,1.53,0,0,0-.007.154.1.1,0,0,1-.116.07.129.129,0,0,1-.115-.084l-.078-.047c-.01-.061-.018-.126-.023-.192s-.007-.142-.007-.224l-.046-.155-.016-.03a.061.061,0,0,0-.008-.039.062.062,0,0,1-.007-.038,2.249,2.249,0,0,1-.115-.67c-.005-.232-.013-.465-.023-.7q-.016-.431-.008-.848t.023-.817a.518.518,0,0,1,.031-.154v-.047h.016a.222.222,0,0,1,.015-.092V73.4c.031-.061.067-.093.109-.093v-.092Zm.246-4.13q.432.247.832.485t.786.517a5.043,5.043,0,0,0-.747-.54q-.393-.231-.794-.446-.031,0-.031-.016c0-.01-.011-.02-.031-.031a.452.452,0,0,0-.053-.023.429.429,0,0,1-.054-.023.441.441,0,0,0,.092.077m.309,4.885c0-.021-.016-.036-.047-.046a.091.091,0,0,1-.061-.062q0,.6.047,1.125l.061-.216Zm.385-3.56c.185.134.375.264.57.393s.391.265.586.409c-.092-.083-.183-.157-.27-.224a2.47,2.47,0,0,1-.254-.224,3.131,3.131,0,0,1-.309-.177,2.517,2.517,0,0,0-.324-.178m1.125,5.393v.061c.175-.01.349-.018.523-.023s.35-.018.524-.038Zm.108-4.5.015.016Zm2.9-5.871.062-.246v-.031c.02-.041.046-.056.077-.046a.421.421,0,0,0,.03-.155v-.17a.14.14,0,0,1,.123-.092.085.085,0,0,1,.092.077h.016l-.016.539.062-.03a.135.135,0,0,1,.061-.016h.031a1.232,1.232,0,0,1,.054-.239c.025-.077.053-.156.084-.239a.13.13,0,0,1,.131-.061.1.1,0,0,1,.084.092h.031a.064.064,0,0,0-.015.047.379.379,0,0,0-.016.123l.031.031a2.064,2.064,0,0,1,.139.685q.015.378.03.732.047.4.07.663c.015.174.028.4.038.677a5.577,5.577,0,0,1,.717-.053,5.753,5.753,0,0,1,.7.023c.093,0,.182,0,.27.007a.861.861,0,0,1,.254.054.129.129,0,0,1,.092.184l-.047.047a.327.327,0,0,1-.184.108l-.031.046a.232.232,0,0,0,.085.038.248.248,0,0,1,.084.039q.123.061.062.153a.278.278,0,0,1,.015.108.955.955,0,0,1-.015.162,1.181,1.181,0,0,1-.039.154c-.015.047-.039.07-.07.07l-.432.077a.014.014,0,0,1-.015.016c.175-.01.326-.013.454-.008a.733.733,0,0,1,.285.054l.047.047a.067.067,0,0,0,.03-.008.074.074,0,0,1,.03-.007q.185,0,.109.17a.213.213,0,0,1-.17.123,2,2,0,0,1-.231-.016l-.4.093a4.889,4.889,0,0,1-.7.192q-.409.085-.717.147c.01.093.018.213.023.363s.007.306.007.469a4.329,4.329,0,0,1-.023.463,2.6,2.6,0,0,1-.054.339c-.021.052-.048.077-.084.077a.2.2,0,0,1-.116-.046.149.149,0,0,1-.062-.093c-.01-.041-.021-.087-.03-.138a1.246,1.246,0,0,1-.016.192c-.01.067-.021.126-.03.178a.265.265,0,0,1-.092.078c-.021.113-.047.223-.077.331a.58.58,0,0,1-.139.254l.03.339c0,.061-.041.107-.123.138l-.03-.015c-.062-.01-.1-.036-.108-.077a.089.089,0,0,1-.016-.061.088.088,0,0,1-.062.03h-.107a.125.125,0,0,1-.046.077.478.478,0,0,0,.007.077.554.554,0,0,1,.007.078v.046a.045.045,0,0,1-.015.03c-.031.083-.092.1-.185.062A.045.045,0,0,0,303.3,73a.573.573,0,0,1-.4-.262.277.277,0,0,1-.123.078.1.1,0,0,1-.124-.031l-.031-.124a.147.147,0,0,1-.107.046h-.062a.108.108,0,0,1-.092-.092,3.605,3.605,0,0,1-.093-.485c-.021-.17-.041-.337-.061-.5a4.2,4.2,0,0,1-.1-.74c-.016-.277-.021-.562-.016-.855s.013-.578.024-.855.025-.529.046-.756v-.74q-.031-.647-.023-1.278t.039-1.279v-.078c0,.011.01.016.03.016.082-.083.149-.057.2.076v.093a5.12,5.12,0,0,0,0,.785l.062-.354a.032.032,0,0,1,.007-.024.032.032,0,0,0,.008-.024.168.168,0,0,0,.015-.076l.047-.17c.01,0,.025-.026.046-.077.01-.021.018-.031.023-.031s.013-.005.024-.016v-.015c.082-.083.144-.072.185.03v.031l.046-.247c.031-.082.08-.115.147-.1s.095.064.084.147v.093a.123.123,0,0,0,.031.024.08.08,0,0,1,.031.038h.015v.285a2.134,2.134,0,0,1-.015.254c.021-.061.041-.121.061-.176s.041-.111.061-.162Zm-.724,11.11a.487.487,0,0,0-.077.008.493.493,0,0,1-.078.008.044.044,0,0,1,.031.015l.278-.031.292-.093h-.354q0,.047-.062.078v.015Zm-.092-7.828c.01-.246.021-.493.03-.74s.026-.5.047-.755c-.021.144-.038.292-.054.447s-.033.308-.054.462v.154Zm.138-2.573a1.645,1.645,0,0,0-.007.277,1.121,1.121,0,0,1-.008.231,6.909,6.909,0,0,1,.139-.847.505.505,0,0,1-.031-.124,2.125,2.125,0,0,0-.046.231c-.011.072-.026.149-.047.232m.154,6.179a.365.365,0,0,0,.016.139Zm.37-.093a.064.064,0,0,0-.015.047l-.062.215.046.093.047-.2a.6.6,0,0,0,.008-.17c-.005-.061-.008-.124-.008-.185Zm.031-.308a.032.032,0,0,1,.007-.023.031.031,0,0,0,.008-.023v-.016Zm.432,4.361.015-.015Zm.015-8.429.031.477.047-.015.015-.416-.046-.4-.031-.124Zm.108-1.726c0-.021.005-.03.016-.03l.016-.14c-.01.031-.021.065-.031.1a.366.366,0,0,0-.016.1l.016.016Zm.554,2.019a.084.084,0,0,0,.016.061h.015a.066.066,0,0,0-.008-.03.076.076,0,0,1-.007-.031Zm.247.046a.482.482,0,0,0,.077-.007.536.536,0,0,1,.077-.007l-.154-.016Z" transform="translate(-124.893 -27.329)" fill="#656969"/>
      <path id="패스_41690" data-name="패스 41690" d="M321.037,77.849c-.114-.041-.149-.093-.108-.154-.268,0-.524,0-.771.016s-.487.025-.723.046c-.165-.041-.211-.118-.139-.231a.159.159,0,0,1,.139-.046.1.1,0,0,0,.107-.047,7.427,7.427,0,0,1-1.094-.138c-.082-.03-.121-.072-.115-.123s.044-.087.115-.108v-.046c.021,0,.031.005.031.015s0,.016.015.016q.37-.078.631-.116a6.031,6.031,0,0,1,.632-.053l.109-.062-.3-.023c-.056-.006-.147-.007-.27-.007l-.74-.016a.125.125,0,0,1-.077-.024.408.408,0,0,1-.047-.038l-.016-.016H318.4a.075.075,0,0,0-.016-.038c-.01-.016,0-.034.016-.055v-.015c.041-.02.056-.031.046-.031.021-.02.036-.031.047-.031l.015-.015a.03.03,0,0,0,.023-.008.035.035,0,0,1,.024-.007l.879.016.03-.016a.07.07,0,0,1,.046-.038.259.259,0,0,1,.046-.007.152.152,0,0,1,.109-.031l.4.031-.108-.062a.1.1,0,0,1-.061-.093.148.148,0,0,1,.046-.107v-.016l.016-.03a.051.051,0,0,1,.03-.047l-.723-.015c-.1-.021-.157-.059-.163-.115s.034-.095.116-.115V75.83h.047l1.14-.046v-.03l.878.016c0-.061.036-.092.108-.092q.416,0,.817.008t.8.007a7.759,7.759,0,0,0,.016-.847q-.016-.463,0-.771l.107-.2a1.131,1.131,0,0,1-.046-.285.256.256,0,0,1,.138-.208c.092-.031.157-.033.193-.008a.191.191,0,0,1,.069.132.141.141,0,0,1-.007.038.127.127,0,0,0-.007.038.132.132,0,0,1,.077.046c.041.083.075.155.1.216a1.147,1.147,0,0,1,.024.4l.015-.016.077-.523c0-.03.031-.056.092-.078a1.227,1.227,0,0,1,.208-.046c.077-.01.152-.018.224-.023a.45.45,0,0,1,.154.008.242.242,0,0,1,.246.061c.01.042.021.078.031.109a.388.388,0,0,0,.061.107l.046-.03a.294.294,0,0,1,.07-.138c.036-.041.064-.072.085-.093l.061-.076a.234.234,0,0,1,.278.122,2.6,2.6,0,0,1,.046.3,1.635,1.635,0,0,0,.062.316c.021.215.036.452.047.708a5.794,5.794,0,0,1-.016.74.28.28,0,0,0,.061-.007.255.255,0,0,1,.062-.008c.247-.01.487-.031.724-.062s.472-.051.709-.061c.349-.02.673-.025.97-.015s.621.015.971.015a.142.142,0,0,1,.116.047.07.07,0,0,1,.007.092h.771c.122,0,.194.034.215.1s-.021.126-.124.178V76H329.9a1.678,1.678,0,0,1-.316.061q-.162.016-.347.047a.312.312,0,0,1,0,.138l.093-.047a.063.063,0,0,0,.016.047.047.047,0,0,1,.016.031c.062.041.077.082.046.123l.047.123-.139.062-.107.093h.694a.355.355,0,0,1,.069.008.485.485,0,0,0,.085.007.014.014,0,0,0,.016.016h.03l.062.061a.2.2,0,0,0,.076.046v.062a.137.137,0,0,1-.015.061.111.111,0,0,1-.078.046.169.169,0,0,1-.076.016h-.478c-.113,0-.272,0-.478.016a.235.235,0,0,1-.092.061l.016.016-.077-.016a.673.673,0,0,0,.015.154.5.5,0,0,1,.016.124l.246-.031q.354.016.093.124a.246.246,0,0,0-.061.007.251.251,0,0,1-.061.007.7.7,0,0,1-.309-.007.988.988,0,0,0-.324-.024.112.112,0,0,1,.047.1.1.1,0,0,1-.078.1h-.092q-.509.031-.917.078t-.916.077q-1.465.03-2.79.053t-2.789.008M327.324,73a.354.354,0,0,0-.07.007.354.354,0,0,1-.069.007.939.939,0,0,0-.324.031c-.205,0-.519,0-.939.008s-.863.013-1.326.023-.9.018-1.325.023-.735.007-.94.007a.181.181,0,0,1-.03.124.322.322,0,0,0-.062.108c-.021.052-.048.069-.084.053s-.075-.033-.116-.053a.751.751,0,0,0-.116-.1.31.31,0,0,1-.085-.147c-.113,0-.218,0-.316-.007s-.2-.007-.3-.007c-.154.051-.282.093-.385.123s-.19-.047-.262-.231a.848.848,0,0,0-.107.177.323.323,0,0,1-.124.147c-.1.041-.164.01-.186-.093a.073.073,0,0,0-.007-.03.063.063,0,0,1-.008-.031l-.015-.016a.391.391,0,0,1-.109-.046l-.092-.232c-.041-.1-.08-.213-.116-.331a2.184,2.184,0,0,1-.078-.34.442.442,0,0,1,.023-.254.112.112,0,0,1,.124-.062.793.793,0,0,1,.247.047,2.767,2.767,0,0,1,0-.586q.03-.323.092-.647v-.355q0-.323.007-.709t.008-.717v-.362a1.228,1.228,0,0,1-.07-.208c-.015-.067-.033-.141-.054-.224a4.287,4.287,0,0,1-.107-.948,7.722,7.722,0,0,0-.062-.963c-.01-.082.016-.125.077-.131a.11.11,0,0,1,.124.084h.015v.047c0,.021.005.031.016.031a.177.177,0,0,0,.015.077.32.32,0,0,0,.016.124c.021-.093.041-.172.062-.239a.341.341,0,0,1,.077-.147c.041-.031.1-.02.169.03a.443.443,0,0,1,.084.192,1.74,1.74,0,0,0,.054.209h.016a.052.052,0,0,1,.016.038.118.118,0,0,0,.016.054v.015l.015.016c0,.01.01.025.031.046,0-.031.025-.056.077-.077a.135.135,0,0,1,.061-.016.139.139,0,0,0,.062-.016c0-.01.01-.016.03-.016-.041-.041-.052-.077-.03-.108h-.062a.159.159,0,0,1-.1-.1c-.016-.047,0-.084.054-.115a.355.355,0,0,1,.108-.047.575.575,0,0,0,.123-.046,1.888,1.888,0,0,1,.3-.038,1.455,1.455,0,0,1,.332.024h.015q.6-.031,1.31,0,.2-.016.578-.031t.839-.024c.309-.005.626-.007.956-.007h.925c.287,0,.534.005.739.016a2.219,2.219,0,0,1,.417.047.321.321,0,0,1,.076.061.239.239,0,0,0,.17,0,.151.151,0,0,1,.124.092.113.113,0,0,1-.047.139v.016c-.021-.01-.033-.013-.038-.008a.034.034,0,0,1-.024.008c-.041.01-.077.021-.108.031a.354.354,0,0,1-.107.015l-.046-.015-.247.046.016.016a2.12,2.12,0,0,1,.308-.008c.1.005.211.013.324.023a.132.132,0,0,1,.115.085.121.121,0,0,1-.038.13l.03.031h-.108a.508.508,0,0,0-.146-.007c-.047.005-.1.013-.146.023v.016a.128.128,0,0,1-.124.108,1.1,1.1,0,0,1-.262.03,2.631,2.631,0,0,0-.277.016l-.155.031-.015.015.339.047a.133.133,0,0,1,.093.046c.153-.01.31-.016.469-.016a2.424,2.424,0,0,1,.471.046h.03v.016c.051.052.069.1.054.139a.134.134,0,0,1-.115.077h-.016c-.144,0-.286,0-.424-.008a2.407,2.407,0,0,0-.423.023c.021.021.031.037.031.047a.958.958,0,0,1,.2-.008c.062.005.129.013.2.023s.129.047.138.108-.026.1-.107.124h-.031l-.061.031.246.03h.17v.016a.107.107,0,0,1-.016.2v.016h-.062c0,.041.005.061.016.061a.207.207,0,0,0,.1-.016c.016-.01.007.005-.024.047l.031.03a.106.106,0,0,0-.046.007.063.063,0,0,1-.031.008,3.042,3.042,0,0,1-.732.084q-.562.024-1.325.039t-1.633.023q-.871.007-1.657.053,0,.386.015.678t.023.555q.008.262.008.547v.771a.674.674,0,0,0,.016.13q.416,0,1.1-.007l1.41-.016q.724-.007,1.363,0t.979.023h.016l.231.031h.155c.01.011.018.016.023.016s.013.005.023.016c.052.021.1.041.138.061l.124.062c.051.03.067.069.046.115a.186.186,0,0,1-.108.1,1.525,1.525,0,0,1-.153-.007c-.052-.005-.1-.008-.155-.008a3.4,3.4,0,0,1-.415.062c.133.021.259.036.377.046a1.539,1.539,0,0,1,.363.077c.092.041.118.1.077.17a.228.228,0,0,0-.031.1c-.01.057-.026.09-.046.1l.015.016h-.015c-.062.041-.134.092-.216.153a.672.672,0,0,1-.262.124l.262.016.047.016a.133.133,0,0,1,.138.076.28.28,0,0,1,.169.047.106.106,0,0,1,.077.1.172.172,0,0,1-.077.132,1.815,1.815,0,0,1-.2.046,1.277,1.277,0,0,0-.185.046l.061.016h.232l-.015.016a.177.177,0,0,1,.061.124c0,.041-.026.067-.077.076V72.9h-.215a.263.263,0,0,0-.108-.016l-.016.047a.152.152,0,0,1-.124.123.369.369,0,0,0-.13-.03h-.116Zm-6.595-5.039.015.477v2.281l.17-3.035-.138-.078-.016-.123Zm1.54,9.585q1.094.03,2.165.038t2.164-.023h.062l-.016-.154-4.3.139Zm5.655-9.554v-.061c0-.01,0-.016-.008-.016s-.007-.005-.007-.015Z" transform="translate(-135.42 -28.082)" fill="#656969"/>
      <path id="패스_41691" data-name="패스 41691" d="M344.332,66.862c.041-.082.1-.107.17-.077a.4.4,0,0,1,.138-.154.136.136,0,0,1,.155.077.621.621,0,0,1,.007.324,2.483,2.483,0,0,1-.116.386.127.127,0,0,1,.024.031.118.118,0,0,0,.023.03c.01-.021.023-.044.039-.07s.028-.049.039-.069a.191.191,0,0,1,.138-.061.4.4,0,0,1,.078.046.572.572,0,0,1,.107-.155q.154-.107.185.093a.192.192,0,0,0-.016.085v.084a.552.552,0,0,1,.062-.1c.02-.026.041-.053.061-.084a.126.126,0,0,1,.146,0,.128.128,0,0,1,.055.138.246.246,0,0,0-.039.085.239.239,0,0,1-.038.084.231.231,0,0,0,.047-.061c.041-.072.09-.09.147-.054a.116.116,0,0,1,.054.147l-.092.277a.288.288,0,0,1-.016.093.308.308,0,0,0-.015.093c.051-.133.1-.267.161-.4s.115-.267.178-.4a.128.128,0,0,1,.1-.062.1.1,0,0,1,.085.047.245.245,0,0,1,.046.193c-.01.076-.026.167-.046.269a.357.357,0,0,1,.077-.124.615.615,0,0,0,.077-.092c.061-.041.113-.047.154-.016a.114.114,0,0,1,.031.138,2.418,2.418,0,0,1-.138.47c-.062.149-.124.306-.186.47a.854.854,0,0,1-.061.278q-.078.262-.207.647t-.286.832q-.154.447-.278.833.385.246.8.508t.762.478l.594.37c.164.1.267.164.308.184.02.011.087.052.2.124s.241.152.385.238.28.172.409.255.218.138.269.17a2.814,2.814,0,0,0,.555.215c.083.061.092.123.031.185a.947.947,0,0,1,.124.17c-.01.082-.046.128-.108.138a.59.59,0,0,1-.323-.07,3.189,3.189,0,0,1-.355-.208.088.088,0,0,1-.061.03l.061.062a.242.242,0,0,0,.061.047.165.165,0,0,1,.016.153c-.021.042-.041.062-.061.062a.335.335,0,0,1,.077.07.744.744,0,0,0,.061.069q.047.17-.138.17a.106.106,0,0,0-.077-.031.181.181,0,0,1-.078-.015.276.276,0,0,1,.078.077.492.492,0,0,0,.061.077.108.108,0,0,1-.03.131.127.127,0,0,1-.139.023c-.031-.02-.056-.038-.077-.054l-.077-.054a.25.25,0,0,1,.046.062c.062.052.07.1.023.153a.1.1,0,0,1-.147.016l-.261-.155c-.03-.01-.059-.02-.084-.031l-.085-.03c.113.072.231.152.355.239s.241.177.355.27a.131.131,0,0,1,.03.116.094.094,0,0,1-.061.069.331.331,0,0,1-.2,0,1.164,1.164,0,0,1-.247-.108.471.471,0,0,1,.1.1l.07.1c.02.072.012.121-.024.147a.13.13,0,0,1-.131.007,2.892,2.892,0,0,1-.432-.246c-.133-.093-.272-.184-.416-.278a1.293,1.293,0,0,1-.332-.17q-.315-.184-.771-.462l-.97-.593-.917-.563-.231.632q-.169.462-.308.809a2.662,2.662,0,0,0-.169.547.053.053,0,0,0,.008.061c.015.021.012.031-.008.031-.021.051-.044.106-.07.161a1.719,1.719,0,0,0-.069.178c-.042.072-.1.082-.186.031a.323.323,0,0,1-.061-.124l-.061.093c-.1.041-.17.031-.2-.031v-.154a1.13,1.13,0,0,1,.046-.293.471.471,0,0,0-.077.093.622.622,0,0,0-.054.1c-.016.036-.033.075-.054.115l-.016-.016a.109.109,0,0,1-.2-.046.528.528,0,0,1-.093.184c-.041.082-.1.1-.169.047l-.062-.061c-.041.082-.093.174-.153.277v.047l-.031-.016a.093.093,0,0,1-.115.061c-.057-.01-.08-.046-.07-.107q-.016-.016,0-.047l-.016.016a.372.372,0,0,1,.046-.077c.01-.031.021-.061.031-.093a.92.92,0,0,1,.046-.108v-.016h-.077l-.046-.046q-.016,0-.047-.031a.923.923,0,0,1-.092.232,1.425,1.425,0,0,1-.124.184.286.286,0,0,1-.07.038.134.134,0,0,1-.084-.023c-.01-.01-.016-.013-.016-.007s-.01,0-.03-.008a.321.321,0,0,1-.062-.123c.021-.082.036-.149.046-.2a.326.326,0,0,1-.23.139.274.274,0,0,1-.115-.062.1.1,0,0,1-.039-.107q.047-.093.232-.594c.124-.333.269-.74.438-1.218s.352-.988.548-1.533.378-1.056.547-1.533.315-.894.439-1.248.2-.573.232-.655c.01-.021.036-.095.076-.224s.09-.269.147-.424.108-.3.155-.446.079-.247.1-.308c.021-.1.041-.2.061-.3a1.413,1.413,0,0,0,.031-.285m-2.528,8.29a.386.386,0,0,0,.008.084.36.36,0,0,1,.008.07.588.588,0,0,1,.061-.17Zm1.11-1.187q.108-.339.262-.817t.324-1.008q.169-.533.315-1.01c.1-.318.18-.591.246-.817s.11-.371.132-.432q-.032.077-.139.408t-.269.786q-.162.454-.331.979t-.332.978q-.161.456-.269.786c-.072.221-.118.357-.14.409s-.038.123-.053.185-.033.128-.054.2a2.99,2.99,0,0,1-.147.339,1.262,1.262,0,0,0-.116.339c.041-.071.084-.156.131-.254s.093-.192.139-.286.1-.21.161-.354q.031-.092.138-.432m.894-4.006q.139-.462.285-.909t.332-.894a6.271,6.271,0,0,0-.355.855q-.139.424-.262.871a.277.277,0,0,1-.031.077.15.15,0,0,1-.008.053.193.193,0,0,0-.007.054.463.463,0,0,1,.03-.054.092.092,0,0,0,.016-.053m1.14-.971c.083-.2.162-.4.239-.608s.161-.419.255-.624c-.052.093-.1.185-.147.277a2.906,2.906,0,0,1-.147.262c-.031.113-.064.229-.1.347s-.07.234-.1.346m.586-1.4.015-.016Zm1.217,4.885q.432.247.832.485t.786.517a5.043,5.043,0,0,0-.748-.54q-.393-.231-.793-.446c-.021,0-.031-.005-.031-.016s-.011-.02-.031-.031a.416.416,0,0,0-.054-.023.42.42,0,0,1-.054-.023.439.439,0,0,0,.093.077m.694,1.325c.184.134.375.264.57.393s.391.265.586.409c-.093-.083-.183-.157-.27-.224a2.48,2.48,0,0,1-.255-.224,3.125,3.125,0,0,1-.308-.177,2.559,2.559,0,0,0-.324-.178m4.808-5.855.061-.247v-.03c.021-.041.047-.056.077-.047a.419.419,0,0,0,.031-.154v-.17a.139.139,0,0,1,.124-.093.086.086,0,0,1,.092.078h.016l-.016.539.061-.031a.146.146,0,0,1,.062-.016h.03a1.226,1.226,0,0,1,.054-.238c.026-.078.054-.156.085-.239a.13.13,0,0,1,.131-.061.108.108,0,0,1,.085.093h.03a.065.065,0,0,0-.015.046.4.4,0,0,0-.015.124l.03.03a2.067,2.067,0,0,1,.14.686q.015.378.03.731c.03.268.054.488.069.663s.028.4.039.679l.077,2.173c.01.093.023.206.038.339s.028.272.038.416.016.28.016.409a1.362,1.362,0,0,1-.031.316c-.021.051-.049.076-.084.076a.2.2,0,0,1-.116-.046.153.153,0,0,1-.061-.093c-.01-.041-.021-.087-.031-.138a1.332,1.332,0,0,1-.015.192c-.011.067-.021.126-.031.178a.25.25,0,0,1-.093.076,3.4,3.4,0,0,1-.077.332.582.582,0,0,1-.138.255l.031.339c0,.061-.042.107-.124.138l-.031-.015c-.061-.01-.1-.036-.107-.078a.087.087,0,0,1-.016-.062.088.088,0,0,1-.061.031h-.108a.126.126,0,0,1-.046.078.477.477,0,0,0,.007.077.478.478,0,0,1,.008.076V75.4a.044.044,0,0,1-.016.031c-.03.082-.092.1-.185.061a.046.046,0,0,0-.031.016.574.574,0,0,1-.4-.262.272.272,0,0,1-.123.077.1.1,0,0,1-.124-.031l-.03-.123a.148.148,0,0,1-.108.046h-.061a.107.107,0,0,1-.092-.093,3.509,3.509,0,0,1-.092-.486c-.021-.17-.041-.336-.061-.5a5.5,5.5,0,0,1-.115-1.14q-.009-.663.023-1.28-.263-.015-.593-.015h-1.657l-.385-.108q-.154.016-.246.016a.214.214,0,0,1-.17-.123c-.061-.124-.025-.185.109-.185a.081.081,0,0,1,.031.007.064.064,0,0,0,.03.007c0-.01.015-.03.046-.061a.645.645,0,0,1,.262-.062c.123-.01.272-.016.447-.016v-.016l-.432-.061c-.031,0-.054-.023-.069-.07a.992.992,0,0,1-.039-.161,1.139,1.139,0,0,1-.015-.178.3.3,0,0,1,.015-.115c-.041-.051-.026-.113.046-.184a.249.249,0,0,1,.085-.039.24.24,0,0,0,.084-.038l-.015-.031a1.068,1.068,0,0,1-.108-.061.534.534,0,0,1-.077-.062l-.077-.046a.2.2,0,0,1,.107-.216,2.128,2.128,0,0,1,.255-.046,1.921,1.921,0,0,0,.254-.047c.082-.01.213-.017.393-.023l.585-.015c.21-.005.422-.005.632,0s.388.013.532.023q-.016-.54-.008-1.079t.038-1.079v-.077c0,.01.01.015.031.015q.123-.122.2.078v.093a4.984,4.984,0,0,0,0,.786l.061-.355a.033.033,0,0,1,.008-.023.031.031,0,0,0,.007-.023.168.168,0,0,0,.016-.077l.047-.169c.01,0,.025-.026.046-.078.01-.02.018-.031.023-.031s.013-.005.023-.015v-.016q.124-.123.185.03V67.8l.046-.247c.031-.082.08-.115.147-.1s.095.065.085.147v.093a.1.1,0,0,0,.03.023.085.085,0,0,1,.031.039h.016v.285a2.021,2.021,0,0,1-.016.254c.021-.061.041-.121.062-.177s.041-.11.061-.162Zm-3.575,6.749.016.016Zm2.836-4.962c-.021.1-.037.2-.047.293s-.021.19-.031.293v.8q.016-.353.031-.693c.01-.226.026-.457.047-.694m.061-1.079a1.656,1.656,0,0,0-.007.278,1.167,1.167,0,0,1-.008.231,7,7,0,0,1,.138-.847.505.505,0,0,1-.031-.124,2.265,2.265,0,0,0-.046.231c-.01.072-.026.149-.046.231m.154,6.179a.379.379,0,0,0,.016.138Zm.37-.093a.065.065,0,0,0-.015.046l-.061.216.046.092.047-.2a.651.651,0,0,0,.007-.17c-.005-.061-.007-.123-.007-.185Zm.031-.308a.031.031,0,0,1,.008-.024.031.031,0,0,0,.008-.023v-.015Zm.448-4.068.03.477.047-.015.016-.417-.046-.4-.031-.123Zm.107-1.726c0-.02.005-.031.015-.031l.016-.138c-.011.031-.021.064-.031.1a.339.339,0,0,0-.016.1l.016.016Z" transform="translate(-145.2 -28.344)" fill="#656969"/>
      <path id="패스_41692" data-name="패스 41692" d="M367.345,73.387c-.113-.041-.149-.093-.109-.154-.267,0-.523,0-.771.015s-.487.026-.723.047q-.247-.061-.139-.231a.162.162,0,0,1,.139-.047.1.1,0,0,0,.107-.047.861.861,0,0,1-.323-.046c-.031-.01-.067-.023-.108-.038a1.739,1.739,0,0,0-.2-.054c-.083-.03-.121-.072-.116-.124s.044-.087.116-.107v-.046c.02,0,.03.005.03.015s.005.016.016.016a1.456,1.456,0,0,0,.262-.062l.138-.054a.888.888,0,0,1,.138-.039,1.535,1.535,0,0,1,.262-.015l.109-.062c-.144-.01-.245-.018-.3-.024s-.146-.007-.269-.007l-.278-.016a.123.123,0,0,1-.077-.023.389.389,0,0,1-.047-.038l-.015-.016h-.015a.079.079,0,0,0-.016-.038c-.01-.015-.005-.033.016-.054v-.015c.04-.021.056-.031.046-.031.02-.021.036-.031.046-.031l.016-.016a.031.031,0,0,0,.023-.007.034.034,0,0,1,.023-.007l.417.015.03-.015a.072.072,0,0,1,.047-.039.227.227,0,0,1,.046-.007.15.15,0,0,1,.108-.031l.4.031-.107-.062a.1.1,0,0,1-.062-.093.149.149,0,0,1,.047-.107v-.016l.015-.03a.049.049,0,0,1,.031-.047l-.724-.015q-.155-.031-.162-.115c-.005-.057.033-.095.115-.116v-.016h.047l1.14-.046v-.03l.308.015V68.517l.139-.478a1.114,1.114,0,0,1-.047-.285.257.257,0,0,1,.139-.208c.093-.031.156-.033.193-.008a.2.2,0,0,1,.07.131.124.124,0,0,1-.008.038.118.118,0,0,0-.008.039.123.123,0,0,1,.077.046,1.07,1.07,0,0,1,.086.355,3.714,3.714,0,0,1,.007.539l.016-.016.076-.523q0-.047.093-.078a1.219,1.219,0,0,1,.207-.046c.078-.01.152-.018.224-.023a.433.433,0,0,1,.153.008.243.243,0,0,1,.247.061,1.055,1.055,0,0,0,.031.109.391.391,0,0,0,.061.107l.047-.031a.3.3,0,0,1,.069-.138c.036-.041.064-.072.085-.093l.061-.077a.236.236,0,0,1,.278.123,2.353,2.353,0,0,1,.046.3,1.626,1.626,0,0,0,.062.315q.015.355.023,1.064t.023,1.495q.169,0,.37-.007l.508-.023c.124,0,.164-.008.124-.024a.835.835,0,0,0-.169-.038,1.04,1.04,0,0,1-.177-.038c-.046-.015-.007-.023.116-.023q.523-.031,1.2-.016t1.2.016a.142.142,0,0,1,.116.046.072.072,0,0,1,.007.093h.308c.124,0,.2.034.216.1s-.021.126-.123.178v.03h-.047l-.2.108a.333.333,0,0,1,0,.139l.093-.047a.063.063,0,0,0,.016.047.044.044,0,0,1,.016.031c.062.041.076.082.047.123l.046.123-.138.062-.108.093h.2a.354.354,0,0,1,.069.007.431.431,0,0,0,.084.007c0,.01.005.016.016.016h.03l.061.061a.189.189,0,0,0,.078.047v.062a.134.134,0,0,1-.016.061.107.107,0,0,1-.077.047.169.169,0,0,1-.076.016h-.232a.208.208,0,0,0-.047.007,1.156,1.156,0,0,1-.184.008.233.233,0,0,1-.093.061l.015.016-.077-.016a.613.613,0,0,0,.016.155.53.53,0,0,1,.015.124l.247-.031q.354.016.093.124a.25.25,0,0,0-.061.007.257.257,0,0,1-.062.007l-.185.046c.031.021.025.042-.016.062s-.087.041-.139.061h-.092l.077.155q-.74.015-1.364.03t-1.233.023q-.609.008-1.232.008Zm4.422-9.169a.121.121,0,0,1,.069.1.1.1,0,0,1-.038.1l.092.047v-.016a.153.153,0,0,1,.03-.107h.016c.01,0,.015,0,.015-.008s.005-.007.016-.007l.03-.016h.077a2.168,2.168,0,0,0,.27.016.438.438,0,0,1,.269.093l-.062.061a.168.168,0,0,0,.008.054.169.169,0,0,1,.008.054q.108-.062.153.061c.021.175.036.316.047.423s.016.209.016.3V66.1q.015.154.008.624t-.015,1.017q-.009.547-.031,1.025c-.016.319-.029.529-.039.632a.954.954,0,0,1,.023.262c-.005.082-.008.164-.008.247a.088.088,0,0,1-.054.108c-.046.02-.095.005-.146-.047a1.359,1.359,0,0,1-.154-.446l-.016.17a.117.117,0,0,1-.093.084.168.168,0,0,1-.123-.038.869.869,0,0,1-.046-.147,1.012,1.012,0,0,0-.047-.146l-.016.277a.147.147,0,0,1-.047.108c0,.072-.031.11-.092.116a.134.134,0,0,1-.139-.084l-.046-.2h-.016l-.062-.046-.247.523a.162.162,0,0,1-.2.093.6.6,0,0,1-.139-.293,1.96,1.96,0,0,1-.03-.354l-.031-.061a3.2,3.2,0,0,1-.108.446,1.11,1.11,0,0,1-.138.293c-.031.021-.082,0-.154-.07a.468.468,0,0,0-.169-.115v-1.11c0-.072-.018-.1-.054-.093s-.054-.02-.054-.092l.031-2.6a8.057,8.057,0,0,1-.832.046q-.34,0-.748.016l-.808.03c-.268.01-.524.018-.771.024s-.452,0-.616-.008c-.041-.02-.065-.07-.07-.147a.266.266,0,0,1,.024-.161c-.206.01-.391.013-.555.007a1.481,1.481,0,0,1-.463-.084.114.114,0,0,1-.077-.115.116.116,0,0,1,.093-.115l.432-.078a.133.133,0,0,1,.046-.093.114.114,0,0,0,.016-.046c0-.01.01-.025.031-.046l.077-.047-.539-.015a.2.2,0,0,1-.124-.093.079.079,0,0,1,.031-.108c0-.01,0-.016-.008-.016s-.008-.005-.008-.015h.062l.677-.077-.723-.061h-.016a.117.117,0,0,1-.092-.116.1.1,0,0,1,.092-.1v-.016h.047a1.185,1.185,0,0,0,.238.008c.088-.005.188-.013.3-.024v-.016h.077a.06.06,0,0,0,.03-.007.069.069,0,0,1,.031-.008l.031-.03h-.108a.112.112,0,0,1-.108-.123l-.092-.108h.123c0-.061.025-.1.077-.108l.4-.046a.149.149,0,0,1,.107-.139,1.062,1.062,0,0,1,.493-.007q.262.054.524.084.277,0,.724-.008t.925-.007c.318,0,.624.005.917.015s.517.026.67.047c.124,0,.272-.008.448-.024s.328-.033.461-.054Zm-4.885,1.218a.765.765,0,0,1,.185-.007c.062,0,.129.007.2.007a.144.144,0,0,1-.084-.047.168.168,0,0,0-.1-.046Zm.231,7.643.717.024c.138.005.261.007.369.007h.385q.223,0,.763-.016h.062l-.016-.154Zm1.834,1.048.03-.061c.093-.124.164-.113.216.031a.027.027,0,0,1,.03.03.105.105,0,0,1,.116.007.133.133,0,0,1,.054.116V74.3a.166.166,0,0,1,.124-.078.375.375,0,0,1,.2.309l.046-.323a.206.206,0,0,1,.084-.107c.036-.021.07-.01.1.03.072-.072.139-.052.2.062a1.016,1.016,0,0,1,0,.354l.077-.046v-.2a.112.112,0,0,1,.123-.107q.031-.093.109-.078a.141.141,0,0,1,.107.093c.01.052.018.095.023.131a.931.931,0,0,1,.008.131.029.029,0,0,1,.008-.023.034.034,0,0,0,.007-.024v-.17a.139.139,0,0,1,.1-.092.081.081,0,0,1,.1.046.168.168,0,0,1,.062.077l.016.047.046-.031a2.866,2.866,0,0,1,.07.57,4.014,4.014,0,0,1-.024.571v.415c0,.134.005.272.016.417a3.884,3.884,0,0,1,.647-.093q.4-.032.817-.046t.778-.008q.362.008.516.023a2.352,2.352,0,0,1,.27.077q.13.046.27.108h.046l-.016.016a.08.08,0,0,1,.055.107.165.165,0,0,1-.1.109h-.247c.021.01.031.023.031.038a.124.124,0,0,0,.016.054v.016h.292v.015a.111.111,0,0,1,.062.108.109.109,0,0,1-.078.108h-.169a1.321,1.321,0,0,0-.146.007c-.046.005-.095.013-.146.024v.031a.354.354,0,0,1-.07-.008.319.319,0,0,0-.07-.008,1.206,1.206,0,0,0-.231.016.014.014,0,0,1,.016.015l.215.046c.072.041.1.083.092.124a1.71,1.71,0,0,1,.478.046.105.105,0,0,1,.078.031.143.143,0,0,1-.047.2.246.246,0,0,0-.108.03.251.251,0,0,1,.108.016h.016v.015a.14.14,0,0,1,.093.1c.01.046-.016.084-.077.115l-.2.061.216.046h.015l.047.031a.093.093,0,0,1,.07.1.12.12,0,0,1-.085.1,3.014,3.014,0,0,1-.748.192,7.64,7.64,0,0,1-.839.061q-.432.008-.855-.008t-.794-.046a.186.186,0,0,1-.107-.1.088.088,0,0,1,.03-.116h-.185a.132.132,0,0,1-.107.062v.277a.1.1,0,0,1-.085.109.118.118,0,0,1-.13-.062l-.016.016v-.062l-.03-.2a.275.275,0,0,1-.077-.03l-.046-.093v.153c0,.072-.029.114-.085.124a.117.117,0,0,1-.131-.061l-.016.016V78.21c-.021-.114-.038-.232-.053-.355s-.034-.246-.054-.369c-.011-.021-.021-.044-.031-.069s-.021-.054-.03-.085c0,.133-.006.255-.016.362a1.938,1.938,0,0,1-.046.285.171.171,0,0,1-.084.085.114.114,0,0,1-.116-.023.091.091,0,0,1-.062.03.266.266,0,0,0-.015.108l-.047.061v.123h-.016a.114.114,0,0,1-.216,0v-.03l-.046-.324a.086.086,0,0,1-.031.038.234.234,0,0,0-.046.038,1.54,1.54,0,0,1-.007.154,1.384,1.384,0,0,0-.008.154.1.1,0,0,1-.115.07.128.128,0,0,1-.115-.084l-.077-.046c-.011-.062-.018-.126-.023-.193s-.008-.142-.008-.224l-.046-.154-.016-.03a.061.061,0,0,0-.008-.039.062.062,0,0,1-.007-.038,2.25,2.25,0,0,1-.115-.67c-.006-.232-.013-.465-.023-.7q-.015-.432-.007-.847t.023-.817a.5.5,0,0,1,.03-.154v-.047h.015a.205.205,0,0,1,.016-.092v-.016c.031-.062.067-.093.108-.093v-.092Zm.555.755c0-.02-.016-.036-.046-.046a.093.093,0,0,1-.062-.062c0,.4.016.776.046,1.125l.062-.216Zm.585-9.723a.616.616,0,0,0-.154.031,1.07,1.07,0,0,1-.155.047.811.811,0,0,1,.224,0,1.537,1.537,0,0,0,.223.015l.123-.031a.975.975,0,0,0,.139-.046l-.246-.061Zm.586,2.327c0,.061.021.053.062-.023a1.772,1.772,0,0,0,.124-.347,2.587,2.587,0,0,0,.077-.524,1.185,1.185,0,0,0-.093-.54l-.046.463Zm.339,9.23v.062q.261-.016.524-.024t.524-.038Zm.247-7.735a1.507,1.507,0,0,0-.008.262c0,.082.013.17.023.261.01-.082.018-.156.023-.223s.007-.136.007-.209v-.092Zm.493-4.006h-.046a.063.063,0,0,1,.016.046c.01,0,.025.01.046.03s.036.031.046.031Zm.462-.078-.061.016a.182.182,0,0,1,.108.093l.047.154a.653.653,0,0,1,.107.031.435.435,0,0,1,.008-.085.427.427,0,0,0,.008-.084v-.031l.031-.031c.01-.051.017-.1.023-.138a1.1,1.1,0,0,0,.008-.138v-.016l-.185.03c.051.031.07.067.053.109a.166.166,0,0,1-.116.092Zm1.079,12.558a.482.482,0,0,0-.077.008.492.492,0,0,1-.077.008.046.046,0,0,1,.031.015l.277-.031.293-.092h-.354c0,.03-.021.056-.062.077v.015Zm1.864-12.25.062-.247v-.031c.021-.041.047-.056.077-.046a.4.4,0,0,0,.03-.154v-.17a.139.139,0,0,1,.124-.092.086.086,0,0,1,.093.077h.016l-.016.539.062-.031a.14.14,0,0,1,.062-.015h.03a1.221,1.221,0,0,1,.055-.239c.025-.077.053-.157.084-.239a.13.13,0,0,1,.131-.061.107.107,0,0,1,.084.093h.031a.063.063,0,0,0-.015.047.377.377,0,0,0-.016.123l.031.03a2.069,2.069,0,0,1,.138.686q.016.378.031.732c.01.133.023.287.038.463s.025.352.031.531.012.36.023.539.015.337.015.47a5.586,5.586,0,0,1,.716-.053,5.643,5.643,0,0,1,.7.023c.092,0,.182,0,.27.007a.872.872,0,0,1,.254.055.129.129,0,0,1,.093.184l-.046.046a.329.329,0,0,1-.185.109l-.031.046a.232.232,0,0,0,.085.039.251.251,0,0,1,.084.038c.083.041.1.093.062.154a.275.275,0,0,1,.016.108.958.958,0,0,1-.016.162,1.113,1.113,0,0,1-.038.154c-.016.047-.039.07-.07.07l-.432.077a.014.014,0,0,1-.015.016,4.485,4.485,0,0,1,.454-.008.736.736,0,0,1,.285.054l.046.046a.068.068,0,0,0,.031-.007.074.074,0,0,1,.03-.007c.124,0,.16.056.108.17-.052.082-.108.123-.169.123a2.009,2.009,0,0,1-.231-.016l-.4.093a4.877,4.877,0,0,1-.7.192q-.409.085-.716.147c.01.093.018.265.023.517s.008.521.008.809-.008.554-.023.8a3.245,3.245,0,0,1-.055.493c-.02.051-.048.077-.084.077a.2.2,0,0,1-.115-.047.15.15,0,0,1-.062-.092c-.01-.041-.021-.087-.03-.139a1.271,1.271,0,0,1-.016.193c-.01.067-.021.126-.03.177a.251.251,0,0,1-.092.077q-.032.17-.078.332a.582.582,0,0,1-.138.254l.03.339c0,.061-.041.108-.124.139l-.03-.016c-.061-.01-.1-.036-.108-.077A.093.093,0,0,1,375.6,74a.087.087,0,0,1-.062.031h-.107a.126.126,0,0,1-.047.077.5.5,0,0,0,.008.078.534.534,0,0,1,.008.076v.047a.045.045,0,0,1-.016.03c-.031.083-.093.1-.184.062a.042.042,0,0,0-.031.015.571.571,0,0,1-.4-.261.282.282,0,0,1-.124.077.1.1,0,0,1-.123-.031l-.031-.124a.148.148,0,0,1-.108.047h-.062a.108.108,0,0,1-.092-.093,3.43,3.43,0,0,1-.093-.486c-.021-.17-.041-.337-.061-.5a5.407,5.407,0,0,1-.1-.993q-.024-.671-.016-1.418t.023-1.425c.01-.453.026-.791.047-1.018v-.74q-.031-.647-.024-1.279t.039-1.279v-.077c0,.011.01.016.031.016q.122-.123.2.077V65a4.977,4.977,0,0,0,0,.785l.062-.354a.032.032,0,0,1,.008-.024.03.03,0,0,0,.007-.023.168.168,0,0,0,.016-.077l.046-.17c.01,0,.026-.025.047-.076.01-.021.018-.031.023-.031s.013-.005.024-.016V65c.082-.082.144-.072.184.031v.031l.047-.247c.031-.082.079-.115.147-.1s.095.064.084.147v.092a.1.1,0,0,0,.031.024.091.091,0,0,1,.031.038h.015V65.3a2.14,2.14,0,0,1-.015.254c.02-.061.041-.121.061-.177s.041-.11.062-.162Zm-.816,3.282c.01-.246.02-.494.03-.74s.025-.5.046-.756c-.021.144-.038.293-.053.448s-.034.308-.054.461v.155Zm-.016,8.706.016-.015Zm.155-11.279a1.729,1.729,0,0,0-.008.278,1.122,1.122,0,0,1-.007.231,6.9,6.9,0,0,1,.139-.848.5.5,0,0,1-.031-.123,2.118,2.118,0,0,0-.047.231,2.252,2.252,0,0,1-.046.231m.154,7.828a.384.384,0,0,0,.016.139Zm.37-.093a.062.062,0,0,0-.016.047l-.062.215.047.093.046-.2a.605.605,0,0,0,.008-.17c-.006-.062-.008-.124-.008-.185Zm.031-.308a.033.033,0,0,1,.007-.023.031.031,0,0,0,.008-.023v-.016Zm.446-5.717.031.477.046-.015.016-.417-.047-.4-.031-.123Zm.107-1.726c0-.02.005-.03.016-.03l.015-.139c-.01.031-.021.064-.031.1a.38.38,0,0,0-.015.1l.015.016Zm.555,2.682a.087.087,0,0,0,.016.061h.016a.067.067,0,0,0-.008-.03.077.077,0,0,1-.007-.031Zm.247.046a.432.432,0,0,0,.078-.008.519.519,0,0,1,.077-.007l-.155-.016Z" transform="translate(-155.316 -27.272)" fill="#656969"/>
      <path id="패스_41693" data-name="패스 41693" d="M67.843,34.9Z" transform="translate(-28.861 -14.848)" fill="#fdd081"/>
      <path id="패스_41694" data-name="패스 41694" d="M38.586,49.244a2.846,2.846,0,0,1-.072-.363l-.01-.048h0a34.466,34.466,0,0,1-.757-9.136,13.558,13.558,0,0,1,.762-4.589c.034-.088.056-.14.056-.14a.18.18,0,0,1,.111-.1l.016-.005H38.7a.421.421,0,0,1,.125-.015l-.178-.023a3.052,3.052,0,0,0-.658.083c-.077.016-.163.035-.263.057L1.805,42.945a7.557,7.557,0,0,0-.973.252l-.417.119a33.06,33.06,0,0,0,0,10.493l.321-.016a3.067,3.067,0,0,0,.812-.039l.074-.009,36.3-4.322c.109-.013.2-.024.272-.036l.348-.044.452.027c-.062-.005-.115-.011-.16-.02-.114-.015-.216-.034-.244-.107" transform="translate(0 -14.812)" fill="#ffdb56"/>
      <path id="패스_41695" data-name="패스 41695" d="M129.079,46.784c-.114-.028-.254-.055-.429-.088L67.17,34.938l-.307-.056c-.01,0-.028-.006-.051-.01h0a.765.765,0,0,0-.08-.006.439.439,0,0,0-.124.014l-.021.006a.185.185,0,0,0-.111.1s-.022.051-.056.14a13.566,13.566,0,0,0-.762,4.589h0a34.442,34.442,0,0,0,.757,9.136h0l.01.048a2.748,2.748,0,0,0,.072.363c.028.074.13.092.244.107.045.008.1.014.161.02l.129.01c.4.034.894.051.9.051l60.66,3.419a3.622,3.622,0,0,0,.691.005c-.856-2.265-.193-6.091-.193-6.092" transform="translate(-27.906 -14.832)" fill="#36ab9b"/>
      <path id="패스_41696" data-name="패스 41696" d="M70.064,19.568a5.45,5.45,0,0,1-.118-.537h0c-1.562-7.413-.4-15.5.042-18.053C70,.93,70,.884,70.012.839h0c.008-.044.016-.086.023-.126h0q.033-.181.056-.305h0c.005-.027.01-.052.014-.075v0c0-.022.008-.043.011-.06v0c0-.016.006-.031.009-.044s0-.012,0-.018l0-.019v0l.005-.026a.125.125,0,0,1,.073-.088.358.358,0,0,1,.188,0c.022,0,.047.007.071.013h0L70.119,0a2.392,2.392,0,0,0-.684.172c-.173.057-.387.135-.655.233l-31.923,11.7-.119.044-.33.123s-.772,5.21.019,8.726l.525-.118,16.7-3.852L69.091,19.87l.026,0h.005l.263.047,1.008.179-.038-.007c-.11-.02-.2-.23-.272-.459Z" transform="translate(-15.344 0)" fill="#ffdb56"/>
      <path id="패스_41697" data-name="패스 41697" d="M94.851,20.134l.038.007,1.245.222c.136.025.282.051.445.079l.1.017h0l50.335,8.815a11.2,11.2,0,0,0,1.238.179,21.127,21.127,0,0,1,.213-8.655,7.781,7.781,0,0,0-.849-.36l-46.5-17.983,46.532,9.353c1.334.269,1.334.269,1.334-.827v-.52c0-1.05,0-1.05-1.149-1.247L95,.122l-.026,0L94.9.105a.36.36,0,0,0-.189,0,.124.124,0,0,0-.072.088s0,.009-.006.026v0l0,.019,0,.018L94.615.3v0L94.6.367v0c0,.022-.009.047-.014.074v0q-.024.124-.057.3h0c-.007.04-.015.082-.022.126h0c-.007.044-.016.09-.024.138h0c-.445,2.559-1.6,10.64-.041,18.053h0s.163,1.018.41,1.062" transform="translate(-39.84 -0.039)" fill="#36ab9b"/>
      <path id="패스_41698" data-name="패스 41698" d="M160.776,72.694c-.2-.029-.445-.051-.758-.078l-48.081-4.137s-.292-.03-.6-.043l-.066,0c-.062,0-.124,0-.182,0h-.253c-.125,0-.165.055-.179.088l0,.006,0,.006h0l-.006.02h0l-.021.078,0,.007c0,.011-.006.022-.009.034l0,.011a.313.313,0,0,0-.009.035l-.005.017c0,.011-.005.023-.009.036a.194.194,0,0,1-.007.024.277.277,0,0,1-.009.034c0,.021-.01.043-.016.066h0c-.006.023-.011.047-.017.072l0,.018c0,.02-.009.04-.014.06s0,.018-.006.027-.009.038-.014.059l-.007.029c0,.021-.009.043-.014.064s0,.019-.006.029-.01.045-.015.07l-.007.03c-.006.024-.01.049-.016.075,0,.01,0,.02-.007.03-.005.027-.011.054-.017.082a.29.29,0,0,1-.006.029c-.005.03-.011.061-.018.093l0,.022c-.007.038-.015.076-.022.115v.005c-.033.17-.066.355-.1.554l0,.017c-.007.044-.015.087-.022.132l0,.027c-.007.042-.014.085-.02.128l0,.031c-.006.043-.013.086-.02.129,0,.011,0,.022,0,.034-.006.043-.013.087-.018.13,0,.013,0,.025,0,.037-.007.045-.012.09-.018.135l-.005.035c-.006.049-.011.1-.018.148l0,.025-.021.176h0q-.032.278-.057.577v.007c-.006.061-.011.123-.016.186,0,.012,0,.024,0,.036l-.011.163,0,.048c0,.051-.006.1-.01.156l0,.053c0,.051-.006.1-.01.154,0,.019,0,.038,0,.057,0,.051-.006.1-.008.155,0,.019,0,.039,0,.057l-.007.161c0,.018,0,.036,0,.055l-.005.172,0,.046-.005.2v.024c0,.226,0,.459,0,.695,0,.016,0,.032,0,.048,0,.061,0,.123,0,.185l0,.069c0,.055,0,.111,0,.167,0,.026,0,.053,0,.08,0,.053,0,.106.006.159l0,.086.007.157.005.088.009.157c0,.03,0,.06.006.09,0,.053.007.107.01.161,0,.029,0,.057.007.087,0,.056.009.113.014.17,0,.027,0,.053.006.08l0,.024a18.037,18.037,0,0,0,.6,3.517.446.446,0,0,0,.066.142c.065.121.134.2.207.209h0a.076.076,0,0,0,.023,0h49c.318,0,.573,0,.778-.012h0a19.255,19.255,0,0,1,.072-7.518" transform="translate(-46.771 -29.111)" fill="#36ab9b"/>
      <path id="패스_41699" data-name="패스 41699" d="M78.577,79.993a.446.446,0,0,1-.066-.142,18.037,18.037,0,0,1-.6-3.517l0-.024-.007-.08c0-.057-.009-.114-.013-.17,0-.029,0-.058-.006-.087,0-.054-.007-.108-.011-.161,0-.03,0-.06-.006-.09,0-.053-.006-.105-.009-.157,0-.03,0-.059,0-.088,0-.052-.005-.105-.007-.157l0-.085c0-.053,0-.106-.006-.159,0-.026,0-.053,0-.08,0-.056,0-.111,0-.167l0-.069c0-.062,0-.124,0-.185,0-.016,0-.032,0-.048,0-.236,0-.468,0-.695,0-.008,0-.016,0-.024,0-.066,0-.132,0-.2l0-.046.005-.172c0-.018,0-.037,0-.055,0-.054,0-.108.006-.161,0-.019,0-.038,0-.057,0-.052.005-.1.008-.156,0-.019,0-.038,0-.057,0-.051.006-.1.009-.153l0-.053.01-.156,0-.047.012-.163c0-.012,0-.024,0-.036.005-.063.01-.125.016-.186V72.1q.027-.3.058-.576h0c.007-.06.014-.118.021-.176,0-.009,0-.017,0-.026.006-.049.012-.1.018-.148,0-.012,0-.024,0-.035L78.042,71l.005-.037c.006-.044.012-.087.018-.13,0-.011,0-.023,0-.034l.019-.129c0-.01,0-.021,0-.031.006-.043.013-.086.02-.128l0-.027c.007-.045.014-.088.021-.132l0-.017c.033-.2.065-.384.1-.554V69.78l.022-.115,0-.022c.006-.032.012-.063.018-.093,0-.01,0-.02.006-.029l.017-.082c0-.01,0-.02.006-.03l.016-.074.007-.031c.005-.024.01-.047.015-.07s0-.019.006-.028l.014-.064.007-.029c0-.02.009-.04.013-.059s0-.018.006-.027.01-.041.014-.061l0-.018c.006-.025.012-.049.017-.072h0l.016-.066.009-.034.006-.024.009-.036a.164.164,0,0,0,0-.016l.009-.035,0-.011c0-.012.006-.024.01-.034l0-.007.021-.078h0a.163.163,0,0,1,.006-.02h0l0-.006,0-.006c.014-.033.055-.09.18-.088h.252l-.507-.028-.531,0h0c-.088,0-.19.01-.308.019l-41.24,2.918c-.376.026-.659.047-.873.083l-.652.106s-.938,5.512,0,8.693H77.117c.163,0,.306,0,.433,0h1.234c-.073-.014-.143-.089-.207-.209" transform="translate(-14.65 -29.09)" fill="#ffdb56"/>
    </g>
  </g>
</svg>
