<svg xmlns="http://www.w3.org/2000/svg" width="96" height="97" viewBox="-0.418 0.133 96 97" xml:space="preserve"><path fill="none" stroke="#525151" stroke-width="5.5" stroke-linecap="round" stroke-linejoin="round" stroke-miterlimit="10" d="M92.814 90.043a4.223 4.223 0 0 1-4.222 4.223H6.972a4.224 4.224 0 0 1-4.222-4.223v-76.81a4.223 4.223 0 0 1 4.222-4.222h81.621a4.222 4.222 0 0 1 4.222 4.222v76.81z"/><path fill="#525151" d="M4.308 20.034h87.693v5.244H4.308z"/><path fill="#3BAC37" d="M35.182 13.513a4.223 4.223 0 0 1-4.224 4.222h-5.912a4.222 4.222 0 0 1-4.222-4.222V4.222A4.223 4.223 0 0 1 25.046 0h5.912a4.224 4.224 0 0 1 4.224 4.222v9.291zM74.739 13.513a4.222 4.222 0 0 1-4.222 4.222h-5.911a4.222 4.222 0 0 1-4.223-4.222V4.222A4.223 4.223 0 0 1 64.606 0h5.911a4.222 4.222 0 0 1 4.222 4.222v9.291zM76.98 40.119a4.223 4.223 0 0 0-5.953.474L48.6 66.909l-13.97-15.16a4.239 4.239 0 0 0-3.104-1.359 4.21 4.21 0 0 0-2.861 1.117 4.229 4.229 0 0 0-.244 5.967l17.195 18.661a4.238 4.238 0 0 0 3.106 1.361l.082-.001a4.222 4.222 0 0 0 3.131-1.483l25.52-29.94a4.228 4.228 0 0 0-.475-5.953z"/></svg>