<svg id="그룹_68699" data-name="그룹 68699" xmlns="http://www.w3.org/2000/svg" xmlns:xlink="http://www.w3.org/1999/xlink" width="129.52" height="134.826" viewBox="0 0 129.52 134.826">
  <defs>
    <clipPath id="clip-path">
      <rect id="사각형_23686" data-name="사각형 23686" width="129.52" height="134.826" fill="none"/>
    </clipPath>
  </defs>
  <g id="그룹_68698" data-name="그룹 68698" clip-path="url(#clip-path)">
    <path id="패스_99510" data-name="패스 99510" d="M190.875,81.735a19.29,19.29,0,1,1-12.394-24.3,19.29,19.29,0,0,1,12.394,24.3" transform="translate(-98.96 -36.48)" fill="#fb0"/>
    <path id="패스_99511" data-name="패스 99511" d="M168.967,93.475A21.24,21.24,0,1,1,189.183,78.79a21.151,21.151,0,0,1-20.216,14.684m.027-38.583a17.352,17.352,0,1,0,5.341.849,17.374,17.374,0,0,0-5.341-.849" transform="translate(-95.414 -32.933)"/>
    <path id="패스_99512" data-name="패스 99512" d="M46.751,217.731l15.116-46.582A24.2,24.2,0,0,1,92.349,155.6l8.8,2.855A33.83,33.83,0,0,1,116.711,169a9.393,9.393,0,0,0,8.9,3.235c6.388-1.155,6.378-.5,14.506-7.52a10.634,10.634,0,0,1,14.834,15.195c-8.418,9.026-14.664,17.933-41.916,14.576l-9.652,27.242" transform="translate(-30.193 -99.723)" fill="#fb0"/>
    <path id="패스_99513" data-name="패스 99513" d="M101.843,218.813l-3.673-1.3L108.344,188.8l1.552.191c24.619,3.034,31.166-4.089,38.745-12.338.5-.542,1-1.087,1.508-1.633a8.484,8.484,0,0,0,2.278-6.225,8.7,8.7,0,0,0-14.415-6.167c-7.481,6.464-8.541,6.791-13.65,7.654-.537.091-1.126.19-1.783.309a11.369,11.369,0,0,1-10.745-3.906,31.837,31.837,0,0,0-14.668-9.934l-8.8-2.855a22.248,22.248,0,0,0-28.028,14.295L45.225,214.768l-3.706-1.2,15.116-46.583a26.143,26.143,0,0,1,32.937-16.8l8.8,2.855a35.728,35.728,0,0,1,16.46,11.148,7.469,7.469,0,0,0,7.057,2.564c.674-.122,1.278-.224,1.828-.317,4.42-.746,4.882-.824,11.752-6.76a12.6,12.6,0,0,1,20.854,8.936A12.35,12.35,0,0,1,153,177.673q-.753.808-1.489,1.612c-7.8,8.493-15.186,16.523-40.535,13.75Z" transform="translate(-26.814 -96.159)"/>
    <path id="패스_99514" data-name="패스 99514" d="M5.556,5.5H64.273V136.43H5.5" transform="translate(-3.552 -3.552)" fill="#fff"/>
    <path id="패스_99515" data-name="패스 99515" d="M60.721,134.826H1.948a1.948,1.948,0,0,1,0-3.9H58.773V3.9H2A1.948,1.948,0,0,1,2,0H60.721a1.948,1.948,0,0,1,1.948,1.948v130.93a1.948,1.948,0,0,1-1.948,1.948"/>
    <path id="패스_99516" data-name="패스 99516" d="M41.927,126.658h2.006v-4.51H45.9v12.728H43.933v-6.641H41.955c-.208,2.421-1.529,3.9-3.293,3.9-1.95,0-3.348-1.757-3.334-4.58-.014-2.781,1.384-4.538,3.334-4.538,1.709,0,3,1.384,3.265,3.639m-4.69.9c-.014,1.84.581,2.767,1.425,2.767.872,0,1.425-.927,1.425-2.767,0-1.812-.554-2.739-1.425-2.739-.844,0-1.439.927-1.425,2.739" transform="translate(-22.815 -78.885)"/>
    <path id="패스_99517" data-name="패스 99517" d="M77.121,127.154H73.191v1.217a25.156,25.156,0,0,0,5.133-.387l.208,1.591a30.538,30.538,0,0,1-6.157.4H71.241V125.7h3.915v-1.134H71.227V123h5.894Zm4.413,7.513H72.61v-3.929H74.6v2.338h6.931Zm-.318-3.127H79.238v-9.353h1.978Z" transform="translate(-46 -78.91)"/>
    <path id="패스_99518" data-name="패스 99518" d="M111.638,127.557c-.014,2.822-1.453,4.58-3.376,4.58-1.965,0-3.4-1.757-3.4-4.58,0-2.781,1.439-4.538,3.4-4.538,1.923,0,3.362,1.757,3.376,4.538m-4.842,0c-.014,1.84.567,2.767,1.467,2.767.872,0,1.453-.927,1.453-2.767,0-1.812-.581-2.739-1.453-2.739-.9,0-1.48.927-1.467,2.739m8.4,7.319h-2.006V122.147h2.006Z" transform="translate(-67.72 -78.884)"/>
    <path id="패스_99519" data-name="패스 99519" d="M11.791,178.531H.211V176.94H4.97v-.927H1.678v-4.967h1.95v1.065H8.346v-1.065h1.965v4.967H6.976v.927h4.815Zm-1.4,4.9H8.4v-2.587H1.5v-1.563h8.9Zm-2.048-9.865H3.629v.885H8.346Z" transform="translate(-0.136 -110.464)"/>
    <path id="패스_99520" data-name="패스 99520" d="M42.268,172.636H34.742v-1.563h2.767v-1.121H39.5v1.121h2.767Zm-.609,2.532c0,1.356-1.3,2.255-3.154,2.241-1.868.014-3.182-.885-3.168-2.241-.014-1.356,1.3-2.255,3.168-2.255s3.154.9,3.154,2.255m-3.21,3.625h4.427v-.858H44.87v4.649h-8.4v-4.649H38.45Zm-1.176-3.625c0,.553.5.8,1.231.8s1.259-.249,1.259-.8c0-.526-.512-.8-1.259-.8s-1.231.277-1.231.8m5.6,5.133H38.45v.733h4.427Zm1.992-7.277h1.646v1.646H44.87v2.809H42.877v-7.457H44.87Z" transform="translate(-22.437 -109.758)"/>
    <path id="패스_99521" data-name="패스 99521" d="M80.921,178.906H76.272v2.061H74.307v-2.061H69.313v-1.578H80.921Zm-1.273,4.718H70.627v-3.708h1.992v2.117h7.028Zm-.208-7.195h-8.7v-4.76h8.7Zm-6.751-1.536h4.8v-1.688h-4.8Z" transform="translate(-44.763 -110.867)"/>
    <path id="패스_99522" data-name="패스 99522" d="M106.533,179.168v-1a2.416,2.416,0,0,1-2.145-2.282c0-1.411,1.3-2.394,3.154-2.394s3.154.983,3.154,2.394a2.427,2.427,0,0,1-2.172,2.282v.927c.947-.042,1.9-.124,2.795-.249l.138,1.439a41.9,41.9,0,0,1-7.679.525l-.249-1.618c.893,0,1.923,0,3-.028m4.732-6.088h-7.5v-1.563h2.767V170.23h1.992v1.286h2.739Zm-4.981,2.809c-.014.595.5.885,1.259.9.747-.013,1.245-.3,1.245-.9s-.5-.885-1.245-.885-1.273.3-1.259.885m7.637-.651h1.536v1.633h-1.536v5.977H111.9v-12.7h2.02Z" transform="translate(-66.862 -109.884)"/>
    <path id="패스_99523" data-name="패스 99523" d="M80.98,226.351H69.469v-1.6h4.165v-2.158H75.6v2.158H80.98Zm-1.287,3.1c-.014,1.508-1.771,2.421-4.552,2.407-2.767.014-4.552-.9-4.552-2.407,0-1.536,1.785-2.421,4.552-2.421s4.538.885,4.552,2.421m-.055-8.716a11.977,11.977,0,0,1-.36,3.4l-1.965-.18a11.1,11.1,0,0,0,.332-2.7h-6.9v-1.55h8.9Zm-7.056,8.716c-.014.623.9.9,2.56.913,1.646-.014,2.573-.29,2.573-.913s-.927-.955-2.573-.941c-1.66-.014-2.574.3-2.56.941" transform="translate(-44.864 -141.892)"/>
    <path id="패스_99524" data-name="패스 99524" d="M104.426,226.019l-.816-1.563c2.76-.754,4.261-2.117,4.552-3.749h-4v-1.619h6.2c0,3.486-2.075,5.88-5.935,6.931m9.8,4.621h-8.744v-4.386h2.02v2.795h6.724Zm-.387-9.035h1.646v1.632h-1.646v3.943h-2.02v-9.035h2.02Z" transform="translate(-66.913 -140.883)"/>
  </g>
</svg>
