<svg xmlns="http://www.w3.org/2000/svg" width="20" height="20" viewBox="-1.925 -0.731 20 20" xml:space="preserve"><path fill="#F5CE23" d="M.299 3.821h5.017v14.417H.299z"/><path fill="#040000" d="M5.316 18.539H.299A.3.3 0 0 1 0 18.238V3.821a.3.3 0 0 1 .299-.299h5.017a.3.3 0 0 1 .299.299v14.417a.3.3 0 0 1-.299.301zm-4.718-.6h4.419V4.12H.598v13.819z"/><path fill="#FFF" d="M.326 3.716 5.452.299h4.545L5.218 3.711z"/><path fill="#040000" d="M.326 4.015a.3.3 0 0 1-.167-.548L5.286.05A.308.308 0 0 1 5.452 0h4.544a.3.3 0 0 1 .174.542L5.392 3.955a.295.295 0 0 1-.174.055l-4.892.005zM5.543.598 1.315 3.416l3.807-.002L9.064.599H5.543z"/><path fill="#F5CE23" d="M10.002.348 5.261 3.71l.055 14.528 4.673-3.752z"/><path fill="#040000" d="M5.316 18.539a.285.285 0 0 1-.129-.031.292.292 0 0 1-.17-.268L4.962 3.711c0-.098.046-.188.126-.245L9.832.105a.3.3 0 0 1 .472.246l-.016 14.136c0 .09-.041.176-.111.232l-4.672 3.754a.314.314 0 0 1-.189.066zm.245-14.675.053 13.752 4.077-3.275L9.705.928 5.561 3.864z"/><path fill="#54BA98" d="M6.145 3.821h5.018v14.417H6.145z"/><path fill="#040000" d="M11.163 18.539H6.145a.3.3 0 0 1-.299-.301V3.821a.3.3 0 0 1 .299-.299h5.018c.166 0 .299.134.299.299v14.417a.3.3 0 0 1-.299.301zm-4.719-.6h4.419V4.12H6.444v13.819z"/><path fill="#FFF" d="M6.186 3.759 11.25.347h4.6l-4.736 3.412z"/><path fill="#040000" d="M11.114 4.059H6.186a.3.3 0 0 1-.167-.548L11.083.1a.302.302 0 0 1 .168-.052h4.6a.298.298 0 0 1 .174.541l-4.736 3.412a.292.292 0 0 1-.175.058zM7.165 3.46h3.854L14.925.647h-3.582L7.165 3.46z"/><path fill="#54BA98" d="m15.85.347-4.736 3.412v14.479l4.72-3.754z"/><path fill="#040000" d="M11.114 18.539a.285.285 0 0 1-.129-.031.296.296 0 0 1-.17-.27V3.759c0-.096.047-.186.123-.242L15.676.105a.299.299 0 0 1 .473.243l-.016 14.136a.295.295 0 0 1-.113.234l-4.719 3.754a.304.304 0 0 1-.187.067zm.299-14.626v13.706l4.123-3.279.016-13.408-4.139 2.981z"/><path fill="#FAFAFB" d="M12.45 5.784v2.665l2.508-2.038V3.816z"/></svg>