<svg xmlns="http://www.w3.org/2000/svg" width="32" height="32" viewBox="0 0 32 32">
  <g id="그룹_67294" data-name="그룹 67294" transform="translate(-1111 7555)">
    <circle id="타원_31" data-name="타원 31" cx="16" cy="16" r="16" transform="translate(1111 -7555)" fill="#FFF5B2"/>
    <path id="trophy-star" d="M11.318,12C16.247,11.973,18,9.363,18,7.125a2.629,2.629,0,0,0-2.074-2.564c.1-.29.19-.556.25-.758a2.914,2.914,0,0,0-.469-2.593A2.985,2.985,0,0,0,13.3,0H4.7A2.987,2.987,0,0,0,2.292,1.21,2.915,2.915,0,0,0,1.823,3.8c.06.2.148.468.25.758A2.628,2.628,0,0,0,0,7.126C0,9.364,1.754,11.974,6.682,12a3.8,3.8,0,0,1,.068.693V15a1.412,1.412,0,0,1-1.5,1.5H4.5a.75.75,0,0,0,0,1.5h9a.75.75,0,1,0,0-1.5h-.744A1.414,1.414,0,0,1,11.25,15v-2.31A3.794,3.794,0,0,1,11.318,12Zm4.021-6.005c.013,0,.023.008.036.008A1.126,1.126,0,0,1,16.5,7.125c0,1.526-1.207,3.148-4.527,3.352a3.666,3.666,0,0,1,.571-.616,11.35,11.35,0,0,0,2.794-3.869ZM1.5,7.125A1.126,1.126,0,0,1,2.625,6c.013,0,.023-.007.035-.008a11.363,11.363,0,0,0,2.8,3.869,3.637,3.637,0,0,1,.572.616C2.707,10.273,1.5,8.651,1.5,7.125Zm5.844.2a.536.536,0,0,1-.2-.617l.389-1.2-1.025-.75a.551.551,0,0,1,.325-.995H8.092l.383-1.195a.554.554,0,0,1,1.05,0l.383,1.195h1.261a.551.551,0,0,1,.325,1l-1.024.75.389,1.2a.551.551,0,0,1-.851.613L9,6.579l-1.008.74a.546.546,0,0,1-.648,0Z" transform="translate(1118 -7548.001)" fill="#329689"/>
  </g>
</svg>
