<?xml version="1.0" encoding="utf-8"?>
<svg version="1.1" id="Layer_1" xmlns="http://www.w3.org/2000/svg" xmlns:xlink="http://www.w3.org/1999/xlink" x="0px" y="0px" width="16px" height="16px" viewBox="0 0 16 16" enable-background="new 0 0 16 16" xml:space="preserve">
<g>
	<g>
		<path fill="#333333" d="M13.646,8.333c-0.324,0-0.588,0.302-0.588,0.672v5.649h-2.822V9.006c0-0.371-0.266-0.672-0.59-0.672H6.353
			c-0.324,0-0.588,0.302-0.588,0.672v5.649H2.941V9.006c0-0.371-0.264-0.672-0.588-0.672S1.765,8.635,1.765,9.006v6.321
			C1.765,15.698,2.029,16,2.353,16h4c0.324,0,0.588-0.302,0.588-0.673V9.679h2.118v5.648C9.059,15.698,9.322,16,9.646,16h4
			c0.326,0,0.59-0.302,0.59-0.673V9.006C14.236,8.635,13.973,8.333,13.646,8.333z"/>
		<path fill="#333333" d="M15.795,7.42L8.414,0.158c-0.213-0.209-0.553-0.21-0.766-0.002L0.207,7.419
			c-0.12,0.116-0.192,0.279-0.205,0.458C-0.01,8.056,0.039,8.23,0.141,8.367c0.111,0.15,0.274,0.236,0.447,0.236
			c0.14,0,0.275-0.057,0.382-0.161l7.058-6.888l7.001,6.887c0.105,0.105,0.242,0.163,0.383,0.163c0.172,0,0.334-0.085,0.445-0.234
			C16.07,8.088,16.041,7.663,15.795,7.42z"/>
	</g>
</g>
</svg>
