<svg id="그룹_68360" data-name="그룹 68360" xmlns="http://www.w3.org/2000/svg" xmlns:xlink="http://www.w3.org/1999/xlink" width="119.822" height="122.796" viewBox="0 0 119.822 122.796">
  <defs>
    <clipPath id="clip-path">
      <rect id="사각형_23551" data-name="사각형 23551" width="119.822" height="122.796" fill="none"/>
    </clipPath>
  </defs>
  <g id="그룹_68359" data-name="그룹 68359" clip-path="url(#clip-path)">
    <path id="패스_98632" data-name="패스 98632" d="M128.569,253.409H18.1a1.89,1.89,0,0,1-1.83-2.361l1.293-5.027A1.891,1.891,0,0,1,19.39,244.6H127.276a1.89,1.89,0,0,1,1.831,1.42l1.292,5.027a1.89,1.89,0,0,1-1.831,2.361M20.536,249.628h105.6l-.32-1.247H20.856Z" transform="translate(-10.637 -160.535)"/>
    <path id="패스_98633" data-name="패스 98633" d="M52.342,81.786l.736,55.063H47.7l.724-55.063h3.922Z" transform="translate(-31.303 -53.678)"/>
    <path id="패스_98634" data-name="패스 98634" d="M88.078,81.665l.738,55.369H83.4l.728-55.369Z" transform="translate(-54.74 -53.598)"/>
    <path id="패스_98635" data-name="패스 98635" d="M124.528,81.665l.742,55.369h-5.412l.728-55.369Z" transform="translate(-78.665 -53.598)"/>
    <path id="패스_98636" data-name="패스 98636" d="M160.991,81.665l.741,55.369h-5.411l.728-55.369Z" transform="translate(-102.596 -53.598)"/>
    <path id="패스_98637" data-name="패스 98637" d="M197.445,81.665l.743,55.369h-5.413l.729-55.369Z" transform="translate(-126.522 -53.598)"/>
    <path id="패스_98638" data-name="패스 98638" d="M233.909,81.665l.741,55.369h-5.41l.728-55.369Z" transform="translate(-150.453 -53.598)"/>
    <path id="패스_98639" data-name="패스 98639" d="M270.367,81.665l.74,55.369h-5.412l.729-55.369Z" transform="translate(-174.38 -53.598)"/>
    <path id="패스_98640" data-name="패스 98640" d="M306.823,81.665l.742,55.369h-5.412l.728-55.369Z" transform="translate(-198.307 -53.598)"/>
    <path id="패스_98641" data-name="패스 98641" d="M127.277,70.58H19.391a1.89,1.89,0,0,1-1.83-1.419l-1.294-5.028A1.89,1.89,0,0,1,18.1,61.772H128.569a1.89,1.89,0,0,1,1.831,2.36l-1.291,5.028a1.891,1.891,0,0,1-1.831,1.42M20.857,66.8H125.811l.32-1.247H20.536Z" transform="translate(-10.637 -40.542)"/>
    <path id="패스_98642" data-name="패스 98642" d="M132.52,243.037H30.738a1.89,1.89,0,0,1-1.831-2.361l.759-2.946a1.89,1.89,0,0,1,1.83-1.419H131.763a1.891,1.891,0,0,1,1.831,1.419l.757,2.946a1.89,1.89,0,0,1-1.831,2.361" transform="translate(-18.933 -155.095)"/>
    <path id="패스_98643" data-name="패스 98643" d="M156.023,27.095H139.137a1.89,1.89,0,0,1-1.817-1.371,15.815,15.815,0,0,0-6.352-8.732,15.811,15.811,0,0,0-6.351,8.732,1.891,1.891,0,0,1-1.818,1.371H105.913a1.89,1.89,0,0,1-1.847-2.293,27.54,27.54,0,0,1,53.8,0,1.891,1.891,0,0,1-1.847,2.293m-15.517-3.781h13.046a23.759,23.759,0,0,0-45.168,0H121.43a19.585,19.585,0,0,1,8.6-10.186,1.89,1.89,0,0,1,1.871,0,19.591,19.591,0,0,1,8.6,10.186" transform="translate(-68.272 -2.069)"/>
    <path id="패스_98644" data-name="패스 98644" d="M5.659,146.554S2.877,160.91,22,176.532c0,0,7.573,4.254,3.776,14.619L22.222,201.28s4.825,6.307,29.026,4.226a61.983,61.983,0,0,0,1.276-9.483s-.628-11.515,9.447-12.1c0,0,7.428-.144,9.033,11.389,0,0-.308,10.1,2.026,11.062l24.913.2s2.69-2.7,1.667-8.829c0,0-1.885-13.933-1.885-20.723,0,0-.215-26.667-41.832-23.984,0,0-15.365,1.937-22.7-17.884,0,0-1.829-7.411-13.545-3.468,0,0-3.177,1.314-4.161-.549L11,133.033a5.954,5.954,0,0,1-1.355,4.716,19.9,19.9,0,0,0-3.987,8.8" transform="translate(-3.621 -85.672)" fill="#fb0"/>
    <path id="패스_98645" data-name="패스 98645" d="M94.322,204.853h-.015l-24.913-.2a1.894,1.894,0,0,1-.708-.144c-1.77-.733-2.682-2.973-3.049-7.487-.191-2.356-.161-4.589-.147-5.212-1.331-9.163-6.571-9.588-7.095-9.608a7.135,7.135,0,0,0-6.74,4.947,14.377,14.377,0,0,0-.864,5.166,1.969,1.969,0,0,1,0,.207,63.447,63.447,0,0,1-1.323,9.8,1.889,1.889,0,0,1-1.679,1.453c-24.522,2.111-30.131-4.231-30.689-4.961a1.89,1.89,0,0,1-.282-1.775l3.557-10.129c3.177-8.674-2.68-12.206-2.931-12.352a2.062,2.062,0,0,1-.258-.177C-2.436,158.354.02,143.441.179,142.6a21.72,21.72,0,0,1,4.39-9.668l.036-.042a4.04,4.04,0,0,0,.916-3.128,1.866,1.866,0,0,1,1.125-2.082l4.485-1.892a1.891,1.891,0,0,1,2.384.818,3.7,3.7,0,0,0,1.79-.274c.04-.016.079-.031.12-.045,4.961-1.669,9.006-1.676,12.022-.019a8.156,8.156,0,0,1,3.925,4.7c6.7,18,20.1,16.656,20.673,16.59.032,0,.074-.008.106-.01C68.2,146.5,80.236,149.6,87.907,156.732A24.747,24.747,0,0,1,95.993,173.4c0,6.457,1.771,19.76,1.865,20.457,1.136,6.871-1.853,10.1-2.2,10.445a1.89,1.89,0,0,1-1.338.555m-24.146-3.978,23.188.189c.54-.945,1.354-3.059.76-6.62,0-.019-.006-.038-.009-.058-.078-.574-1.9-14.138-1.9-20.976a21.353,21.353,0,0,0-6.944-13.97c-6.878-6.349-17.922-9.084-32.832-8.13a20.5,20.5,0,0,1-9.495-1.649C38.254,147.7,31.823,143.075,27.8,132.2a1.9,1.9,0,0,1-.062-.2,4.44,4.44,0,0,0-2.181-2.457c-2.014-1.065-5.08-.958-8.87.308a5.9,5.9,0,0,1-5.264-.083l-2.094.884a7.8,7.8,0,0,1-1.865,4.714A17.993,17.993,0,0,0,3.9,143.271l0,.017a19.6,19.6,0,0,0,1.03,8.487c1.5,4.725,5.233,11.949,14.535,19.582,3.111,1.845,7.857,7.588,4.472,16.829l-3.116,8.874c2.007,1.325,8.512,4.312,25.242,3.061a63.529,63.529,0,0,0,.951-7.72c-.214-4.663,1.849-13.435,11.23-13.98.037,0,.059,0,.123,0a9.262,9.262,0,0,1,4.968,1.7c2.192,1.5,5,4.677,5.924,11.319a1.855,1.855,0,0,1,.017.318c-.116,3.86.3,7.866.9,9.121M2.038,142.939h0Z" transform="translate(0 -82.057)"/>
    <path id="패스_98646" data-name="패스 98646" d="M30.127,173.679a4.21,4.21,0,1,1-4.21-4.21,4.21,4.21,0,0,1,4.21,4.21" transform="translate(-14.247 -111.225)" fill="#fff"/>
    <path id="패스_98647" data-name="패스 98647" d="M31.877,177.352a2.287,2.287,0,1,1-2.288-2.287,2.287,2.287,0,0,1,2.288,2.287" transform="translate(-17.919 -114.898)"/>
    <path id="패스_98648" data-name="패스 98648" d="M67.823,173.679a4.21,4.21,0,1,1-4.21-4.21,4.21,4.21,0,0,1,4.21,4.21" transform="translate(-38.987 -111.225)" fill="#fff"/>
    <path id="패스_98649" data-name="패스 98649" d="M69.573,177.352a2.287,2.287,0,1,1-2.287-2.287,2.287,2.287,0,0,1,2.287,2.287" transform="translate(-42.659 -114.898)"/>
    <path id="패스_98650" data-name="패스 98650" d="M35.209,169.233c-.153.573-1.866.612-3.826.088s-3.424-1.414-3.27-1.987,1.866-.613,3.825-.088,3.424,1.414,3.271,1.987" transform="translate(-18.444 -109.525)" fill="#a57600"/>
    <path id="패스_98651" data-name="패스 98651" d="M57.237,169.233c.153.573,1.866.612,3.826.088s3.424-1.414,3.27-1.987-1.866-.613-3.826-.088-3.424,1.414-3.271,1.987" transform="translate(-37.558 -109.525)" fill="#a57600"/>
    <path id="패스_98652" data-name="패스 98652" d="M48.446,188.383c0,1.218-1.94,2.205-4.334,2.205s-4.334-.987-4.334-2.205,1.94-2.205,4.334-2.205,4.334.987,4.334,2.205" transform="translate(-26.107 -122.192)" fill="#a57600"/>
    <path id="패스_98653" data-name="패스 98653" d="M32.185,199.678h2.3l.845,3.136Z" transform="translate(-21.123 -131.052)" fill="#fff"/>
    <path id="패스_98654" data-name="패스 98654" d="M35,202.658a.173.173,0,0,1-.121-.05l-3.145-3.136a.172.172,0,0,1,.122-.294h2.3a.172.172,0,0,1,.166.127l.845,3.136a.172.172,0,0,1-.166.217m-2.729-3.136,2.4,2.39-.644-2.39Z" transform="translate(-20.796 -130.724)" fill="#fff"/>
    <path id="패스_98655" data-name="패스 98655" d="M67.262,199.678h-2.3l-.845,3.136Z" transform="translate(-42.081 -131.052)" fill="#fff"/>
    <path id="패스_98656" data-name="패스 98656" d="M63.788,202.658a.171.171,0,0,1-.166-.217l.845-3.136a.171.171,0,0,1,.166-.127h2.3a.172.172,0,0,1,.121.294l-3.145,3.136a.173.173,0,0,1-.122.05m.976-3.136-.644,2.39,2.4-2.39Z" transform="translate(-41.752 -130.724)" fill="#fff"/>
  </g>
</svg>
