<svg id="그룹_68675" data-name="그룹 68675" xmlns="http://www.w3.org/2000/svg" xmlns:xlink="http://www.w3.org/1999/xlink" width="117.025" height="91" viewBox="0 0 117.025 91">
  <defs>
    <clipPath id="clip-path">
      <rect id="사각형_23679" data-name="사각형 23679" width="117.025" height="91" fill="none"/>
    </clipPath>
  </defs>
  <g id="그룹_68674" data-name="그룹 68674" clip-path="url(#clip-path)">
    <path id="패스_99131" data-name="패스 99131" d="M22.711,6A16.71,16.71,0,0,0,6,22.71V60.843a16.71,16.71,0,0,0,16.71,16.71h3.44a1.638,1.638,0,0,1,1.638,1.637V91.468a1.637,1.637,0,0,0,2.8,1.158L47.819,78.033a1.635,1.635,0,0,1,1.157-.479h53.447a16.71,16.71,0,0,0,16.71-16.71V22.71A16.71,16.71,0,0,0,102.423,6Z" transform="translate(-4.054 -4.054)" fill="#fb0"/>
    <path id="패스_99132" data-name="패스 99132" d="M25.376,91a3.588,3.588,0,0,1-3.588-3.585V75.446H18.657A18.678,18.678,0,0,1,0,56.789V18.656A18.678,18.678,0,0,1,18.657,0H98.369a18.677,18.677,0,0,1,18.656,18.656V56.789A18.678,18.678,0,0,1,98.369,75.446H45.044l-.021.019L27.838,90.016A3.573,3.573,0,0,1,25.376,91M18.657,3.893A14.781,14.781,0,0,0,3.893,18.656V56.789A14.781,14.781,0,0,0,18.657,71.553H22.1a3.588,3.588,0,0,1,3.584,3.584v11.6l16.775-14.2a3.606,3.606,0,0,1,2.465-.983H98.369a14.78,14.78,0,0,0,14.763-14.764V18.656A14.78,14.78,0,0,0,98.369,3.893ZM22.1,75.446h0Z"/>
    <path id="패스_99133" data-name="패스 99133" d="M102.468,101.342l3.151,3.895h-4.609l-1.665-2.021a11.181,11.181,0,0,1-3.776.624c-5.8,0-10.227-3.984-10.227-11.06,0-7.106,4.43-11.06,10.227-11.06,5.768,0,10.227,3.954,10.227,11.06,0,3.79-1.263,6.674-3.329,8.562m-4.519-5.471,1.4,1.724a7.982,7.982,0,0,0,1.278-4.816c0-4.282-1.9-6.6-5.054-6.6s-5.054,2.319-5.054,6.6,1.9,6.6,5.054,6.6a5.966,5.966,0,0,0,.892-.059l-2.646-3.449Z" transform="translate(-57.657 -55.209)"/>
    <path id="패스_99134" data-name="패스 99134" d="M162.663,114.935h-5.024V98.791H162.4v2.943h.178a4.94,4.94,0,0,1,4.905-3.151c3.389,0,5.619,2.408,5.589,6.065v10.287h-4.994V105.6c0-1.813-.981-2.914-2.646-2.914a2.692,2.692,0,0,0-2.765,3Z" transform="translate(-106.499 -66.601)"/>
    <path id="패스_99135" data-name="패스 99135" d="M211.883,104.161,219.2,82.636h6.719l7.284,21.525h-5.441L226.3,99.553H218.81l-1.457,4.608Zm13.2-8.473-2.438-7.73h-.178l-2.438,7.73Z" transform="translate(-143.145 -55.828)"/>
  </g>
</svg>
