<svg xmlns="http://www.w3.org/2000/svg" width="25" height="25" viewBox="-0.391 -0.4 25 25" xml:space="preserve"><path fill="#FFF" d="M3.612 18.295c-.287.179-.7.295-1.054.295C1.477 18.59.6 17.644.6 16.476c0-1.022.672-1.875 1.563-2.072 0 0 .382-.094.654.045 0 .42.215 2.079.795 3.846z"/><path fill="#454444" d="M2.558 19.191C1.148 19.191 0 17.973 0 16.476c0-1.278.853-2.395 2.029-2.656a1.88 1.88 0 0 1 .42-.047c.242 0 .458.047.642.143.2.101.326.308.326.533 0 .294.184 1.887.764 3.66a.599.599 0 0 1-.253.696 2.738 2.738 0 0 1-1.37.386zm-.3-4.193c-.615.157-1.057.771-1.057 1.479 0 .835.609 1.516 1.357 1.516.099 0 .209-.015.318-.041a18.467 18.467 0 0 1-.618-2.954z"/><path fill="#FFF" d="M20.408 18.295c.286.179.698.295 1.052.295 1.082 0 1.958-.946 1.958-2.114 0-1.022-.669-1.875-1.563-2.072 0 0-.382-.094-.653.045-.001.42-.215 2.079-.794 3.846z"/><path fill="#454444" d="M21.459 19.191c-.459 0-.984-.146-1.369-.386a.599.599 0 0 1-.253-.696c.58-1.773.764-3.366.764-3.66 0-.226.125-.433.327-.533.183-.096.399-.143.642-.143.204 0 .37.035.42.047 1.175.262 2.028 1.378 2.028 2.656 0 1.497-1.147 2.715-2.559 2.715zm-.316-1.24c.109.026.218.041.316.041.748 0 1.358-.681 1.358-1.516 0-.708-.441-1.321-1.056-1.479a18.648 18.648 0 0 1-.618 2.954z"/><path fill="#454444" d="M11.943 24.4c-2.605 0-5.053-1.038-6.893-2.92-1.835-1.878-2.845-4.376-2.845-7.031 0-.038.003-.077.011-.113.003-.666.148-3.574 2.325-5.833 1.717-1.782 4.233-2.684 7.479-2.684 3.773 0 6.513.996 8.145 2.958 1.957 2.355 1.59 5.257 1.516 5.72-.013 2.637-1.021 5.115-2.844 6.981-1.839 1.884-4.288 2.922-6.894 2.922zm-8.537-9.836c.061 4.773 3.868 8.635 8.537 8.635 4.708 0 8.538-3.927 8.538-8.753a.57.57 0 0 1 .011-.11c.003-.025.47-2.731-1.26-4.802-1.394-1.669-3.82-2.514-7.212-2.514-2.907 0-5.132.779-6.614 2.317-2.071 2.149-1.99 5.061-1.989 5.091a.56.56 0 0 1-.011.136z"/><path fill="#7C95CC" d="M16.065 13.323c.901-1.221.707-3.002.707-3.002-.51.845-4.834 2.734-4.834 2.734.375-1.011.579-2.843.579-2.843-.756 1.428-5.794 2.451-5.794 2.451.51-.582.872-3.085.872-3.085-4.063 2.327-4.777 4.871-4.777 4.871-.795-1.313-.979-3.709-.979-3.709C1.839 5.153 5.129.602 11.943.602c7.386 0 10.104 4.551 10.104 10.138-.059 2.585-.955 3.622-.955 3.622L20.7 11.21s-2.464 1.389-4.635 2.113z"/><path fill="#454444" d="M2.817 15.048a.597.597 0 0 1-.513-.288c-.859-1.42-1.056-3.871-1.063-3.975l-.002-.046c0-3.048.917-5.665 2.653-7.569C5.783 1.096 8.567 0 11.943 0c3.648 0 6.433 1.07 8.275 3.18.829.951 1.457 2.109 1.862 3.443.377 1.23.567 2.616.567 4.116v.015c-.062 2.722-.994 3.875-1.1 3.999a.606.606 0 0 1-.63.183.604.604 0 0 1-.422-.501l-.283-2.281c-.916.477-2.49 1.25-3.958 1.738a.6.6 0 0 1-.675-.925c.303-.408.457-.903.534-1.351-.402.251-.946.552-1.681.924-1.147.578-2.211 1.044-2.256 1.064a.6.6 0 0 1-.802-.76c.121-.328.225-.755.308-1.176-.561.302-1.279.592-2.163.875-1.37.439-2.624.697-2.677.706a.597.597 0 0 1-.571-.981c.146-.166.328-.759.484-1.453-1.315.911-2.122 1.794-2.591 2.429-.604.814-.768 1.361-.77 1.367-.065.23-.26.4-.497.434a1.03 1.03 0 0 1-.08.003zm-.378-4.333c.014.167.12 1.276.425 2.302.658-1.033 1.958-2.544 4.432-3.961a.602.602 0 0 1 .893.606c-.056.385-.206 1.322-.446 2.144.418-.107.914-.246 1.42-.408 2.289-.736 2.741-1.31 2.823-1.468a.602.602 0 0 1 .708-.293c.275.085.45.354.419.641a21.4 21.4 0 0 1-.267 1.701c.315-.149.671-.32 1.031-.502 2.066-1.041 2.355-1.426 2.381-1.467a.6.6 0 0 1 1.111.246c.007.056.1.973-.163 1.993 1.665-.7 3.18-1.55 3.199-1.561a.6.6 0 0 1 .889.448l.077.613c.04-.304.068-.642.075-1.015-.002-4.351-1.653-9.532-9.503-9.532-6.994-.001-9.495 4.908-9.504 9.513zM11.943 22.075c-1.298 0-2.354-.966-2.354-2.154a.6.6 0 0 1 1.201 0c0 .527.518.953 1.154.953.637 0 1.155-.426 1.155-.953a.6.6 0 0 1 1.201 0c-.002 1.188-1.057 2.154-2.357 2.154z"/><path fill="#454444" d="M9.003 17.223a.602.602 0 0 1-.6-.602.808.808 0 0 0-1.615 0 .602.602 0 0 1-.6.602.602.602 0 0 1-.601-.602c0-1.106.901-2.008 2.008-2.008a2.01 2.01 0 0 1 2.008 2.008.602.602 0 0 1-.6.602zM17.699 17.223a.602.602 0 0 1-.6-.602.809.809 0 0 0-1.616 0 .602.602 0 0 1-.601.602.603.603 0 0 1-.6-.602c0-1.106.9-2.008 2.01-2.008a2.01 2.01 0 0 1 2.006 2.008.6.6 0 0 1-.599.602z"/></svg>