<svg id="그룹_68549" data-name="그룹 68549" xmlns="http://www.w3.org/2000/svg" xmlns:xlink="http://www.w3.org/1999/xlink" width="130" height="126.495" viewBox="0 0 130 126.495">
  <defs>
    <clipPath id="clip-path">
      <rect id="사각형_23633" data-name="사각형 23633" width="130" height="126.495" fill="none"/>
    </clipPath>
  </defs>
  <g id="그룹_68549-2" data-name="그룹 68549" clip-path="url(#clip-path)">
    <path id="패스_98963" data-name="패스 98963" d="M224.274,6a9.522,9.522,0,0,0-9.522,9.521V37.25a9.522,9.522,0,0,0,9.522,9.522h1.96a.933.933,0,0,1,.933.933v7a.933.933,0,0,0,1.593.66l9.82-8.315a.931.931,0,0,1,.659-.273H253a9.522,9.522,0,0,0,9.521-9.522V15.521A9.521,9.521,0,0,0,253,6Z" transform="translate(-154.992 -4.33)" fill="#fb0"/>
    <path id="패스_98964" data-name="패스 98964" d="M223.773,52.973a2.606,2.606,0,0,1-2.605-2.6V44.11h-1.224a11.2,11.2,0,0,1-11.191-11.191V11.19A11.2,11.2,0,0,1,219.943,0h28.724A11.2,11.2,0,0,1,259.858,11.19V32.919A11.2,11.2,0,0,1,248.667,44.11H235.185l-9.636,8.159a2.6,2.6,0,0,1-1.776.7M219.943,3.338a7.861,7.861,0,0,0-7.852,7.852V32.919a7.861,7.861,0,0,0,7.852,7.852h1.96a2.606,2.606,0,0,1,2.6,2.6v5.4l8.625-7.3a2.619,2.619,0,0,1,1.778-.7h13.758a7.861,7.861,0,0,0,7.852-7.852V11.19a7.861,7.861,0,0,0-7.852-7.852ZM221.9,44.11h0Z" transform="translate(-150.661 0.001)"/>
    <path id="패스_98965" data-name="패스 98965" d="M336.14,190.656a9.033,9.033,0,0,1,9.033,9.033V219.8a9.033,9.033,0,0,1-9.033,9.033h-1.718a.874.874,0,0,0-.874.873v6.55a.873.873,0,0,1-1.491.618l-9.194-7.785a.872.872,0,0,0-.617-.256H309.484a9.033,9.033,0,0,1-9.033-9.033V199.689a9.033,9.033,0,0,1,9.033-9.033Z" transform="translate(-216.843 -137.601)" fill="#fb0"/>
    <path id="패스_98966" data-name="패스 98966" d="M328.343,234.466a2.534,2.534,0,0,1-1.734-.686l-8.99-7.612H305.154a10.715,10.715,0,0,1-10.7-10.7V195.359a10.715,10.715,0,0,1,10.7-10.7H331.81a10.715,10.715,0,0,1,10.7,10.7v20.107a10.715,10.715,0,0,1-10.7,10.7h-.922v5.754a2.547,2.547,0,0,1-2.546,2.545m-8.692-10.954,7.9,6.688v-4.829a2.546,2.546,0,0,1,2.543-2.543h1.718a7.371,7.371,0,0,0,7.363-7.363V195.359A7.371,7.371,0,0,0,331.81,188H305.154a7.372,7.372,0,0,0-7.363,7.363v20.107a7.372,7.372,0,0,0,7.363,7.363h12.762a2.562,2.562,0,0,1,1.735.684" transform="translate(-212.512 -133.271)"/>
    <path id="패스_98967" data-name="패스 98967" d="M24.992,207.857a4.761,4.761,0,0,1-1.823-.368,4.612,4.612,0,0,1-2.892-4.328V192.255H17.953A17.974,17.974,0,0,1,0,174.3V130.687a17.974,17.974,0,0,1,17.953-17.954H50.32a1.67,1.67,0,0,1,0,3.339H17.953A14.631,14.631,0,0,0,3.339,130.687V174.3a14.631,14.631,0,0,0,14.614,14.615h2.589a3.078,3.078,0,0,1,3.074,3.074v11.172a1.345,1.345,0,0,0,2.3.951l14.3-14.3a3.052,3.052,0,0,1,2.174-.9H68.241a14.712,14.712,0,0,0,13.633-9.338,1.67,1.67,0,0,1,3.114,1.206,18.073,18.073,0,0,1-16.747,11.471H42.494L28.275,206.473a4.618,4.618,0,0,1-3.282,1.384" transform="translate(0 -81.362)"/>
    <path id="패스_98968" data-name="패스 98968" d="M275.467,62.412a9.682,9.682,0,1,1,9.683-9.682,9.693,9.693,0,0,1-9.683,9.682m0-16.3a6.621,6.621,0,1,0,6.622,6.621,6.629,6.629,0,0,0-6.622-6.621" transform="translate(-191.823 -31.068)"/>
    <path id="패스_98969" data-name="패스 98969" d="M365.2,243.308a1.526,1.526,0,0,1-1.082-.448l-14.61-14.61a1.53,1.53,0,0,1,2.164-2.164l14.61,14.61a1.531,1.531,0,0,1-1.082,2.613" transform="translate(-251.923 -162.848)"/>
    <path id="패스_98970" data-name="패스 98970" d="M350.588,243.308a1.531,1.531,0,0,1-1.082-2.613l14.61-14.61a1.53,1.53,0,0,1,2.164,2.164l-14.61,14.61a1.526,1.526,0,0,1-1.082.448" transform="translate(-251.923 -162.848)"/>
    <path id="패스_98971" data-name="패스 98971" d="M83.92,185.3a1.875,1.875,0,0,1-1.9,1.9H80.949v-5.957h-.922v3.6a2.324,2.324,0,0,1-.6,1.661,2.125,2.125,0,0,1-1.625.637H75.036a2.125,2.125,0,0,1-1.625-.637,2.323,2.323,0,0,1-.6-1.661v-8.841a2.317,2.317,0,0,1,.6-1.669,2.139,2.139,0,0,1,1.625-.629H77.8a2.14,2.14,0,0,1,1.625.629,2.318,2.318,0,0,1,.6,1.669v2.884h.922v-5.138H83.92Zm-8.138-1.171a.844.844,0,0,0,.146.593.53.53,0,0,0,.38.139h.22a.532.532,0,0,0,.381-.139.846.846,0,0,0,.146-.593v-7.406a.844.844,0,0,0-.146-.6.548.548,0,0,0-.381-.132h-.22a.547.547,0,0,0-.38.132.842.842,0,0,0-.146.6Z" transform="translate(-52.549 -125.371)"/>
    <path id="패스_98972" data-name="패스 98972" d="M131.87,182.372a.918.918,0,0,1-.307.724,1.194,1.194,0,0,1-.82.271H128.9V181.8l-.176.029a8.132,8.132,0,0,1-1.6.146h-5.269a.91.91,0,0,1-.644-.205.821.821,0,0,1-.22-.629v-4.318h4.186v-.659h-3.425a.919.919,0,0,1-.622-.176.771.771,0,0,1-.2-.6V173.9h7.216V178.3a.748.748,0,0,1-.2.593.95.95,0,0,1-.622.168h-3.366v.644h3.352a7.779,7.779,0,0,0,1.156-.117q.2-.044.424-.073v-5.65h2.971Zm-9.5,4.947a.993.993,0,0,1-.71-.242.889.889,0,0,1-.256-.68V182.5h2.986v2.532h7.523V186.4a.876.876,0,0,1-.263.68,1.021,1.021,0,0,1-.717.242Z" transform="translate(-87.282 -125.485)"/>
    <path id="패스_98973" data-name="패스 98973" d="M168.116,176.009a2.316,2.316,0,0,1,.6-1.669,2.139,2.139,0,0,1,1.625-.629h2.766a2.141,2.141,0,0,1,1.625.629,2.318,2.318,0,0,1,.6,1.669v8.841a2.324,2.324,0,0,1-.6,1.661,2.126,2.126,0,0,1-1.625.637h-2.766a2.124,2.124,0,0,1-1.625-.637,2.322,2.322,0,0,1-.6-1.661Zm2.971,8.123a.844.844,0,0,0,.146.593.529.529,0,0,0,.38.139h.22a.53.53,0,0,0,.381-.139.847.847,0,0,0,.146-.593v-7.406a.844.844,0,0,0-.146-.6.547.547,0,0,0-.381-.132h-.22a.546.546,0,0,0-.38.132.841.841,0,0,0-.146.6Zm8.035,1.171a1.875,1.875,0,0,1-1.9,1.9h-1.069V173.755h2.971Z" transform="translate(-121.333 -125.371)"/>
    <path id="패스_98974" data-name="패스 98974" d="M95.05,244.882a1.014,1.014,0,0,1-.7-.213.877.877,0,0,1-.234-.68v-1.361h4.874v-.571H95.708a.932.932,0,0,1-.644-.2.8.8,0,0,1-.219-.622v-4.3h11.095v1.42a.821.821,0,0,1-.22.629.911.911,0,0,1-.644.205H97.787v.615H106v1.434a.8.8,0,0,1-.22.622.933.933,0,0,1-.644.2h-3.176v.571h4.713v1.361a.877.877,0,0,1-.234.68,1.015,1.015,0,0,1-.7.213Zm10.9,4.537a.908.908,0,0,1-.337.724,1.2,1.2,0,0,1-.805.285h-1.829v-2.9H95.65a.983.983,0,0,1-.644-.183.79.79,0,0,1-.22-.637v-1.449h11.168Z" transform="translate(-67.924 -171.001)"/>
    <path id="패스_98975" data-name="패스 98975" d="M146.2,248.125a3.653,3.653,0,0,1-1.661,1.537,5.106,5.106,0,0,1-2.349.717v-2.4a2.82,2.82,0,0,0,1.691-1.12,4.9,4.9,0,0,0,.768-3.067V237H147.7v6.791a5.133,5.133,0,0,0,.724,3.067,2.66,2.66,0,0,0,1.662,1.12v2.4a4.771,4.771,0,0,1-2.291-.717,3.678,3.678,0,0,1-1.6-1.537m7.7.41a1.875,1.875,0,0,1-1.9,1.9h-1.068v-7.143h-1.8a.826.826,0,0,1-.6-.227.788.788,0,0,1-.234-.593v-1.537h2.635v-3.952H153.9Z" transform="translate(-102.619 -171.038)"/>
    <path id="패스_98976" data-name="패스 98976" d="M79.247,312.636a5.6,5.6,0,0,1-2.142.382,4.905,4.905,0,0,1-5.1-4.949q-.066-1.179-.066-2.532t.066-2.466a5.152,5.152,0,0,1,1.544-3.562,4.9,4.9,0,0,1,3.554-1.387,4.716,4.716,0,0,1,3.578,1.42,5.457,5.457,0,0,1,1.486,3.545q.083,1.179.083,2.474t-.083,2.524a5.575,5.575,0,0,1-1.146,3.222L82.9,313.35H79.845Zm-.382-4.915q.066-1.029.075-2.333t-.025-2.051a3.946,3.946,0,0,0-.515-1.827,1.436,1.436,0,0,0-1.3-.8,1.489,1.489,0,0,0-1.262.714,3.644,3.644,0,0,0-.565,1.91q-.05.847-.041,2.3t.041,2.15a3.738,3.738,0,0,0,.556,1.918,1.478,1.478,0,0,0,1.27.723,1.64,1.64,0,0,0,.233-.017L75.544,308.3h2.707l.465.515a9.017,9.017,0,0,0,.149-1.1" transform="translate(-51.922 -215.163)"/>
    <path id="패스_98977" data-name="패스 98977" d="M123.76,312.168a5.631,5.631,0,0,1-7.514,0,4.874,4.874,0,0,1-1.461-3.628v-9.582h3.387v9.465a3.03,3.03,0,0,0,.532,1.918,1.6,1.6,0,0,0,1.3.672,1.637,1.637,0,0,0,1.32-.672,3,3,0,0,0,.54-1.918v-9.465h3.354v9.582a4.889,4.889,0,0,1-1.453,3.628" transform="translate(-82.843 -215.765)"/>
    <path id="패스_98978" data-name="패스 98978" d="M159.36,299.017h3.371v13.218a1.031,1.031,0,0,1-.4.838,1.431,1.431,0,0,1-.93.324H159.36Z" transform="translate(-115.014 -215.808)"/>
    <path id="패스_98979" data-name="패스 98979" d="M185.7,313.108a1.191,1.191,0,0,1-.863.291h-7.074a1.191,1.191,0,0,1-.864-.291,1.141,1.141,0,0,1-.3-.855v-1.079l4.949-8.519q.182-.282.332-.506t.4-.573a2.8,2.8,0,0,1-.49.041c-.094-.006-.247-.008-.457-.008H177.8a1.051,1.051,0,0,1-.722-.216.893.893,0,0,1-.241-.7v-1.677H186v2.176l-5,8.618a5.74,5.74,0,0,1-.307.49q-.158.224-.39.54.332-.033.465-.033H186v1.445a1.141,1.141,0,0,1-.3.855" transform="translate(-127.46 -215.808)"/>
  </g>
</svg>
