<?xml version="1.0" encoding="UTF-8"?>
<svg xmlns="http://www.w3.org/2000/svg" version="1.1" viewBox="0 0 28 28">
  <!-- Generator: Adobe Illustrator 28.6.0, SVG Export Plug-In . SVG Version: 1.2.0 Build 709)  -->
  <g>
    <g id="Layer_1">
      <g id="_그룹_67446" data-name="그룹_67446">
        <g id="user">
          <path id="_패스_21935" data-name="패스_21935" d="M13.1,16.4c-6.9.4-12.2,4.7-12.1,9.6v.3c0,1,1.1,1.8,2.4,1.8h0c1.3,0,1.4-.8,1.4-1.8v-.3c0-3.1,4.1-5.7,8.3-6.1,4.5-.3,9.5,2,9.9,5.2,0,.2,0,.4,0,.6v.6c0,.1,0,.3,0,.4,0,.6,0,1.3,1.4,1.3h0c1.3,0,2.4-.8,2.4-1.8v-.6c0-5.2-5.8-9.3-13-9.3-.3,0-.6,0-.9,0Z"/>
          <path id="_패스_21936" data-name="패스_21936" d="M14,14c3.9,0,7-3.1,7-7S17.9,0,14,0s-7,3.1-7,7,3.1,7,7,7ZM14,3.5c1.9,0,3.5,1.6,3.5,3.5s-1.6,3.5-3.5,3.5-3.5-1.6-3.5-3.5,1.6-3.5,3.5-3.5Z"/>
        </g>
      </g>
    </g>
  </g>
</svg>