<svg id="그룹_68552" data-name="그룹 68552" xmlns="http://www.w3.org/2000/svg" xmlns:xlink="http://www.w3.org/1999/xlink" width="122" height="85.774" viewBox="0 0 122 85.774">
  <defs>
    <clipPath id="clip-path">
      <rect id="사각형_23634" data-name="사각형 23634" width="122" height="85.774" fill="none"/>
    </clipPath>
  </defs>
  <g id="그룹_68551" data-name="그룹 68551" clip-path="url(#clip-path)">
    <path id="패스_98980" data-name="패스 98980" d="M94.939,136.278H3.348A3.364,3.364,0,0,1,0,132.906V71.848a1.681,1.681,0,1,1,3.363,0v61.057l91.577.01-.015-42.259a1.681,1.681,0,1,1,3.363,0v42.25a3.364,3.364,0,0,1-3.348,3.372" transform="translate(0 -50.504)"/>
    <path id="패스_98981" data-name="패스 98981" d="M100.926,34.627a1.681,1.681,0,0,0-1.667-1.691H7.668A1.681,1.681,0,0,0,6,34.627v9.957l79.925.466" transform="translate(-4.319 -23.706)" fill="#fb0"/>
    <path id="패스_98982" data-name="패스 98982" d="M81.606,42.414H81.6L1.672,41.947A1.682,1.682,0,0,1,0,40.266V30.308a3.364,3.364,0,0,1,3.348-3.372H94.939a3.364,3.364,0,0,1,3.348,3.372,1.681,1.681,0,1,1-3.363,0,.019.019,0,0,0-.005-.015L3.348,30.3l.012,8.3,78.256.456a1.681,1.681,0,0,1-.01,3.363" transform="translate(0 -19.388)"/>
    <path id="패스_98983" data-name="패스 98983" d="M221.727,77.7a1.681,1.681,0,0,1-1.516-2.408l6.495-13.544a1.681,1.681,0,0,1,.532-.637L261.03,36.723a1.682,1.682,0,0,1,2.342.371l8.219,11.243a1.681,1.681,0,0,1-.374,2.356l-34.08,24.555a1.687,1.687,0,0,1-.736.3l-14.425,2.138a1.712,1.712,0,0,1-.247.018m7.826-14.113-4.941,10.3L235.5,72.28l32.375-23.326-6.233-8.527Z" transform="translate(-158.382 -26.203)"/>
    <path id="패스_98984" data-name="패스 98984" d="M252.4,138.656a1.682,1.682,0,0,1-1.554-1.039l-2.346-5.675-5.2-4.511a1.682,1.682,0,0,1,2.2-2.54l5.5,4.771a1.687,1.687,0,0,1,.452.628l2.5,6.042a1.682,1.682,0,0,1-1.553,2.325" transform="translate(-174.705 -89.596)"/>
    <path id="패스_98985" data-name="패스 98985" d="M389.212,32.784a1.682,1.682,0,0,1-1.362-.695L379.7,20.841a1.681,1.681,0,0,1,.375-2.348l4.17-3.023a1.682,1.682,0,0,1,2.348.374l8.153,11.249a1.682,1.682,0,0,1-.375,2.348l-4.17,3.023a1.683,1.683,0,0,1-.987.32m-5.805-12.555,6.18,8.526,1.447-1.049-6.18-8.526Z" transform="translate(-273.063 -10.905)"/>
    <path id="패스_98986" data-name="패스 98986" d="M56.7,10.52a1.541,1.541,0,0,1-1.541-1.541V1.541a1.541,1.541,0,0,1,3.083,0V8.979A1.541,1.541,0,0,1,56.7,10.52" transform="translate(-39.701)"/>
    <path id="패스_98987" data-name="패스 98987" d="M86.437,10.52A1.541,1.541,0,0,1,84.9,8.979V1.541a1.541,1.541,0,1,1,3.083,0V8.979a1.542,1.542,0,0,1-1.541,1.541" transform="translate(-61.105)"/>
    <path id="패스_98988" data-name="패스 98988" d="M255.461,10.52a1.542,1.542,0,0,1-1.541-1.541V1.541a1.541,1.541,0,1,1,3.083,0V8.979a1.541,1.541,0,0,1-1.541,1.541" transform="translate(-182.763)"/>
    <path id="패스_98989" data-name="패스 98989" d="M285.2,10.52a1.542,1.542,0,0,1-1.541-1.541V1.541a1.541,1.541,0,1,1,3.083,0V8.979A1.541,1.541,0,0,1,285.2,10.52" transform="translate(-204.168)"/>
    <path id="패스_98990" data-name="패스 98990" d="M133.087,151.362a1.683,1.683,0,0,1-1.252-.559l-10.652-11.886a1.681,1.681,0,1,1,2.5-2.245l9.262,10.335,15.372-21.188a1.681,1.681,0,0,1,2.722,1.975l-16.6,22.874a1.681,1.681,0,0,1-1.274.692l-.087,0" transform="translate(-86.915 -90.06)"/>
  </g>
</svg>
