<svg id="그룹_68384" data-name="그룹 68384" xmlns="http://www.w3.org/2000/svg" xmlns:xlink="http://www.w3.org/1999/xlink" width="109.958" height="114.208" viewBox="0 0 109.958 114.208">
  <defs>
    <clipPath id="clip-path">
      <rect id="사각형_23562" data-name="사각형 23562" width="109.958" height="114.208" fill="none"/>
    </clipPath>
  </defs>
  <g id="그룹_68383" data-name="그룹 68383" clip-path="url(#clip-path)">
    <path id="패스_98682" data-name="패스 98682" d="M242.5,229.371a28.416,28.416,0,1,1-28.416-28.416A28.416,28.416,0,0,1,242.5,229.371" transform="translate(-134.065 -145.107)" fill="#fb0"/>
    <path id="패스_98683" data-name="패스 98683" d="M210.108,255.343A29.944,29.944,0,1,1,240.052,225.4a29.978,29.978,0,0,1-29.944,29.944m0-56.831A26.887,26.887,0,1,0,237,225.4a26.917,26.917,0,0,0-26.887-26.887" transform="translate(-130.094 -141.135)"/>
    <path id="패스_98684" data-name="패스 98684" d="M275.744,301.4h-3.136V282.7a1.674,1.674,0,0,0-1.7-1.639h-4.84a1.64,1.64,0,1,0,0,3.278H269.2V301.4h-3.135a1.64,1.64,0,1,0,0,3.278h9.681a1.64,1.64,0,1,0,0-3.278" transform="translate(-190.889 -202.947)"/>
    <path id="패스_98685" data-name="패스 98685" d="M46.519,106.579H4.89a1.628,1.628,0,0,1-1.627-1.628V5.56a2.3,2.3,0,0,1,2.3-2.3h47.8a.016.016,0,0,1,.016.016V26.756A1.646,1.646,0,0,0,55.018,28.4H78.5a.016.016,0,0,1,.016.016V46.066a1.678,1.678,0,0,0,1.429,1.689,1.633,1.633,0,0,0,1.833-1.619V26.772c0-.028,0-.054,0-.082s0-.046-.005-.072V26.61a1.634,1.634,0,0,0-.266-.744c-.013-.02-.027-.039-.043-.061l0-.005-.044-.057-.005-.007-.047-.054-.005-.006c-.018-.02-.037-.04-.056-.059L56.156.478,56.149.471,56.1.423,56.083.409,56.038.37,56.025.36l-.05-.039L55.966.315c-.041-.03-.083-.058-.141-.094a1.5,1.5,0,0,0-.663-.214h-.008L55.085,0,55,0H3.378A3.378,3.378,0,0,0,0,3.378V106.516a3.325,3.325,0,0,0,3.325,3.325H46.589a1.633,1.633,0,0,0,1.619-1.833,1.678,1.678,0,0,0-1.689-1.429M56.66,5.6,76.179,25.114a.015.015,0,0,1-.011.026H56.65a.016.016,0,0,1-.016-.016V5.606A.015.015,0,0,1,56.66,5.6"/>
    <path id="패스_98686" data-name="패스 98686" d="M127.214,130.752a1.631,1.631,0,0,0,0-3.262H106.125a1.631,1.631,0,1,0,0,3.262Z" transform="translate(-75.454 -92.059)"/>
    <path id="패스_98687" data-name="패스 98687" d="M54.645,184.252h8.594a1.631,1.631,0,0,0,0-3.262H54.645a1.631,1.631,0,0,0,0,3.262" transform="translate(-38.281 -130.69)"/>
    <path id="패스_98688" data-name="패스 98688" d="M152.454,182.621a1.633,1.633,0,0,0-1.631-1.631H131.531a1.631,1.631,0,0,0,0,3.262h19.292a1.633,1.633,0,0,0,1.631-1.631" transform="translate(-93.799 -130.69)"/>
    <path id="패스_98689" data-name="패스 98689" d="M71.837,220a1.633,1.633,0,0,0-1.631-1.631H54.645a1.631,1.631,0,0,0,0,3.262H70.206A1.633,1.633,0,0,0,71.837,220" transform="translate(-38.281 -157.682)"/>
    <path id="패스_98690" data-name="패스 98690" d="M151.932,220a1.633,1.633,0,0,0-1.631-1.631h-3.948a1.631,1.631,0,0,0,0,3.262H150.3A1.633,1.633,0,0,0,151.932,220" transform="translate(-104.501 -157.682)"/>
    <path id="패스_98691" data-name="패스 98691" d="M54.645,259.012h4.3a1.631,1.631,0,0,0,0-3.263h-4.3a1.631,1.631,0,0,0,0,3.263" transform="translate(-38.281 -184.673)"/>
    <path id="패스_98692" data-name="패스 98692" d="M110.638,259.012h9.29a1.631,1.631,0,0,0,0-3.263h-9.29a1.631,1.631,0,0,0,0,3.263" transform="translate(-78.712 -184.673)"/>
    <path id="패스_98693" data-name="패스 98693" d="M54.645,336.108H66.722a1.631,1.631,0,1,0,0-3.263H54.645a1.631,1.631,0,0,0,0,3.263" transform="translate(-38.281 -240.343)"/>
    <path id="패스_98694" data-name="패스 98694" d="M280.369,244a3.154,3.154,0,1,1-3.154-3.154A3.154,3.154,0,0,1,280.369,244" transform="translate(-197.896 -173.911)" fill="#231f20"/>
  </g>
</svg>
