<svg id="그룹_68557" data-name="그룹 68557" xmlns="http://www.w3.org/2000/svg" xmlns:xlink="http://www.w3.org/1999/xlink" width="110" height="115.14" viewBox="0 0 110 115.14">
  <defs>
    <clipPath id="clip-path">
      <rect id="사각형_23636" data-name="사각형 23636" width="110" height="115.14" fill="none"/>
    </clipPath>
  </defs>
  <g id="그룹_68556" data-name="그룹 68556" clip-path="url(#clip-path)">
    <path id="패스_98997" data-name="패스 98997" d="M116.1,85.368h17.232c6.6,0,9.621,3.149,11,6.034l14.126-10.508c.025-.018.05-.036.076-.053a48.651,48.651,0,0,1,4.417-2.6,41.412,41.412,0,1,0-67.752-2.13c.163,0,.327-.008.49-.008a28.081,28.081,0,0,1,20.406,9.27" transform="translate(-65.267 -8.859)" fill="#fb0"/>
    <path id="패스_98998" data-name="패스 98998" d="M148.177,384.745h-.338a1.44,1.44,0,1,0,0,2.88h3.194a1.408,1.408,0,0,0-.108-.132Z" transform="translate(-108.065 -284)"/>
    <path id="패스_98999" data-name="패스 98999" d="M243.741,340.195h-3.115c.517.018,1.036.03,1.557.03s1.04-.012,1.557-.03" transform="translate(-177.619 -251.116)"/>
    <path id="패스_99000" data-name="패스 99000" d="M42.9,283.285l.975.975a1.438,1.438,0,0,0,1.336-.282c.419-.355.88-.717,1.376-1.079l-2.06-2.06q-.623.471-1.178.942a1.438,1.438,0,0,0-.449,1.5" transform="translate(-31.627 -207.302)"/>
    <path id="패스_99001" data-name="패스 99001" d="M38.334,304.751a1.44,1.44,0,0,1,1.44-1.44h.337L14.964,278.163c-.5.362-.957.724-1.376,1.079a1.439,1.439,0,0,1-1.336.282L39.8,307.078l-7.151,7.151L3.476,285.051l7.151-7.152.65.649a1.438,1.438,0,0,1,.449-1.5c.369-.313.763-.628,1.178-.942l-1.258-1.258a1.44,1.44,0,0,0-2.036,0L.421,284.033a1.439,1.439,0,0,0,0,2.036l31.214,31.214a1.439,1.439,0,0,0,2.036,0L42.86,308.1a1.425,1.425,0,0,0,.108-1.9H39.774a1.44,1.44,0,0,1-1.44-1.44" transform="translate(0.001 -202.566)"/>
    <path id="패스_99002" data-name="패스 99002" d="M141.861,67.7A10.757,10.757,0,0,0,139,67.71a44.555,44.555,0,1,0-76.182-.126,31.943,31.943,0,0,0-13.531,5.955l2.06,2.06A28.881,28.881,0,0,1,64.563,70.25c.606-.067,1.217-.109,1.829-.122.139,0,.278-.007.417-.007.548,0,1.089.021,1.623.059a25.3,25.3,0,0,1,17.026,8.7,1.44,1.44,0,0,0,1.1.512h17.889c4.357,0,7.24,1.609,8.574,4.778.011.026.024.051.035.078a2.781,2.781,0,0,1,.208,1.321c-.005.061-.019.123-.029.184a3.444,3.444,0,0,1-1.119,1.939,5.759,5.759,0,0,1-3.932,1.389H102.5c-.517.018-1.036.03-1.557.03s-1.04-.012-1.557-.03H84.3a1.44,1.44,0,1,0,0,2.88h23.884c3.947,0,7.2-2.316,7.852-5.484a5.794,5.794,0,0,0,.1-.643c.007-.073.009-.145.013-.217l2.578-1.918,12.534-9.324q.818-.53,1.565-.991a29.111,29.111,0,0,1,3.63-1.953,9.3,9.3,0,0,1,5.038-.872c1.3.168,2.005,1.595,2.005,2.852a2.9,2.9,0,0,1-.875,2.09l-23.244,23.24c-1.056,1.056-2.531,2-8.894,2H76.489l2.748,2.748a1.334,1.334,0,0,1,.108.132h31.138c5.968,0,8.828-.745,10.931-2.847l23.244-23.241a5.8,5.8,0,0,0,1.719-4.126c0-2.485-1.583-5.33-4.516-5.709m-7.791,1.675a48.775,48.775,0,0,0-4.417,2.6c-.026.017-.051.035-.076.053L115.451,82.544c-1.383-2.885-4.4-6.034-11-6.034H87.215a28.081,28.081,0,0,0-20.406-9.27c-.164,0-.327,0-.49.008a41.413,41.413,0,1,1,67.752,2.13" transform="translate(-36.378 -0.001)"/>
    <path id="패스_99003" data-name="패스 99003" d="M192.113,221.476c-11.878,0-18.751-9.138-19.038-9.527a1.44,1.44,0,0,1,2.318-1.71c.1.132,6.36,8.357,16.72,8.357s16.4-8.254,16.457-8.337a1.44,1.44,0,0,1,2.347,1.668c-.277.39-6.91,9.549-18.8,9.549" transform="translate(-127.548 -154.756)" fill="#1a1a1a"/>
    <path id="패스_99004" data-name="패스 99004" d="M178.932,123.608a5.147,5.147,0,1,1-5.147-5.147,5.147,5.147,0,0,1,5.147,5.147" transform="translate(-124.48 -87.442)" fill="#1a1a1a"/>
    <path id="패스_99005" data-name="패스 99005" d="M293.406,123.608a5.147,5.147,0,1,1-5.147-5.147,5.147,5.147,0,0,1,5.147,5.147" transform="translate(-208.98 -87.442)" fill="#1a1a1a"/>
  </g>
</svg>
