<svg id="그룹_68381" data-name="그룹 68381" xmlns="http://www.w3.org/2000/svg" xmlns:xlink="http://www.w3.org/1999/xlink" width="157.888" height="131.271" viewBox="0 0 157.888 131.271">
  <defs>
    <clipPath id="clip-path">
      <rect id="사각형_23561" data-name="사각형 23561" width="157.888" height="131.271" fill="none"/>
    </clipPath>
  </defs>
  <g id="그룹_68380" data-name="그룹 68380" clip-path="url(#clip-path)">
    <path id="패스_98670" data-name="패스 98670" d="M242.62,267.175a1.8,1.8,0,0,1-1.8-1.74c-.411-12.051-7.06-21.524-20.328-28.961-13.316-7.465-32.817-12.659-59.617-15.882-20.659-2.484-28.175-4.478-30.931-8.206-1.557-2.106-1.391-4.476-1.023-6.517a1.8,1.8,0,0,1,3.545.638c-.336,1.869-.232,2.918.375,3.737,2.255,3.051,13.01,4.913,28.464,6.771,27.277,3.28,47.213,8.617,60.948,16.316,14.258,7.992,21.716,18.752,22.167,31.981a1.8,1.8,0,0,1-1.739,1.861h-.062" transform="translate(-86.534 -137.453)"/>
    <path id="패스_98671" data-name="패스 98671" d="M184.834,271.071a1.8,1.8,0,0,1-1.8-1.69,17.219,17.219,0,0,0-3.135-8.849,1.8,1.8,0,0,1,2.959-2.054,20.763,20.763,0,0,1,3.771,10.68,1.8,1.8,0,0,1-1.686,1.909c-.038,0-.076,0-.113,0m-11.152-17.162a1.794,1.794,0,0,1-1.027-.323,59.045,59.045,0,0,0-9.218-5.122,1.8,1.8,0,0,1,1.491-3.279,62.62,62.62,0,0,1,9.784,5.444,1.8,1.8,0,0,1-1.031,3.28m-19.694-9.265a1.8,1.8,0,0,1-.578-.1c-3.163-1.072-6.663-2.13-10.4-3.146a1.8,1.8,0,0,1,.944-3.476c3.811,1.035,7.383,2.115,10.615,3.21a1.8,1.8,0,0,1-.577,3.508m-21.179-5.829a1.809,1.809,0,0,1-.4-.046c-3.335-.762-6.939-1.528-10.715-2.279a1.8,1.8,0,1,1,.7-3.533c3.808.758,7.446,1.532,10.813,2.3a1.8,1.8,0,0,1-.4,3.558m-19.168-3.841a1.793,1.793,0,0,1-.446-.056c-1.832-.467-3.237-.91-4.864-1.423-.954-.3-1.941-.612-3.147-.971l-.313-.091c-.8-.231-2.287-.661-4.429-1.463a1.8,1.8,0,1,1,1.263-3.373c2.012.753,3.413,1.158,4.166,1.376l.34.1c1.234.367,2.28.7,3.2.988,1.575.5,2.936.925,4.671,1.367a1.8,1.8,0,0,1-.444,3.547m-19.765-6.217a1.8,1.8,0,0,1-.612-.108c-.135-.049-.281-.1-.436-.155-2-.7-5.734-2.014-7.24-5.244a8,8,0,0,1,.045-6.365A1.8,1.8,0,0,1,89,218.156a4.525,4.525,0,0,0-.15,3.572c.866,1.856,3.559,2.8,5.169,3.368l.466.165a1.8,1.8,0,0,1-.612,3.5" transform="translate(-57.13 -145.073)"/>
    <path id="패스_98672" data-name="패스 98672" d="M129.926,268.722a1.8,1.8,0,0,1-1.721-2.334,13.636,13.636,0,0,0-1.454-11.7c-3.748-6.017-14.188-14.132-42.639-18.621-16.483-2.6-26.306-7.122-30.032-13.823-3.2-5.764-1.3-11.981.713-16.752a1.8,1.8,0,1,1,3.318,1.4c-1.8,4.269-3.317,9.222-.883,13.6,3.108,5.59,12.341,9.633,27.444,12.016,23.585,3.721,39.192,10.732,45.136,20.275a17.1,17.1,0,0,1,1.838,14.674,1.8,1.8,0,0,1-1.72,1.269" transform="translate(-35.215 -137.451)"/>
    <path id="패스_98673" data-name="패스 98673" d="M2.225,97.391A1.8,1.8,0,0,1,.449,95.883,35.276,35.276,0,0,1,.458,84.565a1.8,1.8,0,0,1,1.274-1.39l.353-.1a9.55,9.55,0,0,1,1.165-.3l36.624-8.139.228-.049a3.567,3.567,0,0,1,1.275-.11l.181.023a1.8,1.8,0,0,1,.995,3.109,13.45,13.45,0,0,0-.517,3.639c0,.031,0,.062,0,.093a33.077,33.077,0,0,0,.646,8.368,1.8,1.8,0,0,1-1.285,3.164l-.293-.017-.162.021c-.074.011-.158.022-.254.034l-.051.006L3.594,97.323a5.522,5.522,0,0,1-1.11.058l-.17.009-.09,0m1.612-11.06a33.369,33.369,0,0,0-.053,7.341l35.191-4.191a35.83,35.83,0,0,1-.54-8.327,18.346,18.346,0,0,1,.213-2.559L4.032,86.288l-.195.043" transform="translate(0 -50.072)"/>
    <path id="패스_98674" data-name="패스 98674" d="M187.319,92.171c-.116-.028-.259-.055-.437-.089l-62.6-11.97-.313-.057c-.01,0-.028-.007-.052-.01h0c-.024,0-.052-.006-.082-.007a.428.428,0,0,0-.126.015l-.022.006a.19.19,0,0,0-.114.1s-.022.052-.056.142a13.815,13.815,0,0,0-.777,4.673h0a35.064,35.064,0,0,0,.771,9.3h0l.01.048a2.859,2.859,0,0,0,.074.369c.029.074.133.093.248.109.046.008.1.015.163.02l.131.01c.412.034.91.052.912.052l61.76,3.482a3.77,3.77,0,0,0,.7,0c-.872-2.307-.2-6.2-.2-6.2" transform="translate(-82.508 -53.826)" fill="#fb0"/>
    <path id="패스_98675" data-name="패스 98675" d="M183.6,96.49c-.177,0-.362-.01-.569-.021l-61.772-3.482c-.188-.007-.6-.026-.947-.054l-.17-.013c-.092-.008-.189-.02-.274-.033a1.966,1.966,0,0,1-1.652-1.247,1.822,1.822,0,0,1-.058-.18,4.325,4.325,0,0,1-.1-.5c-.006-.028-.011-.056-.016-.085a37.1,37.1,0,0,1-.795-9.646,15.477,15.477,0,0,1,.9-5.287c.042-.11.069-.173.069-.173a1.989,1.989,0,0,1,1.144-1.1l.051-.018c.037-.013.085-.027.128-.039a2.224,2.224,0,0,1,.622-.079h.037c.086,0,.169.01.238.018l.012,0,.027,0c.061.009.112.018.152.027l.286.052,62.612,11.973c.212.04.382.074.52.107a1.8,1.8,0,0,1,1.353,2.053c-.162.957-.458,3.769.107,5.263a1.8,1.8,0,0,1-1.374,2.411,3.026,3.026,0,0,1-.529.041m-62.182-7.1.038,0,60.16,3.391a18.3,18.3,0,0,1,.018-2.861L121.179,78.359a14.191,14.191,0,0,0-.335,2.885c0,.049,0,.1,0,.148a32.649,32.649,0,0,0,.575,8" transform="translate(-78.809 -50.126)"/>
    <path id="패스_98676" data-name="패스 98676" d="M253.657,155.364c-.2-.03-.453-.052-.771-.079l-48.953-4.213s-.3-.031-.609-.043l-.068,0c-.063,0-.126,0-.185,0h-.257c-.127,0-.169.056-.183.09a.018.018,0,0,0,0,.006l0,.006h0a.1.1,0,0,0-.006.021h0c-.006.018-.013.045-.023.079a.037.037,0,0,0,0,.008c0,.01-.007.023-.009.035a.112.112,0,0,0,0,.011c0,.011-.007.022-.009.035s0,.011,0,.017-.006.024-.009.036,0,.017-.007.025,0,.023-.009.035l-.016.066h0c-.006.024-.011.048-.019.073a.09.09,0,0,1,0,.019c0,.02-.009.041-.014.062l-.007.027c0,.02-.009.039-.013.059l-.007.029c0,.022-.009.043-.015.065s0,.019-.006.029-.01.047-.016.071,0,.021-.007.032l-.016.076c0,.01,0,.021-.006.03-.006.028-.012.055-.018.084,0,.01,0,.019-.006.029-.006.031-.012.063-.019.094l0,.023c-.008.039-.015.078-.023.118v0q-.051.261-.1.565v.016c-.008.045-.015.089-.022.135,0,.009,0,.019,0,.028-.007.043-.013.086-.02.13,0,.01,0,.021,0,.032-.007.042-.013.086-.019.131,0,.011,0,.023,0,.034-.007.044-.012.089-.019.133,0,.012,0,.025,0,.037-.007.045-.012.091-.018.137,0,.012,0,.024,0,.036-.006.05-.011.1-.018.151,0,.008,0,.017,0,.026-.008.059-.015.119-.022.18h0c-.021.189-.041.385-.058.587a.018.018,0,0,0,0,.008c-.006.063-.011.126-.016.189,0,.013,0,.025,0,.037,0,.055-.008.11-.012.166,0,.016,0,.032,0,.048l-.01.158c0,.018,0,.037,0,.054,0,.052-.006.1-.009.157,0,.019,0,.038,0,.058,0,.052-.005.1-.008.158,0,.019,0,.039,0,.058,0,.054,0,.109-.007.164,0,.018,0,.037,0,.056,0,.057,0,.117-.005.175,0,.016,0,.031,0,.047,0,.067,0,.134,0,.2v.025c0,.231-.006.467,0,.707,0,.017,0,.033,0,.048,0,.063,0,.126,0,.189,0,.024,0,.047,0,.07,0,.056,0,.113,0,.17,0,.027,0,.054,0,.081,0,.054,0,.108.005.162,0,.029,0,.058,0,.088,0,.053,0,.106.008.16,0,.029,0,.06,0,.09,0,.053.006.107.009.16,0,.03,0,.061.006.091,0,.054.008.11.011.164,0,.029,0,.058.006.088,0,.057.009.115.014.174,0,.028,0,.054.006.081a.168.168,0,0,1,0,.025,18.365,18.365,0,0,0,.609,3.581.451.451,0,0,0,.067.144c.066.123.137.2.211.213h0a.08.08,0,0,0,.023,0h49.886c.323,0,.583,0,.792-.012h0a19.6,19.6,0,0,1,.073-7.655" transform="translate(-135.783 -101.565)" fill="#fb0"/>
    <path id="패스_98677" data-name="패스 98677" d="M199.208,161.135a1.867,1.867,0,0,1-.25-.017l-.077-.011a2.07,2.07,0,0,1-1.453-1.059,2.293,2.293,0,0,1-.223-.474,18.591,18.591,0,0,1-.7-4.035c0-.015,0-.029,0-.044l-.024-.306c0-.009,0-.04,0-.048l-.025-.4c0-.051-.006-.093-.008-.131,0-.058-.006-.115-.008-.172l0-.051s0-.034,0-.038l0-.152c0-.022,0-.067,0-.111l-.009-.439c0-.031,0-.062,0-.093,0-.236,0-.485,0-.728,0-.017,0-.037,0-.047l0-.2c0-.025,0-.052,0-.082l.006-.187c0-.013,0-.026,0-.038l.007-.166c0-.006,0-.03,0-.042s0-.033,0-.049l.007-.134c0-.047,0-.087.007-.127l0-.084c0-.029,0-.057.006-.086,0-.005,0-.014,0-.025l.009-.135c0-.02,0-.041,0-.061l.011-.158c0-.019,0-.038,0-.057a.1.1,0,0,0,0-.01l.017-.194v-.014l0-.021q.028-.314.061-.609c.007-.065.015-.131.024-.2,0-.015,0-.03.006-.046h0l.018-.145c0-.01,0-.02,0-.029h0c.006-.05.013-.1.02-.149,0-.022.007-.053.009-.071l.015-.1c0-.018,0-.036.007-.053.007-.048.013-.1.021-.141v-.007c0-.01,0-.021,0-.032l.021-.137c0-.012,0-.024.006-.036,0-.031.01-.062.015-.093s.006-.043.009-.065q.055-.33.109-.612l.007-.031.016-.083c0-.017.007-.036.009-.049l.013-.064c0-.022.008-.043.013-.064s.013-.065.02-.1l0-.008.013-.063c0-.013.013-.062.015-.074l.012-.053c0-.009,0-.015,0-.021l.015-.069.005-.026c0-.012.008-.033.013-.053l.009-.041c0-.012.006-.024.009-.036s0-.017.007-.027l0-.007c.008-.04.017-.079.028-.118l.012-.051c.005-.023.01-.046.017-.068s.012-.047.018-.071l0-.007c.009-.04.02-.078.031-.116l.006-.021v0h0c.008-.03.015-.057.023-.081s.008-.03.012-.046a1.876,1.876,0,0,1,.092-.252c.012-.026.024-.052.037-.078a1.982,1.982,0,0,1,1.79-1.079h.254c.071,0,.158,0,.245,0l.1,0c.352.015.672.047.708.051l48.922,4.21c.334.029.623.054.881.092a1.8,1.8,0,0,1,1.487,2.2,17.952,17.952,0,0,0-.06,6.87,1.8,1.8,0,0,1-1.655,2.161c-.263.016-.558.016-.9.016H199.208Zm1.436-2.632c.008.028.014.055.021.083q-.008-.038-.021-.083m-.259-.972h47.428a22.137,22.137,0,0,1,.064-4.25l-47.5-4.087c-.02.107-.039.219-.059.338,0,.027-.007.054-.012.081l-.015.09c0,.019-.006.037-.009.056h0l-.015.1v.01c0,.021-.006.041-.009.062l-.011.077,0,.015-.02.138c0,.023-.007.063-.011.085l-.011.085,0,.022,0,.029-.014.114c0,.023,0,.046-.008.067-.006.044-.011.089-.016.135-.02.176-.038.357-.054.543,0,.011,0,.023,0,.034l-.013.155h0c0,.014,0,.028,0,.041l-.023.332c0,.017,0,.034,0,.051,0,.057-.006.114-.01.171l0,.033-.008.147c0,.018,0,.035,0,.045l-.007.148c0,.022,0,.043,0,.065l0,.141c0,.026,0,.051,0,.077l0,.164c0,.015,0,.032,0,.039,0,.206-.005.417,0,.631,0,.03,0,.06,0,.088l.008.367c0,.008,0,.032,0,.039l.017.406c0,.016,0,.032,0,.048l.044.669s0,.046,0,.048l0,.036c0,.011,0,.023,0,.034h0c.06.739.173,1.635.293,2.284m-3.9-6.3v0Zm0,0v0Zm0-.08c0,.02,0,.049,0,.08,0-.027,0-.053,0-.08m0-.015v0m2.622-2.007h0Zm-2.024-1.8v0m0,0h0Zm.02-.078h0m0,0Z" transform="translate(-132.084 -97.866)"/>
    <path id="패스_98678" data-name="패스 98678" d="M106.768,161.076H63.739a1.8,1.8,0,0,1-1.728-1.292c-1.042-3.537-.153-9.045-.048-9.662a1.8,1.8,0,0,1,1.485-1.476l.664-.108c.3-.051.649-.075,1.055-.1l41.985-2.971c.143-.01.268-.019.376-.023h.064l.537,0c.035,0,.071,0,.107,0l.515.028a1.8,1.8,0,0,1,.988,3.235v0l0,.012-.008.041,0,.016,0,.01c0,.027-.011.055-.016.083l-.005.028-.017.087,0,.022q-.041.215-.083.464c0,.038-.011.076-.018.113l-.009.059c0,.014,0,.028-.007.041s0,.025-.005.031l-.012.083,0,.015-.007.045-.013.087c0,.022-.006.044-.009.066l-.015.106-.007.05-.014.112c0,.007,0,.014,0,.021s0,.032,0,.033l-.011.087c0,.023,0,.046-.008.068l-.018.144c-.018.172-.037.352-.054.538,0,.009,0,.018,0,.027l-.014.175,0,.022-.01.142s0,.031,0,.036l-.025.375c0,.016,0,.032,0,.048l-.008.137c0,.019,0,.037,0,.055l-.006.147c0,.022,0,.043,0,.065l0,.131c0,.029,0,.058,0,.087l0,.185c0,.006,0,.013,0,.019,0,.21-.005.425,0,.643,0,0,0,.04,0,.043l.008.389c0,.024,0,.047,0,.071l.016.382c0,.017,0,.034,0,.051l0,.03c0,.02,0,.043,0,.063s0,.054.005.082,0,.065,0,.095l.01.137c0,.032.005.068.007.1l.018.231c0,.014,0,.029,0,.044h0a19.553,19.553,0,0,0,.422,2.868,1.8,1.8,0,0,1-1.326,3.017h-1.245c-.134,0-.285,0-.456,0m-41.552-3.6h40.8c-.129-.843-.2-1.64-.231-1.994h0c0-.014,0-.029,0-.043s0-.058,0-.062l-.02-.257c0-.055-.009-.116-.012-.176l1.794-.163-1.8.123c0-.031,0-.063-.005-.095,0-.058-.008-.113-.01-.168,0-.031,0-.062,0-.093,0-.055-.006-.111-.008-.166l-.009-.243c0-.035,0-.081,0-.129s0-.112,0-.168l0-.347c0-.233,0-.49,0-.739,0-.009,0-.018,0-.027v-.008l0-.2c0-.024,0-.048,0-.074s0-.071,0-.106l0-.048c0-.009,0-.03,0-.043s0-.024,0-.036l.007-.164c0-.007,0-.031,0-.043s0-.019,0-.029l.007-.139c0-.045,0-.09.008-.136l.007-.123c0-.015,0-.029,0-.044,0-.071.009-.136.014-.2l.013-.187c0-.025,0-.049.006-.073l.015-.177,0-.025c.019-.214.041-.421.062-.621.008-.069.015-.133.023-.2v-.013c.006-.055.013-.11.02-.165,0-.009,0-.038.009-.064h0l.019-.144s0-.011,0-.018,0-.03.007-.045l.015-.1c0-.028.007-.055.01-.077l.014-.1,0-.033c0-.012,0-.024.005-.036l.015-.1-40.58,2.872-.085.006a25.671,25.671,0,0,0-.117,5.44m44.078-4.815v0m0-.062v0Zm.027-.642v0m0-.054v0Zm.2-1.946,0,.02,0-.02m.011-.121c0,.03,0,.06-.007.09,0-.027.005-.058.007-.09m.3-1.568v0h0" transform="translate(-41.366 -97.807)"/>
    <path id="패스_98679" data-name="패스 98679" d="M66.605,24.99a1.8,1.8,0,0,1-1.757-1.406c-.869-3.863-.078-9.314-.044-9.544a1.8,1.8,0,0,1,1.152-1.423l.477-.177L98.924.527c.276-.1.5-.182.683-.243a2.821,2.821,0,0,1,1.678-.24l.353.074a1.8,1.8,0,0,1,.9,3.039c-.415,2.415-1.566,10.432-.045,17.65.009.045.017.089.023.134s.018.09.03.145a1.8,1.8,0,0,1-1.674,2.954h-.005l-1.3-.231-.028-.005h0L84.188,20.985,67,24.946a1.8,1.8,0,0,1-.4.044m36-3.691,0,.013,0-.013M68.242,15.613A31.5,31.5,0,0,0,68.106,21l15.636-3.606a1.817,1.817,0,0,1,.73-.016l14.206,2.608A54.329,54.329,0,0,1,98.7,4.447ZM102.7,2.317h0l0-.009,0,.009" transform="translate(-43.338 0)"/>
    <path id="패스_98680" data-name="패스 98680" d="M174.02,26.072l.04.007,1.267.226c.139.026.287.052.452.081l.1.017h0l51.248,8.975a11.415,11.415,0,0,0,1.26.182,21.517,21.517,0,0,1,.217-8.811,8.008,8.008,0,0,0-.864-.367L175.061,6.008,227.778,17.6c1.357.274,1.357.274,1.357-.842v-.53c0-1.069,0-1.069-1.17-1.27L174.167,5.7l-.027,0-.072-.012a.361.361,0,0,0-.192,0,.125.125,0,0,0-.074.089s0,.009-.006.027v0s0,.013,0,.019a.133.133,0,0,0,0,.018c0,.013-.006.028-.009.045v0l-.012.061v0c0,.023-.009.048-.014.075v0q-.025.126-.058.31h0c-.008.041-.015.084-.023.129h0c-.007.045-.015.091-.024.141h0c-.453,2.605-1.633,10.833-.042,18.381h0s.166,1.037.418,1.082" transform="translate(-116.209 -3.811)" fill="#fb0"/>
    <path id="패스_98681" data-name="패스 98681" d="M224.7,33.661h-.077a12.1,12.1,0,0,1-1.468-.2l-51.274-8.98-.018,0-.086-.015q-.251-.043-.471-.084l-1.29-.23h0c-1.5-.268-1.785-1.982-1.878-2.56-1.646-7.908-.382-16.526.046-18.984l.019-.111c0-.028.009-.054.014-.081s.01-.06.016-.089c.021-.119.04-.222.057-.309,0-.006,0-.012,0-.019l.008-.04c.008-.05.017-.1.029-.147l0-.01,0-.019V1.766c0-.017.007-.035.011-.053.007-.033.012-.055.015-.066a1.929,1.929,0,0,1,1.1-1.314,2.01,2.01,0,0,1,1.147-.141c.057.008.119.018.177.028l.018,0,53.781,9.254c1.768.3,2.666.859,2.666,3.046v.53a2.69,2.69,0,0,1-.8,2.318c-.82.672-1.7.494-2.711.29L193.991,9.123,224.706,21a9.16,9.16,0,0,1,1.08.467,1.8,1.8,0,0,1,.876,2.038,19.852,19.852,0,0,0-.2,7.98,1.8,1.8,0,0,1-1.762,2.174m-52.182-12.73L222.589,29.7a24.358,24.358,0,0,1,.272-5.549L171.558,4.31c-.475,3.177-1.216,10.106.092,16.466l.306.054c.146.028.286.052.442.079l.107.019.016,0m-2.4-17.169h0" transform="translate(-112.522 -0.111)"/>
  </g>
</svg>
