<?xml version="1.0" encoding="UTF-8"?>
<svg xmlns="http://www.w3.org/2000/svg" version="1.1" xmlns:xlink="http://www.w3.org/1999/xlink" viewBox="0 0 778 434">
  <defs>
    <style>
      .cls-1 {
        fill: #fbf3bf;
      }

      .cls-2 {
        fill: none;
      }

      .cls-3 {
        clip-path: url(#clippath-1);
      }

      .cls-4 {
        fill: #fff5b2;
      }

      .cls-5 {
        clip-path: url(#clippath);
      }
    </style>
    <clipPath id="clippath">
      <rect class="cls-2" x="0" width="435" height="434"/>
    </clipPath>
    <clipPath id="clippath-1">
      <rect class="cls-2" x="-358.1" y=".5" width="793.6" height="432.8"/>
    </clipPath>
  </defs>
  <!-- Generator: Adobe Illustrator 28.6.0, SVG Export Plug-In . SVG Version: 1.2.0 Build 709)  -->
  <g>
    <g id="Layer_1">
      <g id="_그룹_68569" data-name="그룹_68569">
        <g id="_그룹_67470" data-name="그룹_67470">
          <g class="cls-5">
            <g id="_마스크_그룹_46" data-name="마스크_그룹_46">
              <g id="_그룹_68568" data-name="그룹_68568">
                <g class="cls-3">
                  <g id="_그룹_68567" data-name="그룹_68567">
                    <path id="_패스_99012" data-name="패스_99012" class="cls-1" d="M60.1,97.2c75.2-2.9,235.7-11.8,285.8-35.8C385.6,29.6,380.3.5,380.3.5c0,0-140.2,39.7-328,39.7s-9.2,0-13.5.2c-4.4,0-8.8-.2-13.6-.2C-162.6,40.2-302.9.5-302.9.5c0,0-5.3,29.1,34.4,60.8,50,24,210.6,32.9,285.8,35.8h42.8Z"/>
                    <rect id="_사각형_23641" data-name="사각형_23641" class="cls-1" x="-283.7" y="166.5" width="644.8" height="44.6"/>
                    <path id="_패스_99013" data-name="패스_99013" class="cls-1" d="M370.1,287.5H-292.6l-65.5,145.8h72.4l49.3-103.2H313.8l49.3,103.2h72.4l-65.5-145.8Z"/>
                  </g>
                </g>
              </g>
            </g>
          </g>
        </g>
        <g id="_그룹_67469" data-name="그룹_67469">
          <rect id="_사각형_23070" data-name="사각형_23070" class="cls-4" x="460" y="133" width="38.3" height="298"/>
          <path id="_패스_99014" data-name="패스_99014" class="cls-4" d="M679.8,133.1l36.8,9.9-77.2,287.9-36.8-9.9,77.2-287.9Z"/>
          <rect id="_사각형_23071" data-name="사각형_23071" class="cls-4" x="531.2" y="133" width="38.3" height="298"/>
          <rect id="_사각형_23073" data-name="사각형_23073" class="cls-4" x="739.7" y="133" width="38.3" height="298"/>
        </g>
      </g>
    </g>
  </g>
</svg>