<svg xmlns="http://www.w3.org/2000/svg" width="28" height="28" viewBox="-1.51 -0.568 28 28" xml:space="preserve"><linearGradient id="a" gradientUnits="userSpaceOnUse" x1="1507.53" y1="5259.045" x2="1510.317" y2="5259.045" gradientTransform="rotate(90 3377.495 1894.04)"><stop offset="0" style="stop-color:#e55739"/><stop offset=".283" style="stop-color:#dd4c32"/><stop offset=".806" style="stop-color:#c92a23"/><stop offset="1" style="stop-color:#c11920"/></linearGradient><path fill="url(#a)" d="M8.612 24.078a4.09 4.09 0 0 0 7.756-.002"/><path fill="#525151" d="M24.084 24.209H.896A.895.895 0 0 1 0 23.313a6.784 6.784 0 0 1 2.735-5.457V9.755C2.735 4.376 7.111 0 12.49 0c5.38 0 9.755 4.376 9.755 9.755v8.101a6.78 6.78 0 0 1 2.735 5.457.895.895 0 0 1-.896.896zM1.872 22.418H23.11a5.001 5.001 0 0 0-2.242-3.338.894.894 0 0 1-.414-.754V9.755c0-4.392-3.571-7.964-7.963-7.964-4.391 0-7.963 3.572-7.963 7.964v8.571c0 .305-.156.59-.414.754a4.998 4.998 0 0 0-2.242 3.338z"/><path fill="none" stroke="#E94849" stroke-width="3" stroke-linecap="round" stroke-linejoin="round" d="m9.575 9.402.032 4.99M14.574 9.402l.031 4.99"/></svg>