<?xml version="1.0" encoding="UTF-8"?>
<svg xmlns="http://www.w3.org/2000/svg" version="1.1" viewBox="0 0 30 150">
  <defs>
    <style>
      .cls-1 {
        fill: #fff;
      }

      .cls-2 {
        fill: none;
      }

      .cls-3 {
        isolation: isolate;
      }
    </style>
  </defs>
  <!-- Generator: Adobe Illustrator 28.6.0, SVG Export Plug-In . SVG Version: 1.2.0 Build 709)  -->
  <g>
    <g id="Layer_1">
      <g id="_그룹_68644" data-name="그룹_68644">
        <g id="_국_회_부_산_도_서_관" data-name="국_회_부_산_도_서_관" class="cls-3">
          <g class="cls-3">
            <path class="cls-1" d="M19.9,39c0,1,0,2.2-.3,3.8h1.8v1.6h-5.5v2h4v5.1h-2v-3.5h-8.2v-1.6h4.2v-2h-5.5v-1.6h9.2c.3-1.3.3-2.4.3-3.3h-7.9v-1.6h9.9v1.1Z"/>
          </g>
          <g class="cls-3">
            <path class="cls-1" d="M12.1,63.4v-1.2c-1.6-.3-2.6-1.2-2.6-2.6,0-1.6,1.4-2.7,3.5-2.7s3.6,1.1,3.6,2.7-1,2.3-2.6,2.6v1.1c1.2,0,2.4-.1,3.5-.3v1.5c-3,.5-6.3.6-8.9.6l-.3-1.6c1.1,0,2.3,0,3.6,0ZM17.4,56.4h-8.6v-1.6h3.3v-1.5h2v1.5h3.3v1.6ZM11.4,59.6c0,.8.7,1.2,1.6,1.2s1.7-.4,1.7-1.2-.7-1.2-1.7-1.2-1.7.4-1.6,1.2ZM20.4,67.4h-2v-14.2h2v14.2Z"/>
          </g>
          <g class="cls-3">
            <path class="cls-1" d="M21.4,79h-5.6v4.5h-2v-4.5h-5.5v-1.6h13v1.6ZM11.9,71.4h6v-1.6h2v6.3h-9.9v-6.3h2v1.6ZM17.9,74.5v-1.5h-6v1.5h6Z"/>
          </g>
          <g class="cls-3">
            <path class="cls-1" d="M17,92l-1,1.6c-1.6-.5-2.6-1.5-3.2-2.8-.6,1.4-1.8,2.5-3.4,3.1l-1.1-1.6c2.4-.8,3.5-2.7,3.5-4.6v-1.5h2v1.6c0,1.8,1,3.6,3.3,4.3ZM20.2,99.2h-9.8v-4.6h2v3h7.7v1.6ZM19.7,89.3h1.9v1.7h-1.9v4.6h-2v-10.4h2v4.1Z"/>
          </g>
          <g class="cls-3">
            <path class="cls-1" d="M20,109.2h-4.1v3h5.5v1.6h-13v-1.6h5.5v-3h-4v-6.9h10v1.6h-8v3.8h8.1v1.6Z"/>
          </g>
          <g class="cls-3">
            <path class="cls-1" d="M17.2,126.7l-1.2,1.6c-1.6-.8-2.6-2.2-3.2-3.9-.6,1.9-1.7,3.4-3.3,4.2l-1.2-1.6c2.4-1.1,3.5-3.8,3.6-6.5v-2.1h2v2.1c0,2.7,1.1,5.3,3.5,6.3ZM20.4,131.5h-2v-8.2h-2.8v-1.6h2.8v-4.5h2v14.2Z"/>
          </g>
          <g class="cls-3">
            <path class="cls-1" d="M12.9,140.2c1.4,0,2.9-.2,4.2-.4v1.4c-2.8.5-6.2.6-8.7.6l-.2-1.6c.8,0,1.7,0,2.6,0v-2.8h2v2.7ZM16.4,135.1c0,1,0,2.4-.3,4.2l-2-.2c.2-1.4.3-2.4.3-3.2h-5.4v-1.6h7.3v.9ZM20.3,147.2h-10v-4.3h2v2.7h8v1.6ZM19.9,137.5h1.7v1.7h-1.7v4.6h-2v-10.6h2v4.3Z"/>
          </g>
        </g>
        <g id="nal-min">
          <g id="_패스_4" data-name="패스_4">
            <path class="cls-1" d="M16.5,14.3s5.2-3.5,13.5-1.5c-1,.2-2,.7-2.6,1.5-3.5-1.1-7.3-1.1-10.8,0Z"/>
          </g>
          <g id="_패스_5" data-name="패스_5">
            <path class="cls-1" d="M16,14.4s4.7-7.2,12.3-7.4c-1,.6-1.7,1.5-2.1,2.5,0,0-6.5.6-10.1,4.8h0Z"/>
          </g>
          <g id="_패스_6" data-name="패스_6">
            <path class="cls-1" d="M15.9,14.7s2.3-8.8,8.4-12.2c0,0-1.8,2.1-1.7,4.2-3.1,1.8-5.5,4.6-6.6,8Z"/>
          </g>
          <g id="_패스_7" data-name="패스_7">
            <path class="cls-1" d="M15.7,14.8S15.4,4.4,18.6,0c-.7,1.6-.9,3.4-.4,5.1,0,0-2.1,3-2.6,9.7Z"/>
          </g>
          <g id="_패스_8" data-name="패스_8">
            <path class="cls-1" d="M13.5,14.3S8.2,10.8,0,12.8c1,.2,2,.7,2.6,1.5,3.5-1.1,7.3-1.1,10.8,0Z"/>
          </g>
          <g id="_패스_9" data-name="패스_9">
            <path class="cls-1" d="M14,14.4S9.3,7.3,1.8,7c1,.6,1.7,1.5,2.1,2.5,0,0,6.5.6,10.1,4.8h0Z"/>
          </g>
          <g id="_패스_10" data-name="패스_10">
            <path class="cls-1" d="M14.1,14.7S11.8,5.9,5.7,2.6c0,0,1.8,2.1,1.7,4.2,3.1,1.8,5.5,4.6,6.6,8Z"/>
          </g>
          <g id="_패스_11" data-name="패스_11">
            <path class="cls-1" d="M14.3,14.8S14.6,4.4,11.3,0c.7,1.6.9,3.4.4,5.1,0,0,2.1,3,2.6,9.7Z"/>
          </g>
          <g id="_패스_12" data-name="패스_12">
            <path class="cls-1" d="M.7,15.3h12.2c.5.7,1.3,1.1,2.2,1.1.8,0,1.6-.3,2.1-1.1h12.2v.6h-11.9c-.6.7-1.5,1.1-2.4,1.1-.9,0-1.9-.4-2.4-1.1H.7s0-.6,0-.6h0Z"/>
          </g>
          <g id="_패스_13" data-name="패스_13">
            <path class="cls-1" d="M17.6,15.8c-.7.7-1.7,1.1-2.7,1-1,0-2-.4-2.6-1.1H.7c.5,7.9,6.7,14.2,14.3,14.2s13.8-6.3,14.3-14.2h-11.6s0,0,0,0ZM11.2,18.9h7.5v.3h-7.5v-.3ZM9.5,19.4h10.9v.4h-10.9v-.4ZM19.9,20.1v.2h-9.9v-.2h9.9ZM20.9,25.2h-11.9v-.6h.4v-4h1.8v4h.6v-3.6h-.4v-.4h6.9v.4h-.4v3.6h.6v-4h1.8v4h.4v.6h0Z"/>
          </g>
          <g id="_패스_14" data-name="패스_14">
            <path class="cls-1" d="M17.4,21.2h.6v3.6h-.6v-3.6ZM14.3,21.2h.6v3.6h-.6v-3.6ZM15.1,21.2h.6v3.6h-.6v-3.6ZM15.9,21.2h.6v3.6h-.6v-3.6ZM16.7,21.2h.6v3.6h-.6v-3.6ZM13.5,21.2h.6v3.6h-.6v-3.6ZM11.9,21.2h.6v3.6h-.6v-3.6ZM12.7,21.2h.6v3.6h-.6v-3.6Z"/>
          </g>
          <g id="_타원_8" data-name="타원_8">
            <ellipse class="cls-2" cx="15" cy="15.3" rx="14.3" ry="14.7"/>
          </g>
        </g>
      </g>
    </g>
  </g>
</svg>