<?xml version="1.0" encoding="UTF-8"?>
<svg xmlns="http://www.w3.org/2000/svg" version="1.1" viewBox="0 0 40 40.6">
  <defs>
    <style>
      .cls-1 {
        fill-rule: evenodd;
      }

      .cls-1, .cls-2 {
        fill: #3a3a3a;
      }
    </style>
  </defs>
  <!-- Generator: Adobe Illustrator 28.6.0, SVG Export Plug-In . SVG Version: 1.2.0 Build 709)  -->
  <g>
    <g id="Layer_1">
      <g>
        <g id="Layer_1-2" data-name="Layer_1">
          <path id="_패스_99006-2" class="cls-2" d="M25.9,7.5h-11.8c-3.7,0-6.6,3.1-6.6,6.7v12.1c0,3.7,2.9,6.7,6.6,6.8h11.8c3.7,0,6.6-3.1,6.6-6.8v-12.1c0-3.7-2.9-6.7-6.6-6.7M30.2,26.3c0,2.4-1.9,4.4-4.3,4.4h-11.8c-2.4,0-4.3-2-4.3-4.4v-12.1c0-2.4,1.9-4.4,4.3-4.4h11.8c2.4,0,4.3,2,4.3,4.4v12.1Z"/>
        </g>
        <path id="_383735-2" class="cls-1" d="M17.8,13.8v4.1c.7-.8,1.7-1.2,2.8-1.2,2.8.3,4.7,2.9,4.4,5.6-.3,2.3-2.1,4.1-4.4,4.4-1.1,0-2.1-.4-2.8-1.2v.9h-2.8v-12.7h2.8ZM20,19.2c-1.4,0-2.6,1-2.6,2.4,0,1.4,1,2.6,2.4,2.6,1.4,0,2.6-1,2.6-2.4,0,0,0,0,0-.1.1-1.3-.9-2.4-2.1-2.5,0,0-.2,0-.3,0h0Z"/>
      </g>
    </g>
  </g>
</svg>