<?xml version="1.0" encoding="UTF-8"?>
<svg xmlns="http://www.w3.org/2000/svg" version="1.1" viewBox="0 0 40 40.6">
  <defs>
    <style>
      .cls-1 {
        fill: #3a3a3a;
      }
    </style>
  </defs>
  <!-- Generator: Adobe Illustrator 28.6.0, SVG Export Plug-In . SVG Version: 1.2.0 Build 709)  -->
  <g>
    <g id="Layer_1">
      <g id="Layer_1-2" data-name="Layer_1">
        <g id="_그룹_68639">
          <g id="_그룹_67998">
            <path id="_패스_41580-2" class="cls-1" d="M26.7,12.1h0c-.8,0-1.4.6-1.4,1.4s.6,1.4,1.4,1.4h0c.8,0,1.4-.6,1.4-1.4s-.6-1.4-1.4-1.4"/>
            <path id="_패스_41578-2" class="cls-1" d="M25.9,7.5h-11.8c-3.7,0-6.6,3.1-6.6,6.7v12.1c0,3.7,2.9,6.7,6.6,6.8h11.8c3.7,0,6.6-3.1,6.6-6.8v-12.1c0-3.7-2.9-6.7-6.6-6.7M30.2,26.3c0,2.4-1.9,4.4-4.3,4.4h-11.8c-2.4,0-4.3-2-4.3-4.4v-12.1c0-2.4,1.9-4.4,4.3-4.4h11.8c2.4,0,4.3,2,4.3,4.4v12.1Z"/>
            <path id="_패스_41579-2" class="cls-1" d="M20,13.1c-4,0-7.3,3.1-7.4,7,0,4,3.1,7.3,7,7.4,4,0,7.3-3.1,7.4-7v-.2c0-3.9-3.1-7.1-7-7.2M20,25.1c-2.7,0-4.9-2-4.9-4.7s2-4.9,4.7-4.9,4.9,2,4.9,4.7h0c0,2.7-2.1,4.9-4.7,4.9"/>
          </g>
        </g>
      </g>
    </g>
  </g>
</svg>