<svg id="그룹_68639" data-name="그룹 68639" xmlns="http://www.w3.org/2000/svg" xmlns:xlink="http://www.w3.org/1999/xlink" width="16" height="16.842" viewBox="0 0 16 16.842">
  <defs>
    <clipPath id="clip-path">
      <rect id="사각형_23648" data-name="사각형 23648" width="16" height="16.842" fill="none"/>
    </clipPath>
  </defs>
  <g id="그룹_68638" data-name="그룹 68638" clip-path="url(#clip-path)">
    <path id="패스_99021" data-name="패스 99021" d="M9.364,12.651,5.828,10.722a3.368,3.368,0,1,1,0-4.6L9.364,4.191a3.369,3.369,0,1,1,3.267,2.546,3.355,3.355,0,0,1-2.46-1.068L6.636,7.6a3.4,3.4,0,0,1,0,1.645l3.536,1.929a3.352,3.352,0,1,1-.808,1.478m-6-2.546A1.684,1.684,0,1,0,1.684,8.421a1.684,1.684,0,0,0,1.684,1.684m9.263-5.053a1.684,1.684,0,1,0-1.684-1.684,1.684,1.684,0,0,0,1.684,1.684m0,10.105a1.684,1.684,0,1,0-1.684-1.684,1.684,1.684,0,0,0,1.684,1.684"/>
  </g>
</svg>
