<svg xmlns="http://www.w3.org/2000/svg" xmlns:xlink="http://www.w3.org/1999/xlink" width="391" height="276" viewBox="19.675 21.5 391 276" xml:space="preserve"><defs><path id="a" d="M19.675 21.5h390.647v275.598H19.675z"/></defs><clipPath id="b"><use xlink:href="#a" overflow="visible"/></clipPath><path clip-path="url(#b)" fill-rule="evenodd" clip-rule="evenodd" fill="#FFF" d="M402.499 147.567c0 67.501-83.947 122.222-187.499 122.222-103.553 0-187.5-54.721-187.5-122.222S111.446 25.347 215 25.347c103.551 0 187.499 54.719 187.499 122.22"/><ellipse clip-path="url(#b)" fill="none" stroke="#88BF43" stroke-width="2" cx="214.999" cy="147.567" rx="187.5" ry="122.222"/><path clip-path="url(#b)" fill-rule="evenodd" clip-rule="evenodd" fill="#8DC63F" d="M280.489 121.521c4.73 0 8.564-3.747 8.564-8.371 0-4.607-3.834-8.368-8.564-8.368-4.715 0-8.564 3.761-8.564 8.368-.001 4.623 3.849 8.371 8.564 8.371M307.706 138.185c1.811 2.682 3.545 5.243 4.959 7.364 7.518 3.594 12.744 11.247 12.744 20.127 0 12.308-10.014 22.327-22.324 22.327-12.314 0-22.332-10.02-22.332-22.327 0-.464.043-.927.076-1.372h-1.178c-.229.365-1.91 3.085-3.988 6.472 2.393 12.964 13.772 22.812 27.422 22.812 15.385 0 27.902-12.52 27.902-27.911 0-13.811-10.082-25.284-23.281-27.492"/><path clip-path="url(#b)" fill-rule="evenodd" clip-rule="evenodd" fill="#8DC63F" d="m265.776 184.576 13.209-21.465H307.6c3.303 0 11.418-5.649 7.287-12.117 0 0-18.021-26.973-19.529-28.479-1.516-1.503-6.197-2.897-10.33-.143-3.244 2.166-10.031 17.459-10.031 17.459s-7.705.145-10.057 0c-2.324-.131-3.023 7.848-.133 7.848h14.035l5.23-9.07 10.867 16.644h-22.148l-17.336 29.323c-.982 1.784-.824 4.367 2.576 4.367 3.389 0 5.456-1.477 7.745-4.367"/><path clip-path="url(#b)" fill-rule="evenodd" clip-rule="evenodd" fill="#8DC63F" d="M255.414 143.402h24.938v6.919h-24.938z"/><path clip-path="url(#b)" fill-rule="evenodd" clip-rule="evenodd" fill="#8DC63F" d="m258.182 143.775-2.693 1.892-14.524-20.737 2.7-1.903z"/><path clip-path="url(#b)" fill-rule="evenodd" clip-rule="evenodd" fill="#88BF43" d="M138.81 211.984c21.97 8.268 48.979 13.102 77.804 13.102 75.992 0 137.668-33.457 137.668-74.98 0-21.166-19.549-48.78-69.336-48.78-36.08 0-67.525 15.924-67.525 35.476 0 3.425 2.014 7.257 4.637 9.876 4.031 4.637 5.24 10.28 5.24 15.522 0 23.986-35.677 43.338-79.619 43.338-29.026 0-55.632-8.063-68.735-21.164-10.482-10.482-13.907-22.375-13.907-34.268 0-45.758 67.927-82.846 151.578-82.846 83.852 0 151.781 37.088 151.781 82.846 0 45.754-67.93 82.844-151.781 82.844-33.057 0-63.694-5.846-88.49-15.52l10.685-5.446z"/><path clip-path="url(#b)" fill-rule="evenodd" clip-rule="evenodd" fill="#378840" d="M137.81 205.202c21.97 8.267 48.979 13.102 77.805 13.102 75.991 0 137.667-33.458 137.667-74.98 0-21.166-19.549-48.78-69.336-48.78-36.08 0-67.525 15.924-67.525 35.476 0 3.425 2.014 7.257 4.637 9.876 4.031 4.636 5.24 10.28 5.24 15.522 0 23.986-35.677 43.337-79.619 43.337-29.026 0-55.632-8.063-68.735-21.163-10.482-10.483-13.907-22.375-13.907-34.268 0-45.758 67.927-82.846 151.579-82.846 83.851 0 151.78 37.088 151.78 82.846 0 45.754-67.93 82.844-151.78 82.844-33.058 0-63.695-5.846-88.491-15.521l10.685-5.445z"/><text transform="rotate(16.137 -810.484 584.15)" font-family="'NanumBarunGothic'" font-size="32">W</text><defs><path id="c" d="M19.675 21.5h390.647v275.598H19.675z"/></defs><clipPath id="d"><use xlink:href="#c" overflow="visible"/></clipPath><path clip-path="url(#d)" fill="none" stroke="#000" stroke-linecap="round" stroke-linejoin="round" d="m149.79 255.079 3.101.898 12.598-21.574-2.582-.747-10.656 18.637.727-21.509-2.797-.808-10.787 18.397.857-21.271-2.704-.783-.777 24.994 3.041.878 10.688-18.194z"/><text transform="rotate(9.753 -1424.375 1074.72)" font-family="'NanumBarunGothic'" font-size="32">E</text><defs><path id="e" d="M19.675 21.5h390.647v275.598H19.675z"/></defs><clipPath id="f"><use xlink:href="#e" overflow="visible"/></clipPath><path clip-path="url(#f)" fill="none" stroke="#000" stroke-linecap="round" stroke-linejoin="round" d="m179.2 258.564-12.016-2.065 1.626-9.461 11.165 1.919.4-2.334-11.163-1.919 1.258-7.316 12.015 2.065.407-2.365-14.791-2.544-4.109 23.906 14.791 2.543z"/><text transform="rotate(5.094 -2833.511 2169.365)" font-family="'NanumBarunGothic'" font-size="32">B</text><defs><path id="g" d="M19.675 21.5h390.647v275.598H19.675z"/></defs><clipPath id="h"><use xlink:href="#g" overflow="visible"/></clipPath><path clip-path="url(#h)" fill="none" stroke="#000" stroke-linecap="round" stroke-linejoin="round" d="M195.789 262.042c1.045-.313 1.933-.775 2.662-1.385a6.38 6.38 0 0 0 1.685-2.147 7.341 7.341 0 0 0 .709-2.539 6.474 6.474 0 0 0-.194-2.33 5.666 5.666 0 0 0-.953-1.933 6.006 6.006 0 0 0-1.606-1.444 6.926 6.926 0 0 0-2.188-.869l.006-.063c1.373-.264 2.486-.844 3.336-1.743.852-.898 1.337-2.018 1.456-3.355a5.074 5.074 0 0 0-.258-2.144 4.772 4.772 0 0 0-1.186-1.841c-.552-.542-1.245-.994-2.08-1.358-.835-.363-1.816-.595-2.942-.696l-8.063-.718-2.151 24.128 8.16.728c1.36.119 2.562.022 3.607-.291zm.848-10.044c.882.914 1.255 2.136 1.119 3.665-.129 1.445-.684 2.553-1.662 3.322-.979.77-2.328 1.077-4.05.924l-5.004-.446.847-9.498 4.43.395c1.997.178 3.437.724 4.32 1.638zm.12-10.366c.737.622 1.049 1.571.936 2.846-.131 1.466-.675 2.457-1.631 2.972-.956.515-2.21.702-3.761.563l-4.207-.375.673-7.554 4.526.403c1.572.141 2.728.522 3.464 1.145z"/><text transform="rotate(1.985 -7508.988 6008.203)" font-family="'NanumBarunGothic'" font-size="32"> </text><text transform="rotate(-1.702 8938.433 -6939.705)" font-family="'NanumBarunGothic'" font-size="29">접</text><defs><path id="i" d="M19.675 21.5h390.647v275.598H19.675z"/></defs><clipPath id="j"><use xlink:href="#i" overflow="visible"/></clipPath><path clip-path="url(#j)" fill="none" stroke="#000" stroke-linecap="round" stroke-linejoin="round" d="m218.603 263.438-.107-3.595 11.653-.347.106 3.596-11.652.346zm13.876-8.507-2.464.073.072 2.436-11.652.346-.068-2.29-2.464.073.301 10.116 16.58-.492-.305-10.262zm-2.721-7.608.184 6.174 2.493-.073-.426-14.319-2.492.073.175 5.914-4.667.138.066 2.232 4.667-.139zm-6.694-3.18c.479-1.146.766-2.358.863-3.638-1.352.079-2.646.136-3.882.173l-3.682.109-4.436.132.065 2.145 2.637-.078c1.043-.031 2.087-.066 3.13-.107 1.043-.04 2.066-.095 3.07-.164-.241.994-.686 1.984-1.333 2.971a16.201 16.201 0 0 1-2.368 2.812 20.606 20.606 0 0 1-3.133 2.443 20.008 20.008 0 0 1-3.63 1.834l1.705 1.719c1.204-.48 2.503-1.181 3.897-2.103a21.186 21.186 0 0 0 3.862-3.292 20.311 20.311 0 0 0 2.902 2.467 22.766 22.766 0 0 0 3.233 1.906l1.482-1.872a17.45 17.45 0 0 1-1.634-.778 23.132 23.132 0 0 1-1.669-.995 18.869 18.869 0 0 1-1.586-1.156c-.506-.41-.949-.833-1.329-1.267a16.175 16.175 0 0 0 1.836-3.261z"/><text transform="rotate(-7.7 2061.492 -1633.212)" font-family="'NanumBarunGothic'" font-size="29">근</text><defs><path id="k" d="M19.675 21.5h390.647v275.598H19.675z"/></defs><clipPath id="l"><use xlink:href="#k" overflow="visible"/></clipPath><path clip-path="url(#l)" fill="none" stroke="#000" stroke-linecap="round" stroke-linejoin="round" d="m259.322 259.857-14.916 2.018-.89-6.581-2.472.334 1.182 8.736 17.387-2.352-.291-2.155zm-23.066-8.908.288 2.127 25.03-3.386-.287-2.127-4.865.658c-.016-.7-.042-1.481-.08-2.345a128.486 128.486 0 0 0-.372-5.7 108.16 108.16 0 0 0-.31-3.06l-17.128 2.316.291 2.155 14.6-1.975c.194 1.437.326 2.922.397 4.453.07 1.531.116 3.028.139 4.487l-17.703 2.397z"/><text transform="rotate(-14.14 1172.08 -937.828)" font-family="'NanumBarunGothic'" font-size="29">성</text><path fill="none" stroke="#000" stroke-linecap="round" stroke-linejoin="round" d="M283.861 253.021c-.146.415-.432.821-.859 1.218-.429.396-1.003.771-1.722 1.121s-1.595.656-2.625.916c-1.013.255-1.914.396-2.704.426-.79.03-1.468-.028-2.033-.175s-1.01-.369-1.334-.666-.533-.633-.628-1.009c-.099-.394-.076-.798.068-1.213s.43-.826.856-1.232.992-.789 1.7-1.146c.708-.358 1.567-.664 2.579-.919 1.031-.26 1.948-.401 2.75-.424s1.486.045 2.054.199c.567.157 1.014.385 1.338.682s.535.643.635 1.036c.095.376.069.771-.075 1.186zm1.569-3.685c-.512-.529-1.18-.929-2.004-1.2-.824-.271-1.802-.398-2.933-.383s-2.397.199-3.802.554c-1.403.353-2.603.79-3.596 1.31-.994.52-1.79 1.094-2.388 1.723-.598.63-.998 1.294-1.2 1.992a3.982 3.982 0 0 0-.034 2.117c.18.712.523 1.328 1.033 1.848.509.52 1.176.915 2 1.187.824.271 1.798.399 2.919.385 1.121-.012 2.384-.195 3.787-.549s2.607-.791 3.61-1.313c1.003-.522 1.805-1.093 2.405-1.713.6-.619 1.001-1.279 1.204-1.978.201-.699.213-1.405.034-2.117s-.523-1.334-1.035-1.863zm-4.957-10.773 1.955 7.762 2.418-.609-3.881-15.41-2.418.608 1.381 5.484-5.203 1.31.546 2.166 5.202-1.311zm-13.539-4.007c.856 2.775.937 5.297.244 7.564-.694 2.269-2.078 4.392-4.151 6.369l2.063 1.185c1.208-1.142 2.212-2.396 3.014-3.765s1.357-2.849 1.666-4.441c1.029 1.037 2.193 1.92 3.492 2.649s2.711 1.271 4.236 1.625l1.058-2.091c-1.773-.391-3.344-.987-4.712-1.789s-2.631-1.845-3.787-3.129a17.273 17.273 0 0 0-.146-2.34 17.976 17.976 0 0 0-.501-2.461l-2.476.624z"/><path fill="#388840" d="M94.854 75.399c-1.391-3.473-2.752-5.913-3.939-7.897l-8.299 4.966-1.52-2.541 11.435-6.842 1.086 1.814c1.288 2.155 2.91 4.865 4.508 8.905l-3.271 1.595zm-.071 3.823c2.104-1.358 4.188-2.802 6.069-4.256l1.545 2.197c-4.047 3.474-8.96 6.544-12.805 8.878l-1.853-2.44c1.23-.737 2.581-1.544 3.966-2.406l-3.939-6.583 3.136-1.877 3.881 6.487zm11.463-11.559-2.991 1.79 6.371 10.648-3.184 1.906-13.338-22.289 3.184-1.906 5.373 8.979 2.991-1.79 1.594 2.662zM124.246 51.317l-14.225 5.467-1.053-2.738 5.354-2.057-.87-2.264 3.491-1.342.87 2.264 5.38-2.067 1.053 2.737zm-3.391 12.42c-3.464 1.331-6.629.463-7.651-2.195-1.012-2.632.757-5.397 4.221-6.728 3.491-1.342 6.63-.464 7.641 2.169 1.022 2.659-.72 5.413-4.211 6.754m-1.012-2.632c1.549-.596 2.392-1.614 1.917-2.852-.465-1.211-1.775-1.402-3.323-.807-1.575.605-2.392 1.614-1.926 2.825.475 1.238 1.759 1.438 3.332.834m-2.56 5.878 16.115-6.193 3.105 8.081-3.464 1.331-2.034-5.291-12.649 4.862-1.073-2.79zm16.595-14.504-3.202 1.23 2.337 6.081-3.464 1.331-5.838-15.188 3.465-1.331 2.397 6.238 3.202-1.23 1.103 2.869zM153.201 40.202c1.82 7.741.705 14.666-7.222 21.109l-2.559-2.41c5.7-4.616 7.562-9.225 6.765-14.948l-8.4 1.977-.677-2.882 12.093-2.846zm6.876-4.4 5.945 25.282-3.639.857-5.945-25.283 3.639-.856zM185.827 45.363l.19 1.653 6.984-.797.766 6.696-14.081 1.607.167 1.456 14.752-1.683.316 2.773-18.411 2.102-.775-6.779 14.108-1.611-.16-1.401-14.137 1.614-.314-2.746 7.097-.81-.189-1.653-9.751 1.113-.333-2.914 23.245-2.653.333 2.914-9.807 1.119zm6.977-4.826c-4.496.03-7.874-1.287-9.763-3.455-1.352 2.538-4.372 4.586-8.76 5.569l-1.519-2.636c5.72-1.22 8.215-4.145 7.93-6.638l-.054-.477 3.799-.433.055.476c.285 2.493 3.376 4.78 9.224 4.68l-.912 2.914zM216.997 45.348c-2.819-.904-4.775-2.719-5.921-4.993-1.099 2.633-3.131 4.767-6.13 5.81l-1.91-2.915c4.091-1.477 5.943-4.793 6.026-8.037l-5.087.047-.028-2.989 13.912-.129.027 2.99-5.03.045c.14 2.96 1.965 5.99 5.913 7.25l-1.772 2.921zm8.011 6.187c.029 3.158-3.328 5.022-8.808 5.073-5.508.051-8.898-1.751-8.927-4.909-.03-3.158 3.327-5.023 8.834-5.073 5.481-.051 8.872 1.751 8.901 4.909m-3.711.034c-.014-1.466-1.791-2.155-5.162-2.124-3.401.031-5.165.753-5.151 2.22.013 1.466 1.79 2.154 5.19 2.123 3.373-.031 5.137-.752 5.123-2.219m-.248-14.747-.057-6.26 3.709-.034.143 15.453-3.709.034-.059-6.175-3.877.036-.029-3.018 3.879-.036zM256.793 53.145l-.303 3.002-23.326-2.354.303-3.003 9.789.989.48-4.743-7.328-.74 1.365-13.497 3.664.37-.406 4.013 11.02 1.112.406-4.012 3.637.366-1.365 13.498-7.301-.738-.48 4.743 9.845.994zM240.37 43.72l11.021 1.112.366-3.62-11.02-1.112-.367 3.62zM287.723 52.828l-.625 2.836-22.865-5.033.623-2.837 9.607 2.116.346-1.571-6.752-1.486L270.444 36l17.402 3.831-.606 2.754-13.806-3.039-.291 1.323 13.23 2.912-.582 2.643-13.23-2.912-.303 1.377 14 3.082-.605 2.754-7.221-1.589-.346 1.569 9.637 2.123zm-4.478 7.533c-.594 2.699-4.125 3.451-9.697 2.224-5.547-1.219-8.438-3.386-7.844-6.086.6-2.726 4.127-3.452 9.672-2.231 5.572 1.227 8.468 3.366 7.869 6.093m-3.651-.804c.229-1.047-1.293-1.844-4.807-2.617-3.486-.768-5.201-.684-5.432.363s1.285 1.871 4.771 2.639c3.515.773 5.238.662 5.468-.385M312.803 71.127l-1.016 2.782-16.799-6.134 2.873-7.867 3.486 1.273-1.857 5.086 13.313 4.86zm-5.103-9.878c-2.355-1.911-3.547-4.387-3.771-7.051-2.008 2.058-4.635 3.351-7.82 3.299l-.754-3.427c4.545.097 7.537-2.683 8.717-5.914l.871-2.385 3.539 1.293-.871 2.384c-1.17 3.205-.621 6.948 2.875 9.666l-2.786 2.135zm5.734 6.266-3.514-1.282 6.492-17.775 3.514 1.284-6.492 17.773zM342.475 81.645l-8.654-4.915-3.998 7.037-3.227-1.833 3.998-7.037-8.506-4.832 1.463-2.575 20.387 11.581-1.463 2.574zm.254-6.082-15.645-8.887 5.686-10.005 3.201 1.82-1.463 2.574 9.266 5.263 1.463-2.575 3.178 1.805-5.686 10.005zm-.391-6.71-9.264-5.263-1.324 2.33 9.264 5.263 1.324-2.33z"/><path fill-rule="evenodd" clip-rule="evenodd" fill="#FFF" d="M143.723 171.227h-12.305l-1.744-40.415-26.072 40.415H91.278l-.107-66.619h15.388l-.974 42.012 26.453-42.012h11.052l1.147 42.012 24.437-42.012h15.388zM194.129 171.764l.227-11.823h-18.603l-6.522 11.823h-17.836l40.159-66.793h17.597l2.823 66.793h-17.845zm1.137-47.112-13.713 24.308h13.424l.289-24.308z"/><path fill="none" d="M19.675 21.5h390.647v275.598H19.675z"/><ellipse fill="none" cx="213.88" cy="146.109" rx="213.88" ry="146.109"/><text transform="matrix(.7365 .6071 -.6361 .7716 42.551 233.863)" fill="#FFF" stroke="#000" stroke-width="1.417" stroke-miterlimit="10" font-family="'NanumBarunGothicBold'" font-size="20">웹</text><text transform="matrix(.7907 .5347 -.5602 .8283 56.359 245.176)" fill="#FFF" stroke="#000" stroke-width="1.417" stroke-miterlimit="10" font-family="'NanumBarunGothicBold'" font-size="20">와</text><text transform="matrix(.8332 .4657 -.4879 .8729 71.099 255.09)" fill="#FFF" stroke="#000" stroke-width="1.417" stroke-miterlimit="10" font-family="'NanumBarunGothicBold'" font-size="20">치</text><text transform="matrix(.859 .4162 -.436 .9 86.466 263.517)" fill="#FFF" stroke="#000" stroke-width="1.417" stroke-miterlimit="10" font-family="'NanumBarunGothicBold'" font-size="20">(</text><text transform="matrix(.8816 .3658 -.3832 .9237 94.538 267.563)" fill="#FFF" stroke="#000" stroke-width="1.417" stroke-miterlimit="10" font-family="'NanumBarunGothicBold'" font-size="20">W</text><text transform="matrix(.9016 .3133 -.3283 .9446 111.994 274.663)" fill="#FFF" stroke="#000" stroke-width="1.417" stroke-miterlimit="10" font-family="'NanumBarunGothicBold'" font-size="20">e</text><text transform="matrix(.9141 .2749 -.288 .9576 122.415 278.283)" fill="#FFF" stroke="#000" stroke-width="1.417" stroke-miterlimit="10" font-family="'NanumBarunGothicBold'" font-size="20">b</text><text transform="matrix(.9278 .2242 -.2349 .972 133.619 281.736)" fill="#FFF" stroke="#000" stroke-width="1.417" stroke-miterlimit="10" font-family="'NanumBarunGothicBold'" font-size="20">W</text><text transform="matrix(.9382 .1758 -.1842 .9829 151.9 286.04)" fill="#FFF" stroke="#000" stroke-width="1.417" stroke-miterlimit="10" font-family="'NanumBarunGothicBold'" font-size="20">a</text><text transform="matrix(.9431 .1473 -.1543 .988 162.656 288.02)" fill="#FFF" stroke="#000" stroke-width="1.417" stroke-miterlimit="10" font-family="'NanumBarunGothicBold'" font-size="20">t</text><text transform="matrix(.9468 .1211 -.1269 .9919 169.635 289.124)" fill="#FFF" stroke="#000" stroke-width="1.417" stroke-miterlimit="10" font-family="'NanumBarunGothicBold'" font-size="20">c</text><text transform="matrix(.9504 .0881 -.0923 .9957 179.218 290.36)" fill="#FFF" stroke="#000" stroke-width="1.417" stroke-miterlimit="10" font-family="'NanumBarunGothicBold'" font-size="20">h</text><text transform="matrix(.9528 .0569 -.0596 .9982 190.76 291.403)" fill="#FFF" stroke="#000" stroke-width="1.417" stroke-miterlimit="10" font-family="'NanumBarunGothicBold'" font-size="20">)</text><text transform="matrix(.9538 .037 -.0387 .9992 199.435 291.897)" fill="#FFF" stroke="#000" stroke-width="1.417" stroke-miterlimit="10" font-family="'NanumBarunGothicBold'" font-size="20"> </text><text transform="matrix(.9544 .0132 -.0138 .9999 203.914 292.11)" fill="#FFF" stroke="#000" stroke-width="1.417" stroke-miterlimit="10" font-family="'NanumBarunGothicBold'" font-size="20">2</text><text transform="matrix(.9543 -.0209 .0219 .9998 215.298 292.263)" fill="#FFF" stroke="#000" stroke-width="1.417" stroke-miterlimit="10" font-family="'NanumBarunGothicBold'" font-size="20">0</text><text transform="matrix(.9529 -.0555 .0581 .9983 226.73 292.007)" fill="#FFF" stroke="#000" stroke-width="1.417" stroke-miterlimit="10" font-family="'NanumBarunGothicBold'" font-size="20">2</text><text transform="matrix(.9502 -.0906 .0949 .9955 238.168 291.337)" fill="#FFF" stroke="#000" stroke-width="1.417" stroke-miterlimit="10" font-family="'NanumBarunGothicBold'" font-size="20">5</text><text transform="matrix(.9473 -.1174 .123 .9924 249.482 290.216)" fill="#FFF" stroke="#000" stroke-width="1.417" stroke-miterlimit="10" font-family="'NanumBarunGothicBold'" font-size="20">.</text><text transform="matrix(.9435 -.1444 .1513 .9885 255.346 289.525)" fill="#FFF" stroke="#000" stroke-width="1.417" stroke-miterlimit="10" font-family="'NanumBarunGothicBold'" font-size="20">2</text><text transform="matrix(.9389 -.1719 .1801 .9836 266.601 287.759)" fill="#FFF" stroke="#000" stroke-width="1.417" stroke-miterlimit="10" font-family="'NanumBarunGothicBold'" font-size="20">.</text><text transform="matrix(.9334 -.1997 .2092 .9779 272.432 286.73)" fill="#FFF" stroke="#000" stroke-width="1.417" stroke-miterlimit="10" font-family="'NanumBarunGothicBold'" font-size="20">1</text><text transform="matrix(.9246 -.2372 .2485 .9686 283.658 284.321)" fill="#FFF" stroke="#000" stroke-width="1.417" stroke-miterlimit="10" font-family="'NanumBarunGothicBold'" font-size="20">2</text><text transform="matrix(.913 -.2783 .2916 .9566 294.829 281.468)" fill="#FFF" stroke="#000" stroke-width="1.417" stroke-miterlimit="10" font-family="'NanumBarunGothicBold'" font-size="20">~</text><text transform="matrix(.8991 -.3204 .3356 .942 307.409 277.606)" fill="#FFF" stroke="#000" stroke-width="1.417" stroke-miterlimit="10" font-family="'NanumBarunGothicBold'" font-size="20">2</text><text transform="matrix(.8838 -.3606 .3778 .9259 318.25 273.736)" fill="#FFF" stroke="#000" stroke-width="1.417" stroke-miterlimit="10" font-family="'NanumBarunGothicBold'" font-size="20">0</text><text transform="matrix(.8657 -.4021 .4213 .9069 328.948 269.361)" fill="#FFF" stroke="#000" stroke-width="1.417" stroke-miterlimit="10" font-family="'NanumBarunGothicBold'" font-size="20">2</text><text transform="matrix(.8446 -.4447 .4659 .8848 339.418 264.49)" fill="#FFF" stroke="#000" stroke-width="1.417" stroke-miterlimit="10" font-family="'NanumBarunGothicBold'" font-size="20">6</text><text transform="matrix(.8263 -.4778 .5006 .8657 349.535 259.095)" fill="#FFF" stroke="#000" stroke-width="1.417" stroke-miterlimit="10" font-family="'NanumBarunGothicBold'" font-size="20">.</text><text transform="matrix(.8057 -.5118 .5362 .8441 354.79 256.113)" fill="#FFF" stroke="#000" stroke-width="1.417" stroke-miterlimit="10" font-family="'NanumBarunGothicBold'" font-size="20">2</text><text transform="matrix(.7826 -.5465 .5725 .8199 364.455 249.898)" fill="#FFF" stroke="#000" stroke-width="1.417" stroke-miterlimit="10" font-family="'NanumBarunGothicBold'" font-size="20">.</text><text transform="matrix(.7564 -.5821 .6099 .7925 369.474 246.459)" fill="#FFF" stroke="#000" stroke-width="1.417" stroke-miterlimit="10" font-family="'NanumBarunGothicBold'" font-size="20">1</text><text transform="matrix(.7167 -.6305 .6605 .7508 378.729 239.32)" fill="#FFF" stroke="#000" stroke-width="1.417" stroke-miterlimit="10" font-family="'NanumBarunGothicBold'" font-size="20">1</text></svg>