<svg xmlns="http://www.w3.org/2000/svg" width="38" height="32" viewBox="-9 -6 38 32" xml:space="preserve"><path fill="#F4A71D" d="M10.45 3.6c-.35 0-.65-.3-.65-.65V.65c0-.35.3-.65.65-.65.35 0 .65.3.65.65v2.3c0 .35-.3.65-.65.65zm0 17.3a.663.663 0 0 1-.65-.65v-2.3c0-.351.3-.65.65-.65.35 0 .649.3.649.65v2.3a.66.66 0 0 1-.649.65zm-7.5-9.8H.65c-.35 0-.65-.3-.65-.65 0-.35.3-.65.65-.65h2.3c.35 0 .65.3.65.65 0 .35-.3.65-.65.65zm17.3 0h-2.3c-.351 0-.65-.3-.65-.649 0-.35.3-.65.65-.65h2.3c.35 0 .65.3.65.65 0 .349-.3.649-.65.649zM16 5.75c-.15 0-.35-.05-.45-.2a.695.695 0 0 1 0-.95l1.6-1.6c.25-.25.7-.25.95 0s.25.7 0 .95l-1.6 1.6c-.15.15-.35.2-.5.2zM3.55 18.2c-.15 0-.35-.05-.45-.2a.695.695 0 0 1 0-.95l1.6-1.6c.25-.25.7-.25.95 0s.25.7 0 .95L4 18c-.1.15-.3.2-.45.2zm14.05-.1c-.149 0-.35-.05-.449-.199L15.55 16.3c-.25-.25-.25-.7 0-.95s.7-.25.95 0l1.6 1.601c.25.25.25.7 0 .95a.644.644 0 0 1-.5.199zM5.15 5.85c-.15 0-.35-.05-.45-.2l-1.6-1.6c-.25-.25-.25-.7 0-.95s.7-.25.95 0l1.6 1.6c.25.25.25.7 0 .95-.15.15-.3.2-.5.2zm5.3.4c2.3 0 4.2 1.9 4.2 4.2 0 2.3-1.9 4.2-4.2 4.2-2.3 0-4.2-1.9-4.2-4.2 0-2.3 1.9-4.2 4.2-4.2m0-1.35C7.4 4.9 4.9 7.4 4.9 10.45S7.4 16 10.45 16 16 13.5 16 10.45 13.5 4.9 10.45 4.9z"/></svg>